<?xml version="1.0" encoding="UTF-8" standalone="no"?><svg xmlns="http://www.w3.org/2000/svg" xmlns:xlink="http://www.w3.org/1999/xlink" contentStyleType="text/css" height="351px" preserveAspectRatio="none" style="width:610px;height:351px;background:#FFFFFF;" version="1.1" viewBox="0 0 610 351" width="610px" zoomAndPan="magnify"><defs/><g><!--MD5=[9f3a4d22411ba4da425363dee472d6e6]
entity IGA--><g id="elem_IGA"><ellipse cx="83.5" cy="14" fill="#F1F1F1" rx="8" ry="8" style="stroke:#181818;stroke-width:0.5;"/><text fill="#000000" font-family="sans-serif" font-size="14" lengthAdjust="spacing" textLength="155" x="6" y="45.9659">UI Gestor de Armazéns</text></g><!--MD5=[d71bdcd1eddae83d7adfe21f16eab617]
entity IGL--><g id="elem_IGL"><ellipse cx="83.5" cy="113" fill="#F1F1F1" rx="8" ry="8" style="stroke:#181818;stroke-width:0.5;"/><text fill="#000000" font-family="sans-serif" font-size="14" lengthAdjust="spacing" textLength="147" x="10" y="144.9659">UI Gestor de Logística</text></g><!--MD5=[d82522643ea151338755f29f7aa7f11b]
entity IGF--><g id="elem_IGF"><ellipse cx="83.5" cy="212" fill="#F1F1F1" rx="8" ry="8" style="stroke:#181818;stroke-width:0.5;"/><text fill="#000000" font-family="sans-serif" font-size="14" lengthAdjust="spacing" textLength="122" x="22.5" y="243.9659">UI Gestor de Frota</text></g><!--MD5=[65869becbd3db214babd1d61d8805c31]
entity IADM--><g id="elem_IADM"><ellipse cx="83.5" cy="311" fill="#F1F1F1" rx="8" ry="8" style="stroke:#181818;stroke-width:0.5;"/><text fill="#000000" font-family="sans-serif" font-size="14" lengthAdjust="spacing" textLength="116" x="25.5" y="342.9659">UI Administrador</text></g><!--MD5=[34fba3c7b240a880f4784ec60f0b91b0]
entity IGOO--><g id="elem_IGOO"><ellipse cx="283" cy="260" fill="#F1F1F1" rx="8" ry="8" style="stroke:#181818;stroke-width:0.5;"/><text fill="#000000" font-family="sans-serif" font-size="14" lengthAdjust="spacing" textLength="151" x="207.5" y="291.9659">Google Maps REST API</text></g><!--MD5=[0aac872f208ab6f5f7887aae079fb447]
entity c1--><g id="elem_c1"><rect fill="#F1F1F1" height="68.1358" rx="2.5" ry="2.5" style="stroke:#181818;stroke-width:0.5;" width="107" x="229.5" y="129"/><rect fill="#F1F1F1" height="10" style="stroke:#181818;stroke-width:0.5;" width="15" x="316.5" y="134"/><rect fill="#F1F1F1" height="2" style="stroke:#181818;stroke-width:0.5;" width="4" x="314.5" y="136"/><rect fill="#F1F1F1" height="2" style="stroke:#181818;stroke-width:0.5;" width="4" x="314.5" y="140"/><text fill="#000000" font-family="sans-serif" font-size="14" font-style="italic" lengthAdjust="spacing" textLength="57" x="249.5" y="163.9659">«system»</text><text fill="#000000" font-family="sans-serif" font-size="14" lengthAdjust="spacing" textLength="67" x="244.5" y="183.0339">ElectricGo</text></g><g id="elem_GMN66"><path d="M397.5,122.5 L397.5,159 L336.72,163 L397.5,167 L397.5,203.3241 A0,0 0 0 0 397.5,203.3241 L603.5,203.3241 A0,0 0 0 0 603.5,203.3241 L603.5,132.5 L593.5,122.5 L397.5,122.5 A0,0 0 0 0 397.5,122.5 " fill="#FEFFDD" style="stroke:#181818;stroke-width:0.5;"/><path d="M593.5,122.5 L593.5,132.5 L603.5,132.5 L593.5,122.5 " fill="#FEFFDD" style="stroke:#181818;stroke-width:0.5;"/><text fill="#000000" font-family="sans-serif" font-size="13" lengthAdjust="spacing" textLength="166" x="403.5" y="141.397">Sistema de planeamento de</text><text fill="#000000" font-family="sans-serif" font-size="13" lengthAdjust="spacing" textLength="176" x="403.5" y="159.103">distribuiçãode entregas entre</text><text fill="#000000" font-family="sans-serif" font-size="13" lengthAdjust="spacing" textLength="182" x="403.5" y="176.809">armazéns utilizando uma frota</text><text fill="#000000" font-family="sans-serif" font-size="13" lengthAdjust="spacing" textLength="119" x="403.5" y="194.5151">de veículos elétricos</text></g><!--MD5=[55844d0db9f3e82115266c62566e8798]
link IGA to c1--><g id="link_IGA_c1"><path d="M92.7,18.1 C108.11,25.95 142.22,44.03 168.5,63 C196.18,82.98 225.02,108.46 246.7,128.69 " fill="none" id="IGA-c1" style="stroke:#181818;stroke-width:1.0;"/></g><!--MD5=[c6a2686c61bf421a8335cf0e7c9bf2e1]
link IGL to c1--><g id="link_IGL_c1"><path d="M92.99,115.15 C116.17,121.02 182.01,137.69 229.46,149.7 " fill="none" id="IGL-c1" style="stroke:#181818;stroke-width:1.0;"/></g><!--MD5=[9b5db44246ee1a1fbc49ef190385eea0]
link IGF to c1--><g id="link_IGF_c1"><path d="M92.99,209.89 C116.17,204.14 182.01,187.81 229.46,176.03 " fill="none" id="IGF-c1" style="stroke:#181818;stroke-width:1.0;"/></g><!--MD5=[265cdcfe920a1d7c22db8f9e4e723e78]
link IADM to c1--><g id="link_IADM_c1"><path d="M92.67,306.76 C108.03,298.65 142.07,280.05 168.5,261 C195.64,241.44 224.13,216.82 245.78,197.16 " fill="none" id="IADM-c1" style="stroke:#181818;stroke-width:1.0;"/></g><!--MD5=[d045e2f9e1686cc65d4d1a9665d1fa99]
link c1 to IGOO--><g id="link_c1_IGOO"><path d="M283,197.3 C283,213.92 283,232.97 283,245.67 " fill="none" id="c1-to-IGOO" style="stroke:#181818;stroke-width:1.0;stroke-dasharray:7.0,7.0;"/><polygon fill="#181818" points="283,250.7,287,241.7,283,245.7,279,241.7,283,250.7" style="stroke:#181818;stroke-width:1.0;"/><text fill="#000000" font-family="sans-serif" font-size="13" lengthAdjust="spacing" textLength="3" x="269" y="229.397"> </text></g><!--MD5=[0a68159a1f7c435c95a9faf586518a0c]
@startuml
left to right direction

interface "UI Gestor de Armazéns" as IGA
interface "UI Gestor de Logística" as IGL
interface "UI Gestor de Frota" as IGF
interface "UI Administrador" as IADM
interface "Google Maps REST API" as IGOO

component [ElectricGo] <<system>> as c1

note right of c1
Sistema de planeamento de 
distribuiçãode entregas entre 
armazéns utilizando uma frota 
de veículos elétricos
end note

IGA - - c1
IGL - - c1
IGF - - c1
IADM - - c1

c1 .right.> IGOO : " "

@enduml

PlantUML version 1.2022.6(Tue Jun 21 18:34:49 WEST 2022)
(GPL source distribution)
Java Runtime: OpenJDK Runtime Environment
JVM: OpenJDK 64-Bit Server VM
Default Encoding: UTF-8
Language: en
Country: US
--></g></svg>