<?xml version="1.0" encoding="UTF-8" standalone="no"?><svg xmlns="http://www.w3.org/2000/svg" xmlns:xlink="http://www.w3.org/1999/xlink" contentStyleType="text/css" height="737px" preserveAspectRatio="none" style="width:672px;height:737px;background:#FFFFFF;" version="1.1" viewBox="0 0 672 737" width="672px" zoomAndPan="magnify"><defs/><g><!--MD5=[c7e2eff8cb3936e8394e3dcf771faf0a]
cluster U--><g id="cluster_U"><polygon points="289,253,299,243,637,243,637,454,627,464,289,464,289,253" style="stroke:#181818;stroke-width:1.0;fill:none;"/><line style="stroke:#181818;stroke-width:1.0;fill:none;" x1="627" x2="637" y1="253" y2="243"/><line style="stroke:#181818;stroke-width:1.0;fill:none;" x1="289" x2="627" y1="253" y2="253"/><line style="stroke:#181818;stroke-width:1.0;fill:none;" x1="627" x2="627" y1="253" y2="464"/><text fill="#000000" font-family="sans-serif" font-size="14" font-weight="bold" lengthAdjust="spacing" textLength="171" x="373.5" y="270.9659">Dispositivo do Utilizador</text></g><!--MD5=[75e2a8cc8ca07261933251a8dca0fc98]
cluster Navegador Web--><g id="cluster_Navegador Web"><rect height="125" rx="2.5" ry="2.5" style="stroke:#181818;stroke-width:1.0;fill:none;" width="276" x="329" y="307"/><path d="M450,307 L450,319.0679 L440,329.0679 L329,329.0679 " fill="none" style="stroke:#181818;stroke-width:1.0;"/><text fill="#000000" font-family="sans-serif" font-size="14" font-weight="bold" lengthAdjust="spacing" textLength="111" x="332" y="322.9659">Navegador Web</text></g><!--MD5=[4257423e334641e537ffa92160115f43]
cluster H--><g id="cluster_H"><polygon points="289,16,299,6,530,6,530,166,520,176,289,176,289,16" style="stroke:#181818;stroke-width:1.0;fill:none;"/><line style="stroke:#181818;stroke-width:1.0;fill:none;" x1="520" x2="530" y1="16" y2="6"/><line style="stroke:#181818;stroke-width:1.0;fill:none;" x1="289" x2="520" y1="16" y2="16"/><line style="stroke:#181818;stroke-width:1.0;fill:none;" x1="520" x2="520" y1="16" y2="176"/><text fill="#000000" font-family="sans-serif" font-size="14" font-weight="bold" lengthAdjust="spacing" textLength="91" x="360" y="33.9659">Web Server 1</text></g><!--MD5=[99eba6e841e10f0e903161ac505afb50]
cluster A--><g id="cluster_A"><polygon points="474,550.5,484,540.5,655,540.5,655,700.5,645,710.5,474,710.5,474,550.5" style="stroke:#181818;stroke-width:1.0;fill:none;"/><line style="stroke:#181818;stroke-width:1.0;fill:none;" x1="645" x2="655" y1="550.5" y2="540.5"/><line style="stroke:#181818;stroke-width:1.0;fill:none;" x1="474" x2="645" y1="550.5" y2="550.5"/><line style="stroke:#181818;stroke-width:1.0;fill:none;" x1="645" x2="645" y1="550.5" y2="710.5"/><text fill="#000000" font-family="sans-serif" font-size="14" font-weight="bold" lengthAdjust="spacing" textLength="91" x="515" y="568.4659">Web Server 2</text></g><!--MD5=[c3bf9c79f336e49cfefa7a9535eee252]
cluster W--><g id="cluster_W"><polygon points="237,541,247,531,434,531,434,710,424,720,237,720,237,541" style="stroke:#181818;stroke-width:1.0;fill:none;"/><line style="stroke:#181818;stroke-width:1.0;fill:none;" x1="424" x2="434" y1="541" y2="531"/><line style="stroke:#181818;stroke-width:1.0;fill:none;" x1="237" x2="424" y1="541" y2="541"/><line style="stroke:#181818;stroke-width:1.0;fill:none;" x1="424" x2="424" y1="541" y2="720"/><text fill="#000000" font-family="sans-serif" font-size="14" font-weight="bold" lengthAdjust="spacing" textLength="91" x="286" y="558.9659">Web Server 3</text></g><!--MD5=[806684192a35eec0da82840a1081b5d2]
cluster L--><g id="cluster_L"><polygon points="68,289.5,78,279.5,249,279.5,249,439.5,239,449.5,68,449.5,68,289.5" style="stroke:#181818;stroke-width:1.0;fill:none;"/><line style="stroke:#181818;stroke-width:1.0;fill:none;" x1="239" x2="249" y1="289.5" y2="279.5"/><line style="stroke:#181818;stroke-width:1.0;fill:none;" x1="68" x2="239" y1="289.5" y2="289.5"/><line style="stroke:#181818;stroke-width:1.0;fill:none;" x1="239" x2="239" y1="289.5" y2="449.5"/><text fill="#000000" font-family="sans-serif" font-size="14" font-weight="bold" lengthAdjust="spacing" textLength="91" x="109" y="307.4659">Web Server 4</text></g><!--MD5=[ab4376919c0c48ac6244b94af79c3d81]
cluster P--><g id="cluster_P"><polygon points="16,550.5,26,540.5,197,540.5,197,700.5,187,710.5,16,710.5,16,550.5" style="stroke:#181818;stroke-width:1.0;fill:none;"/><line style="stroke:#181818;stroke-width:1.0;fill:none;" x1="187" x2="197" y1="550.5" y2="540.5"/><line style="stroke:#181818;stroke-width:1.0;fill:none;" x1="16" x2="187" y1="550.5" y2="550.5"/><line style="stroke:#181818;stroke-width:1.0;fill:none;" x1="187" x2="187" y1="550.5" y2="710.5"/><text fill="#000000" font-family="sans-serif" font-size="14" font-weight="bold" lengthAdjust="spacing" textLength="91" x="57" y="568.4659">Web Server 5</text></g><!--MD5=[852d6cfb65a9b9001c1172c5d21494cb]
entity User Interface - código cliente--><g id="elem_User Interface - código cliente"><rect fill="#F1F1F1" height="49.0679" rx="2.5" ry="2.5" style="stroke:#181818;stroke-width:0.5;" width="243" x="345.5" y="367"/><rect fill="#F1F1F1" height="10" style="stroke:#181818;stroke-width:0.5;" width="15" x="568.5" y="372"/><rect fill="#F1F1F1" height="2" style="stroke:#181818;stroke-width:0.5;" width="4" x="566.5" y="374"/><rect fill="#F1F1F1" height="2" style="stroke:#181818;stroke-width:0.5;" width="4" x="566.5" y="378"/><text fill="#000000" font-family="sans-serif" font-size="14" lengthAdjust="spacing" textLength="203" x="360.5" y="401.9659">User Interface - código cliente</text></g><!--MD5=[cef607bf22136af2339763bdf8ccb404]
entity User Interface - SPA--><g id="elem_User Interface - SPA"><rect fill="#F1F1F1" height="68.1358" rx="2.5" ry="2.5" style="stroke:#181818;stroke-width:0.5;" width="174" x="332" y="84"/><rect fill="#F1F1F1" height="10" style="stroke:#181818;stroke-width:0.5;" width="15" x="486" y="89"/><rect fill="#F1F1F1" height="2" style="stroke:#181818;stroke-width:0.5;" width="4" x="484" y="91"/><rect fill="#F1F1F1" height="2" style="stroke:#181818;stroke-width:0.5;" width="4" x="484" y="95"/><text fill="#000000" font-family="sans-serif" font-size="14" font-style="italic" lengthAdjust="spacing" textLength="74" x="377" y="118.9659">«container»</text><text fill="#000000" font-family="sans-serif" font-size="14" lengthAdjust="spacing" textLength="134" x="347" y="138.0339">User Interface - SPA</text></g><!--MD5=[a55bc0d4c417d60fe468aef8d766e534]
entity Authz--><g id="elem_Authz"><rect fill="#F1F1F1" height="68.1358" rx="2.5" ry="2.5" style="stroke:#181818;stroke-width:0.5;" width="114" x="517" y="618.5"/><rect fill="#F1F1F1" height="10" style="stroke:#181818;stroke-width:0.5;" width="15" x="611" y="623.5"/><rect fill="#F1F1F1" height="2" style="stroke:#181818;stroke-width:0.5;" width="4" x="609" y="625.5"/><rect fill="#F1F1F1" height="2" style="stroke:#181818;stroke-width:0.5;" width="4" x="609" y="629.5"/><text fill="#000000" font-family="sans-serif" font-size="14" font-style="italic" lengthAdjust="spacing" textLength="74" x="532" y="653.4659">«container»</text><text fill="#000000" font-family="sans-serif" font-size="14" lengthAdjust="spacing" textLength="39" x="549.5" y="672.5339">Authz</text></g><!--MD5=[5ce2ba9eb6677c38aa63be3b37f57e0e]
entity Warehouse\nManagement--><g id="elem_Warehouse\nManagement"><rect fill="#F1F1F1" height="87.2038" rx="2.5" ry="2.5" style="stroke:#181818;stroke-width:0.5;" width="130" x="280" y="609"/><rect fill="#F1F1F1" height="10" style="stroke:#181818;stroke-width:0.5;" width="15" x="390" y="614"/><rect fill="#F1F1F1" height="2" style="stroke:#181818;stroke-width:0.5;" width="4" x="388" y="616"/><rect fill="#F1F1F1" height="2" style="stroke:#181818;stroke-width:0.5;" width="4" x="388" y="620"/><text fill="#000000" font-family="sans-serif" font-size="14" font-style="italic" lengthAdjust="spacing" textLength="74" x="303" y="643.9659">«container»</text><text fill="#000000" font-family="sans-serif" font-size="14" lengthAdjust="spacing" textLength="76" x="295" y="663.0339">Warehouse</text><text fill="#000000" font-family="sans-serif" font-size="14" lengthAdjust="spacing" textLength="90" x="295" y="682.1018">Management</text></g><!--MD5=[4eab8f518407dc74251df1201d2b5370]
entity Logistics--><g id="elem_Logistics"><rect fill="#F1F1F1" height="68.1358" rx="2.5" ry="2.5" style="stroke:#181818;stroke-width:0.5;" width="114" x="111" y="357.5"/><rect fill="#F1F1F1" height="10" style="stroke:#181818;stroke-width:0.5;" width="15" x="205" y="362.5"/><rect fill="#F1F1F1" height="2" style="stroke:#181818;stroke-width:0.5;" width="4" x="203" y="364.5"/><rect fill="#F1F1F1" height="2" style="stroke:#181818;stroke-width:0.5;" width="4" x="203" y="368.5"/><text fill="#000000" font-family="sans-serif" font-size="14" font-style="italic" lengthAdjust="spacing" textLength="74" x="126" y="392.4659">«container»</text><text fill="#000000" font-family="sans-serif" font-size="14" lengthAdjust="spacing" textLength="58" x="134" y="411.5339">Logistics</text></g><!--MD5=[4243c1601d305ab699cf48f8763533aa]
entity Planning--><g id="elem_Planning"><rect fill="#F1F1F1" height="68.1358" rx="2.5" ry="2.5" style="stroke:#181818;stroke-width:0.5;" width="114" x="59" y="618.5"/><rect fill="#F1F1F1" height="10" style="stroke:#181818;stroke-width:0.5;" width="15" x="153" y="623.5"/><rect fill="#F1F1F1" height="2" style="stroke:#181818;stroke-width:0.5;" width="4" x="151" y="625.5"/><rect fill="#F1F1F1" height="2" style="stroke:#181818;stroke-width:0.5;" width="4" x="151" y="629.5"/><text fill="#000000" font-family="sans-serif" font-size="14" font-style="italic" lengthAdjust="spacing" textLength="74" x="74" y="653.4659">«container»</text><text fill="#000000" font-family="sans-serif" font-size="14" lengthAdjust="spacing" textLength="60" x="81" y="672.5339">Planning</text></g><!--MD5=[459d70d8a3abada98ae99dbe2629d020]
link H to U--><g id="link_H_U"><path d="M297,176.355 C297,176.7903 297,177.2272 297,177.6658 C297,179.42 297,181.1999 297,183.0035 C297,190.2179 297,197.8116 297,205.6583 C297,213.505 297,221.6045 297,229.8305 C297,233.9435 297,238.0881 297,242.2485 C297,242.3785 297,242.5085 297,242.6386 C297,242.7036 297,242.7686 297,242.8337 " fill="none" id="H-U" style="stroke:#181818;stroke-width:1.0;"/><text fill="#000000" font-family="sans-serif" font-size="13" lengthAdjust="spacing" textLength="32" x="298" y="214.897">https</text></g><!--MD5=[1516fef85b3cf51cac44b7c0b75b67eb]
link U to A--><g id="link_U_A"><path d="M316.9334,464.2182 C317.0959,464.4926 317.2597,464.7661 317.4248,465.0386 C318.0853,466.1289 318.7669,467.2046 319.4703,468.2634 C322.2839,472.4986 325.4462,476.4625 329,480 C361.48,512.34 392.9,483.3 426,515 C449.305,537.325 463.235,570.74 471.3725,598.92 C471.8811,600.6813 472.3671,602.4221 472.8313,604.1384 C473.0634,604.9966 473.2901,605.8487 473.5114,606.6941 C473.6221,607.1169 473.7314,607.538 473.8394,607.9573 " fill="none" id="U-A" style="stroke:#181818;stroke-width:1.0;"/><text fill="#000000" font-family="sans-serif" font-size="13" lengthAdjust="spacing" textLength="32" x="415" y="502.897">https</text></g><!--MD5=[7f3139259612e80d4a062df29dd5bbdb]
link U to W--><g id="link_U_W"><path d="M288.8961,418.7834 C288.803,419.0955 288.7094,419.4097 288.6152,419.726 C288.4269,420.3586 288.2366,420.9996 288.0442,421.6487 C287.6595,422.947 287.2669,424.2777 286.8673,425.6386 C286.0681,428.3604 285.2411,431.2028 284.3938,434.1475 C277.615,457.705 269.535,487.805 264,515 C263.2488,518.6925 262.518,522.4473 261.8081,526.2428 C261.6306,527.1916 261.4544,528.143 261.2796,529.0967 C261.1921,529.5735 261.105,530.0508 261.0182,530.5287 " fill="none" id="U-W" style="stroke:#181818;stroke-width:1.0;"/><text fill="#000000" font-family="sans-serif" font-size="13" lengthAdjust="spacing" textLength="32" x="270" y="502.897">https</text></g><!--MD5=[620ef4e150da9d6a0a587030754277ae]
link L to U--><g id="link_L_U"><path d="M67.9988,349.2064 C67.975,348.9891 67.9513,348.7713 67.9279,348.553 C67.8342,347.6799 67.744,346.7989 67.6577,345.9107 C67.4852,344.1341 67.3283,342.3284 67.1899,340.4979 C66.9132,336.837 66.7108,333.0769 66.6063,329.2525 C65.77,298.6575 71.2,263.95 95,243 C143.71,200.13 187.63,206.09 241,243 C254.8225,252.56 265.2375,265.9956 273.0841,280.917 C277.0073,288.3777 280.2885,296.2099 283.0325,304.1147 C284.4044,308.0672 285.6421,312.0378 286.7586,315.9892 C287.3168,317.965 287.8447,319.9359 288.344,321.8974 C288.4688,322.3877 288.5919,322.8775 288.7131,323.3666 C288.7738,323.6112 288.8339,323.8556 288.8937,324.0998 " fill="none" id="L-U" style="stroke:#181818;stroke-width:1.0;"/><text fill="#000000" font-family="sans-serif" font-size="13" lengthAdjust="spacing" textLength="32" x="150" y="214.897">https</text></g><!--MD5=[d7059865375eef3f2f97ba53d56b53d8]
link L to P--><g id="link_L_P"><path d="M67.8961,418.7834 C67.803,419.0955 67.7094,419.4097 67.6152,419.726 C67.4269,420.3586 67.2366,420.9996 67.0442,421.6487 C66.6595,422.947 66.2669,424.2777 65.8673,425.6386 C65.0681,428.3604 64.2411,431.2028 63.3938,434.1475 C56.615,457.705 48.535,487.805 43,515 C41.4975,522.385 40.077,530.0192 38.7412,537.7295 C38.6577,538.2114 38.5745,538.6936 38.4917,539.176 C38.4503,539.4173 38.4089,539.6585 38.3677,539.8999 " fill="none" id="L-P" style="stroke:#181818;stroke-width:1.0;"/><text fill="#000000" font-family="sans-serif" font-size="13" lengthAdjust="spacing" textLength="32" x="49" y="502.897">https</text></g><!--MD5=[3e7d2c9a6442e54222d2d62486d05715]
link L to W--><g id="link_L_W"><path d="M79.8942,449.7238 C79.9339,449.8705 79.974,450.0172 80.0143,450.1638 C80.095,450.457 80.177,450.7501 80.2602,451.0428 C80.5931,452.214 80.9463,453.3812 81.3209,454.5422 C84.3181,463.83 88.6875,472.7175 95,480 C124.2,513.69 156.96,484 189,515 C212.195,537.445 226.1225,570.8625 234.2863,599.0138 C234.7965,600.7732 235.2842,602.5121 235.7503,604.2264 C235.9833,605.0836 236.2109,605.9346 236.4332,606.7791 C236.5444,607.2013 236.6542,607.6218 236.7627,608.0406 C236.817,608.25 236.8709,608.459 236.9245,608.6676 " fill="none" id="L-W" style="stroke:#181818;stroke-width:1.0;"/><text fill="#000000" font-family="sans-serif" font-size="13" lengthAdjust="spacing" textLength="32" x="178" y="502.897">https</text></g><!--MD5=[75df9b986e19b8f64943c53f44169627]
@startuml

node "Dispositivo do Utilizador" as U {
  frame "Navegador Web" {
    component [User Interface - código cliente]
  } 
}

node "Web Server 1" as H {
	component [User Interface - SPA] <<container>>
}

node "Web Server 2" as A {
	component [Authz] <<container>>
}

node "Web Server 3" as W {
	component [Warehouse\nManagement] <<container>>
}

node "Web Server 4" as L {
	component [Logistics] <<container>>
}

node "Web Server 5" as P {
	component [Planning] <<container>>
}

H - - U: https
U -down- A: https
U - - W: https
U -left- L: https
L - - P: https
L - - W: https

@enduml

PlantUML version 1.2022.6(Tue Jun 21 18:34:49 WEST 2022)
(GPL source distribution)
Java Runtime: OpenJDK Runtime Environment
JVM: OpenJDK 64-Bit Server VM
Default Encoding: UTF-8
Language: en
Country: US
--></g></svg>