<?xml version="1.0" encoding="UTF-8" standalone="no"?><svg xmlns="http://www.w3.org/2000/svg" xmlns:xlink="http://www.w3.org/1999/xlink" contentStyleType="text/css" height="599px" preserveAspectRatio="none" style="width:338px;height:599px;background:#FFFFFF;" version="1.1" viewBox="0 0 338 599" width="338px" zoomAndPan="magnify"><defs/><g><!--MD5=[5aa9a250c3a2dcb5fef3ce713a84af24]
cluster Warehouse Management--><g id="cluster_Warehouse Management"><path d="M8.5,6.602 L183.5,6.602 A3.75,3.75 0 0 1 186,9.102 L193,31.6699 L328.5,31.6699 A2.5,2.5 0 0 1 331,34.1699 L331,590.102 A2.5,2.5 0 0 1 328.5,592.602 L8.5,592.602 A2.5,2.5 0 0 1 6,590.102 L6,9.102 A2.5,2.5 0 0 1 8.5,6.602 " style="stroke:#000000;stroke-width:1.5;fill:none;"/><line style="stroke:#000000;stroke-width:1.5;fill:none;" x1="6" x2="193" y1="31.6699" y2="31.6699"/><text fill="#000000" font-family="sans-serif" font-size="14" font-weight="bold" lengthAdjust="spacing" textLength="174" x="10" y="23.5679">Warehouse Management</text></g><!--MD5=[9ddaf8ee8bcae11a9a9232f969198262]
cluster Infrastructure--><g id="cluster_Infrastructure"><path d="M48.5,52.602 L146.5,52.602 A3.75,3.75 0 0 1 149,55.102 L156,77.6699 L293.5,77.6699 A2.5,2.5 0 0 1 296,80.1699 L296,161.102 A2.5,2.5 0 0 1 293.5,163.602 L48.5,163.602 A2.5,2.5 0 0 1 46,161.102 L46,55.102 A2.5,2.5 0 0 1 48.5,52.602 " style="stroke:#000000;stroke-width:1.5;fill:none;"/><line style="stroke:#000000;stroke-width:1.5;fill:none;" x1="46" x2="156" y1="77.6699" y2="77.6699"/><text fill="#000000" font-family="sans-serif" font-size="14" font-weight="bold" lengthAdjust="spacing" textLength="97" x="50" y="69.5679">Infrastructure</text></g><!--MD5=[5a2c09c7a25dd2d50c87c8f70ce7edbd]
cluster Interface Adapters--><g id="cluster_Interface Adapters"><path d="M32.5,187.602 L162.5,187.602 A3.75,3.75 0 0 1 165,190.102 L172,212.6699 L304.5,212.6699 A2.5,2.5 0 0 1 307,215.1699 L307,296.102 A2.5,2.5 0 0 1 304.5,298.602 L32.5,298.602 A2.5,2.5 0 0 1 30,296.102 L30,190.102 A2.5,2.5 0 0 1 32.5,187.602 " style="stroke:#000000;stroke-width:1.5;fill:none;"/><line style="stroke:#000000;stroke-width:1.5;fill:none;" x1="30" x2="172" y1="212.6699" y2="212.6699"/><text fill="#000000" font-family="sans-serif" font-size="14" font-weight="bold" lengthAdjust="spacing" textLength="129" x="34" y="204.5679">Interface Adapters</text></g><!--MD5=[d64883541e3d62e3241c4d12decf100d]
cluster Application--><g id="cluster_Application"><path d="M115.5,322.602 L195.5,322.602 A3.75,3.75 0 0 1 198,325.102 L205,347.6699 L228.5,347.6699 A2.5,2.5 0 0 1 231,350.1699 L231,431.102 A2.5,2.5 0 0 1 228.5,433.602 L115.5,433.602 A2.5,2.5 0 0 1 113,431.102 L113,325.102 A2.5,2.5 0 0 1 115.5,322.602 " style="stroke:#000000;stroke-width:1.5;fill:none;"/><line style="stroke:#000000;stroke-width:1.5;fill:none;" x1="113" x2="205" y1="347.6699" y2="347.6699"/><text fill="#000000" font-family="sans-serif" font-size="14" font-weight="bold" lengthAdjust="spacing" textLength="79" x="117" y="339.5679">Application</text></g><!--MD5=[121a8bf1197281ab89ed693fab589f94]
cluster Domain--><g id="cluster_Domain"><path d="M36.5,457.602 L91.5,457.602 A3.75,3.75 0 0 1 94,460.102 L101,482.6699 L300.5,482.6699 A2.5,2.5 0 0 1 303,485.1699 L303,566.102 A2.5,2.5 0 0 1 300.5,568.602 L36.5,568.602 A2.5,2.5 0 0 1 34,566.102 L34,460.102 A2.5,2.5 0 0 1 36.5,457.602 " style="stroke:#000000;stroke-width:1.5;fill:none;"/><line style="stroke:#000000;stroke-width:1.5;fill:none;" x1="34" x2="101" y1="482.6699" y2="482.6699"/><text fill="#000000" font-family="sans-serif" font-size="14" font-weight="bold" lengthAdjust="spacing" textLength="54" x="38" y="474.5679">Domain</text></g><!--MD5=[398aabbab92ffc1efa35c441c8a22c4f]
entity RO--><g id="elem_RO"><path d="M64.5,90.602 L105.5,90.602 A3.75,3.75 0 0 1 108,93.102 L115,111.602 L135.5,111.602 A2.5,2.5 0 0 1 138,114.102 L138,145.1699 A2.5,2.5 0 0 1 135.5,147.6699 L64.5,147.6699 A2.5,2.5 0 0 1 62,145.1699 L62,93.102 A2.5,2.5 0 0 1 64.5,90.602 " fill="#F1F1F1" style="stroke:#181818;stroke-width:0.5;"/><line style="stroke:#181818;stroke-width:0.5;" x1="62" x2="115" y1="111.602" y2="111.602"/><text fill="#000000" font-family="sans-serif" font-size="14" lengthAdjust="spacing" textLength="46" x="72" y="133.5679">Routes</text></g><!--MD5=[6bb665717dfb7d467f5e0e6c38ac4b45]
entity PE--><g id="elem_PE"><path d="M176,90.602 L217,90.602 A3.75,3.75 0 0 1 219.5,93.102 L226.5,111.602 L278,111.602 A2.5,2.5 0 0 1 280.5,114.102 L280.5,145.1699 A2.5,2.5 0 0 1 278,147.6699 L176,147.6699 A2.5,2.5 0 0 1 173.5,145.1699 L173.5,93.102 A2.5,2.5 0 0 1 176,90.602 " fill="#F1F1F1" style="stroke:#181818;stroke-width:0.5;"/><line style="stroke:#181818;stroke-width:0.5;" x1="173.5" x2="226.5" y1="111.602" y2="111.602"/><text fill="#000000" font-family="sans-serif" font-size="14" lengthAdjust="spacing" textLength="77" x="183.5" y="133.5679">Persistence</text></g><!--MD5=[b5af4e906b5608882632c7d969b5b8a1]
entity CO--><g id="elem_CO"><path d="M48,225.602 L89,225.602 A3.75,3.75 0 0 1 91.5,228.102 L98.5,246.602 L140,246.602 A2.5,2.5 0 0 1 142.5,249.102 L142.5,280.1699 A2.5,2.5 0 0 1 140,282.6699 L48,282.6699 A2.5,2.5 0 0 1 45.5,280.1699 L45.5,228.102 A2.5,2.5 0 0 1 48,225.602 " fill="#F1F1F1" style="stroke:#181818;stroke-width:0.5;"/><line style="stroke:#181818;stroke-width:0.5;" x1="45.5" x2="98.5" y1="246.602" y2="246.602"/><text fill="#000000" font-family="sans-serif" font-size="14" lengthAdjust="spacing" textLength="67" x="55.5" y="268.5679">Controller</text></g><!--MD5=[7bbb50bb6a1a4a16f3de7991aea95734]
entity RP--><g id="elem_RP"><path d="M180,225.602 L221,225.602 A3.75,3.75 0 0 1 223.5,228.102 L230.5,246.602 L288,246.602 A2.5,2.5 0 0 1 290.5,249.102 L290.5,280.1699 A2.5,2.5 0 0 1 288,282.6699 L180,282.6699 A2.5,2.5 0 0 1 177.5,280.1699 L177.5,228.102 A2.5,2.5 0 0 1 180,225.602 " fill="#F1F1F1" style="stroke:#181818;stroke-width:0.5;"/><line style="stroke:#181818;stroke-width:0.5;" x1="177.5" x2="230.5" y1="246.602" y2="246.602"/><text fill="#000000" font-family="sans-serif" font-size="14" lengthAdjust="spacing" textLength="83" x="187.5" y="268.5679">Repositories</text></g><!--MD5=[0f187cbaedd9fd489a126ebaacd58bd2]
entity SE--><g id="elem_SE"><path d="M132,360.602 L173,360.602 A3.75,3.75 0 0 1 175.5,363.102 L182.5,381.602 L212,381.602 A2.5,2.5 0 0 1 214.5,384.102 L214.5,415.1699 A2.5,2.5 0 0 1 212,417.6699 L132,417.6699 A2.5,2.5 0 0 1 129.5,415.1699 L129.5,363.102 A2.5,2.5 0 0 1 132,360.602 " fill="#F1F1F1" style="stroke:#181818;stroke-width:0.5;"/><line style="stroke:#181818;stroke-width:0.5;" x1="129.5" x2="182.5" y1="381.602" y2="381.602"/><text fill="#000000" font-family="sans-serif" font-size="14" lengthAdjust="spacing" textLength="55" x="139.5" y="403.5679">Services</text></g><!--MD5=[a5c631c9bda690bd77f64e5ac9ab44b9]
entity EN--><g id="elem_EN"><path d="M209.5,495.602 L250.5,495.602 A3.75,3.75 0 0 1 253,498.102 L260,516.602 L284.5,516.602 A2.5,2.5 0 0 1 287,519.102 L287,550.1699 A2.5,2.5 0 0 1 284.5,552.6699 L209.5,552.6699 A2.5,2.5 0 0 1 207,550.1699 L207,498.102 A2.5,2.5 0 0 1 209.5,495.602 " fill="#F1F1F1" style="stroke:#181818;stroke-width:0.5;"/><line style="stroke:#181818;stroke-width:0.5;" x1="207" x2="260" y1="516.602" y2="516.602"/><text fill="#000000" font-family="sans-serif" font-size="14" lengthAdjust="spacing" textLength="50" x="217" y="538.5679">Entities</text></g><!--MD5=[1f36a17b05b3aa713976330fad1f2444]
entity VO--><g id="elem_VO"><path d="M52.5,495.602 L93.5,495.602 A3.75,3.75 0 0 1 96,498.102 L103,516.602 L169.5,516.602 A2.5,2.5 0 0 1 172,519.102 L172,550.1699 A2.5,2.5 0 0 1 169.5,552.6699 L52.5,552.6699 A2.5,2.5 0 0 1 50,550.1699 L50,498.102 A2.5,2.5 0 0 1 52.5,495.602 " fill="#F1F1F1" style="stroke:#181818;stroke-width:0.5;"/><line style="stroke:#181818;stroke-width:0.5;" x1="50" x2="103" y1="516.602" y2="516.602"/><text fill="#000000" font-family="sans-serif" font-size="14" lengthAdjust="spacing" textLength="92" x="60" y="538.5679">Value Objects</text></g><!--MD5=[4bd9bf7c0fdc3007c29f15d573aab922]
link RO to PE--><!--MD5=[87df5f3db1b3452d8740a3ec1c96cd4f]
link CO to RP--><!--MD5=[a9a6e552a58589a30c82be47a2c86f52]
link RO to CO--><g id="link_RO_CO"><path d="M98.76,147.662 C97.8,168.792 96.48,198.022 95.48,220.352 " fill="none" id="RO-to-CO" style="stroke:#181818;stroke-width:1.0;stroke-dasharray:7.0,7.0;"/><polygon fill="#181818" points="95.24,225.582,99.6468,216.774,95.4683,220.5872,91.6552,216.4087,95.24,225.582" style="stroke:#181818;stroke-width:1.0;"/></g><!--MD5=[0765b1ac2bd69507344180207be6d767]
link CO to SE--><g id="link_CO_SE"><path d="M110.16,282.662 C122.71,304.062 140.13,333.762 153.29,356.192 " fill="none" id="CO-to-SE" style="stroke:#181818;stroke-width:1.0;stroke-dasharray:7.0,7.0;"/><polygon fill="#181818" points="155.86,360.582,154.7601,350.7947,153.3318,356.2683,147.8582,354.8399,155.86,360.582" style="stroke:#181818;stroke-width:1.0;"/></g><!--MD5=[d5968a88f8afd7028c03119fdd496b7e]
reverse link PE to RP--><g id="link_PE_RP"><path d="M228.73,152.892 C229.9,175.222 231.44,204.452 232.55,225.582 " fill="none" id="PE-backto-RP" style="stroke:#181818;stroke-width:1.0;stroke-dasharray:7.0,7.0;"/><polygon fill="#181818" points="228.45,147.662,224.9189,156.8561,228.7075,152.6553,232.9083,156.444,228.45,147.662" style="stroke:#181818;stroke-width:1.0;"/></g><!--MD5=[2f4451ca1b0268f808a63e672a662e9e]
reverse link RP to SE--><g id="link_RP_SE"><path d="M218.98,287.322 C208.53,309.732 194.76,339.282 184.83,360.582 " fill="none" id="RP-backto-SE" style="stroke:#181818;stroke-width:1.0;stroke-dasharray:7.0,7.0;"/><polygon fill="#181818" points="221.15,282.662,213.726,289.1338,219.0403,287.1951,220.9789,292.5094,221.15,282.662" style="stroke:#181818;stroke-width:1.0;"/></g><!--MD5=[0b5550fdc82245dd78c901bd8fa3aa28]
link SE to EN--><g id="link_SE_EN"><path d="M187.54,417.662 C199.61,439.062 216.36,468.762 229.01,491.192 " fill="none" id="SE-to-EN" style="stroke:#181818;stroke-width:1.0;stroke-dasharray:7.0,7.0;"/><polygon fill="#181818" points="231.48,495.582,230.5433,485.7778,229.0239,491.2268,223.5749,489.7075,231.48,495.582" style="stroke:#181818;stroke-width:1.0;"/></g><!--MD5=[6b364166f3b06fdc427c49bcc55b639e]
link SE to VO--><g id="link_SE_VO"><path d="M159.36,417.662 C149.59,438.972 136.03,468.522 125.76,490.912 " fill="none" id="SE-to-VO" style="stroke:#181818;stroke-width:1.0;stroke-dasharray:7.0,7.0;"/><polygon fill="#181818" points="123.62,495.582,131.0104,489.0718,125.7062,491.038,123.74,485.7339,123.62,495.582" style="stroke:#181818;stroke-width:1.0;"/></g><!--MD5=[eb277343351dddd07ca2995f0fee4593]
@startuml

package "Warehouse Management" {
	package "Infrastructure" {
		folder "Routes" as RO
		folder "Persistence" as PE
		RO -[hidden]right- PE
	}
	package "Interface Adapters" {
		folder "Controller" as CO
		folder "Repositories" as RP
		CO -[hidden]right- RP
	}
	package "Application" {
		folder "Services" as SE
	}
	package "Domain" {
		folder "Entities" as EN
		folder "Value Objects" as VO
	}

	RO .down.> CO
	CO .down.> SE
	RP .up.> PE
	SE .up.> RP
	SE .down.> EN
	SE .down.> VO
}

@enduml

PlantUML version 1.2022.6(Tue Jun 21 18:34:49 WEST 2022)
(GPL source distribution)
Java Runtime: OpenJDK Runtime Environment
JVM: OpenJDK 64-Bit Server VM
Default Encoding: UTF-8
Language: en
Country: US
--></g></svg>