<?xml version="1.0" encoding="UTF-8" standalone="no"?><svg xmlns="http://www.w3.org/2000/svg" xmlns:xlink="http://www.w3.org/1999/xlink" contentStyleType="text/css" height="567px" preserveAspectRatio="none" style="width:1630px;height:567px;background:#FFFFFF;" version="1.1" viewBox="0 0 1630 567" width="1630px" zoomAndPan="magnify"><defs/><g><line style="stroke:#181818;stroke-width:0.5;stroke-dasharray:5.0,5.0;" x1="60" x2="60" y1="36.2969" y2="532.0469"/><line style="stroke:#181818;stroke-width:0.5;stroke-dasharray:5.0,5.0;" x1="191.5" x2="191.5" y1="36.2969" y2="532.0469"/><line style="stroke:#181818;stroke-width:0.5;stroke-dasharray:5.0,5.0;" x1="308.5" x2="308.5" y1="36.2969" y2="532.0469"/><line style="stroke:#181818;stroke-width:0.5;stroke-dasharray:5.0,5.0;" x1="461.5" x2="461.5" y1="36.2969" y2="532.0469"/><line style="stroke:#181818;stroke-width:0.5;stroke-dasharray:5.0,5.0;" x1="618.5" x2="618.5" y1="36.2969" y2="532.0469"/><line style="stroke:#181818;stroke-width:0.5;stroke-dasharray:5.0,5.0;" x1="852.5" x2="852.5" y1="36.2969" y2="532.0469"/><line style="stroke:#181818;stroke-width:0.5;stroke-dasharray:5.0,5.0;" x1="1064" x2="1064" y1="408.8672" y2="532.0469"/><line style="stroke:#181818;stroke-width:0.5;stroke-dasharray:5.0,5.0;" x1="1254" x2="1254" y1="338.4375" y2="532.0469"/><line style="stroke:#181818;stroke-width:0.5;stroke-dasharray:5.0,5.0;" x1="1399" x2="1399" y1="36.2969" y2="532.0469"/><line style="stroke:#181818;stroke-width:0.5;stroke-dasharray:5.0,5.0;" x1="1589" x2="1589" y1="268.0078" y2="532.0469"/><rect fill="#E2E2F0" height="30.2969" rx="2.5" ry="2.5" style="stroke:#181818;stroke-width:0.5;" width="110" x="5" y="5"/><text fill="#000000" font-family="sans-serif" font-size="14" lengthAdjust="spacing" textLength="96" x="12" y="24.9951">User Interface</text><rect fill="#E2E2F0" height="30.2969" rx="2.5" ry="2.5" style="stroke:#181818;stroke-width:0.5;" width="110" x="5" y="531.0469"/><text fill="#000000" font-family="sans-serif" font-size="14" lengthAdjust="spacing" textLength="96" x="12" y="551.042">User Interface</text><rect fill="#E2E2F0" height="30.2969" rx="2.5" ry="2.5" style="stroke:#181818;stroke-width:0.5;" width="61" x="161.5" y="5"/><text fill="#000000" font-family="sans-serif" font-size="14" lengthAdjust="spacing" textLength="47" x="168.5" y="24.9951">Router</text><rect fill="#E2E2F0" height="30.2969" rx="2.5" ry="2.5" style="stroke:#181818;stroke-width:0.5;" width="61" x="161.5" y="531.0469"/><text fill="#000000" font-family="sans-serif" font-size="14" lengthAdjust="spacing" textLength="47" x="168.5" y="551.042">Router</text><rect fill="#E2E2F0" height="30.2969" rx="2.5" ry="2.5" style="stroke:#181818;stroke-width:0.5;" width="152" x="232.5" y="5"/><text fill="#000000" font-family="sans-serif" font-size="14" lengthAdjust="spacing" textLength="138" x="239.5" y="24.9951">PackagingController</text><rect fill="#E2E2F0" height="30.2969" rx="2.5" ry="2.5" style="stroke:#181818;stroke-width:0.5;" width="152" x="232.5" y="531.0469"/><text fill="#000000" font-family="sans-serif" font-size="14" lengthAdjust="spacing" textLength="138" x="239.5" y="551.042">PackagingController</text><rect fill="#E2E2F0" height="30.2969" rx="2.5" ry="2.5" style="stroke:#181818;stroke-width:0.5;" width="135" x="394.5" y="5"/><text fill="#000000" font-family="sans-serif" font-size="14" lengthAdjust="spacing" textLength="121" x="401.5" y="24.9951">PackagingService</text><rect fill="#E2E2F0" height="30.2969" rx="2.5" ry="2.5" style="stroke:#181818;stroke-width:0.5;" width="135" x="394.5" y="531.0469"/><text fill="#000000" font-family="sans-serif" font-size="14" lengthAdjust="spacing" textLength="121" x="401.5" y="551.042">PackagingService</text><rect fill="#E2E2F0" height="30.2969" rx="2.5" ry="2.5" style="stroke:#181818;stroke-width:0.5;" width="159" x="539.5" y="5"/><text fill="#000000" font-family="sans-serif" font-size="14" lengthAdjust="spacing" textLength="145" x="546.5" y="24.9951">PackagingRepository</text><rect fill="#E2E2F0" height="30.2969" rx="2.5" ry="2.5" style="stroke:#181818;stroke-width:0.5;" width="159" x="539.5" y="531.0469"/><text fill="#000000" font-family="sans-serif" font-size="14" lengthAdjust="spacing" textLength="145" x="546.5" y="551.042">PackagingRepository</text><rect fill="#E2E2F0" height="30.2969" rx="2.5" ry="2.5" style="stroke:#181818;stroke-width:0.5;" width="137" x="784.5" y="5"/><text fill="#000000" font-family="sans-serif" font-size="14" lengthAdjust="spacing" textLength="123" x="791.5" y="24.9951">PackagingMapper</text><rect fill="#E2E2F0" height="30.2969" rx="2.5" ry="2.5" style="stroke:#181818;stroke-width:0.5;" width="137" x="784.5" y="531.0469"/><text fill="#000000" font-family="sans-serif" font-size="14" lengthAdjust="spacing" textLength="123" x="791.5" y="551.042">PackagingMapper</text><rect fill="#E2E2F0" height="30.2969" rx="2.5" ry="2.5" style="stroke:#181818;stroke-width:0.5;" width="186" x="971" y="531.0469"/><text fill="#000000" font-family="sans-serif" font-size="14" lengthAdjust="spacing" textLength="172" x="978" y="551.042">List&lt;PackagingListDTO&gt;</text><rect fill="#E2E2F0" height="30.2969" rx="2.5" ry="2.5" style="stroke:#181818;stroke-width:0.5;" width="174" x="1167" y="531.0469"/><text fill="#000000" font-family="sans-serif" font-size="14" lengthAdjust="spacing" textLength="160" x="1174" y="551.042">List&lt;PackagingModel&gt;</text><rect fill="#E2E2F0" height="30.2969" rx="2.5" ry="2.5" style="stroke:#181818;stroke-width:0.5;" width="96" x="1351" y="5"/><text fill="#000000" font-family="sans-serif" font-size="14" lengthAdjust="spacing" textLength="82" x="1358" y="24.9951">Persistence</text><rect fill="#E2E2F0" height="30.2969" rx="2.5" ry="2.5" style="stroke:#181818;stroke-width:0.5;" width="96" x="1351" y="531.0469"/><text fill="#000000" font-family="sans-serif" font-size="14" lengthAdjust="spacing" textLength="82" x="1358" y="551.042">Persistence</text><rect fill="#E2E2F0" height="30.2969" rx="2.5" ry="2.5" style="stroke:#181818;stroke-width:0.5;" width="70" x="1554" y="531.0469"/><text fill="#000000" font-family="sans-serif" font-size="14" lengthAdjust="spacing" textLength="56" x="1561" y="551.042">Schema</text><polygon fill="#181818" points="180,63.4297,190,67.4297,180,71.4297,184,67.4297" style="stroke:#181818;stroke-width:1.0;"/><line style="stroke:#181818;stroke-width:1.0;" x1="60" x2="186" y1="67.4297" y2="67.4297"/><text fill="#000000" font-family="sans-serif" font-size="13" lengthAdjust="spacing" textLength="98" x="67" y="62.3638">GET /packaging</text><polygon fill="#181818" points="296.5,107.6953,306.5,111.6953,296.5,115.6953,300.5,111.6953" style="stroke:#181818;stroke-width:1.0;"/><line style="stroke:#181818;stroke-width:1.0;" x1="192" x2="302.5" y1="111.6953" y2="111.6953"/><text fill="#000000" font-family="sans-serif" font-size="13" lengthAdjust="spacing" textLength="36" x="199" y="91.4966">dto =</text><text fill="#000000" font-family="sans-serif" font-size="13" lengthAdjust="spacing" textLength="48" x="199" y="106.6294">findAll()</text><polygon fill="#181818" points="450,151.9609,460,155.9609,450,159.9609,454,155.9609" style="stroke:#181818;stroke-width:1.0;"/><line style="stroke:#181818;stroke-width:1.0;" x1="308.5" x2="456" y1="155.9609" y2="155.9609"/><text fill="#000000" font-family="sans-serif" font-size="13" lengthAdjust="spacing" textLength="36" x="315.5" y="135.7622">dto =</text><text fill="#000000" font-family="sans-serif" font-size="13" lengthAdjust="spacing" textLength="48" x="315.5" y="150.895">findAll()</text><polygon fill="#181818" points="607,196.2266,617,200.2266,607,204.2266,611,200.2266" style="stroke:#181818;stroke-width:1.0;"/><line style="stroke:#181818;stroke-width:1.0;" x1="462" x2="613" y1="200.2266" y2="200.2266"/><text fill="#000000" font-family="sans-serif" font-size="13" lengthAdjust="spacing" textLength="87" x="469" y="180.0278">packagings =</text><text fill="#000000" font-family="sans-serif" font-size="13" lengthAdjust="spacing" textLength="48" x="469" y="195.1606">findAll()</text><polygon fill="#181818" points="1387,225.3594,1397,229.3594,1387,233.3594,1391,229.3594" style="stroke:#181818;stroke-width:1.0;"/><line style="stroke:#181818;stroke-width:1.0;" x1="619" x2="1393" y1="229.3594" y2="229.3594"/><text fill="#000000" font-family="sans-serif" font-size="13" lengthAdjust="spacing" textLength="123" x="626" y="224.2935">schemas = query()</text><polygon fill="#181818" points="1542,254.4922,1552,258.4922,1542,262.4922,1546,258.4922" style="stroke:#181818;stroke-width:1.0;"/><line style="stroke:#181818;stroke-width:1.0;" x1="1399" x2="1548" y1="258.4922" y2="258.4922"/><text fill="#000000" font-family="sans-serif" font-size="13" lengthAdjust="spacing" textLength="131" x="1406" y="253.4263">schemas &lt;&lt;new&gt;&gt;</text><rect fill="#E2E2F0" height="30.2969" rx="2.5" ry="2.5" style="stroke:#181818;stroke-width:0.5;" width="70" x="1554" y="237.3594"/><text fill="#000000" font-family="sans-serif" font-size="14" lengthAdjust="spacing" textLength="56" x="1561" y="257.3545">Schema</text><polygon fill="#181818" points="841,295.7891,851,299.7891,841,303.7891,845,299.7891" style="stroke:#181818;stroke-width:1.0;"/><line style="stroke:#181818;stroke-width:1.0;" x1="619" x2="847" y1="299.7891" y2="299.7891"/><text fill="#000000" font-family="sans-serif" font-size="13" lengthAdjust="spacing" textLength="210" x="626" y="294.7231">packagings = toModel(schemas)</text><polygon fill="#181818" points="1155,324.9219,1165,328.9219,1155,332.9219,1159,328.9219" style="stroke:#181818;stroke-width:1.0;"/><line style="stroke:#181818;stroke-width:1.0;" x1="853" x2="1161" y1="328.9219" y2="328.9219"/><text fill="#000000" font-family="sans-serif" font-size="13" lengthAdjust="spacing" textLength="149" x="860" y="323.856">packagings: &lt;&lt;new&gt;&gt;</text><rect fill="#E2E2F0" height="30.2969" rx="2.5" ry="2.5" style="stroke:#181818;stroke-width:0.5;" width="174" x="1167" y="307.7891"/><text fill="#000000" font-family="sans-serif" font-size="14" lengthAdjust="spacing" textLength="160" x="1174" y="327.7842">List&lt;PackagingModel&gt;</text><polygon fill="#181818" points="841,366.2188,851,370.2188,841,374.2188,845,370.2188" style="stroke:#181818;stroke-width:1.0;"/><line style="stroke:#181818;stroke-width:1.0;" x1="462" x2="847" y1="370.2188" y2="370.2188"/><text fill="#000000" font-family="sans-serif" font-size="13" lengthAdjust="spacing" textLength="236" x="469" y="365.1528">dto = PackagingListDTO(packagings)</text><polygon fill="#181818" points="959,395.3516,969,399.3516,959,403.3516,963,399.3516" style="stroke:#181818;stroke-width:1.0;"/><line style="stroke:#181818;stroke-width:1.0;" x1="853" x2="965" y1="399.3516" y2="399.3516"/><text fill="#000000" font-family="sans-serif" font-size="13" lengthAdjust="spacing" textLength="94" x="860" y="394.2856">dto &lt;&lt;new&gt;&gt;</text><rect fill="#E2E2F0" height="30.2969" rx="2.5" ry="2.5" style="stroke:#181818;stroke-width:0.5;" width="186" x="971" y="378.2188"/><text fill="#000000" font-family="sans-serif" font-size="14" lengthAdjust="spacing" textLength="172" x="978" y="398.2139">List&lt;PackagingListDTO&gt;</text><polygon fill="#181818" points="319.5,436.6484,309.5,440.6484,319.5,444.6484,315.5,440.6484" style="stroke:#181818;stroke-width:1.0;"/><line style="stroke:#181818;stroke-width:1.0;stroke-dasharray:2.0,2.0;" x1="313.5" x2="461" y1="440.6484" y2="440.6484"/><text fill="#000000" font-family="sans-serif" font-size="13" lengthAdjust="spacing" textLength="21" x="325.5" y="435.5825">dto</text><polygon fill="#181818" points="203,465.7813,193,469.7813,203,473.7813,199,469.7813" style="stroke:#181818;stroke-width:1.0;"/><line style="stroke:#181818;stroke-width:1.0;stroke-dasharray:2.0,2.0;" x1="197" x2="307.5" y1="469.7813" y2="469.7813"/><text fill="#000000" font-family="sans-serif" font-size="13" lengthAdjust="spacing" textLength="21" x="209" y="464.7153">dto</text><polygon fill="#181818" points="71,510.0469,61,514.0469,71,518.0469,67,514.0469" style="stroke:#181818;stroke-width:1.0;"/><line style="stroke:#181818;stroke-width:1.0;stroke-dasharray:2.0,2.0;" x1="65" x2="191" y1="514.0469" y2="514.0469"/><text fill="#000000" font-family="sans-serif" font-size="13" lengthAdjust="spacing" textLength="82" x="77" y="493.8481">HTTP 200 OK</text><text fill="#000000" font-family="sans-serif" font-size="13" lengthAdjust="spacing" textLength="108" x="77" y="508.981">json(packagings)</text><!--MD5=[e6afd4de4b0c0eabcb646a1a74f0716c]
@startuml
participant "User Interface" as UI
participant "Router" as Router
participant "PackagingController" as Controller
participant "PackagingService" as Service

participant "PackagingRepository" as Repository
participant "PackagingMapper" as Mapper
participant "List<PackagingListDTO>" as PackagingListDTO
participant "List<PackagingModel>" as Model

participant "Persistence" as Persistence
participant "Schema" as Schema

UI -> Router: GET /packaging
Router -> Controller: dto =\nfindAll()

Controller -> Service: dto =\nfindAll()

Service -> Repository: packagings =\nfindAll()

Repository -> Persistence: schemas = query()

create Schema
Persistence -> Schema: schemas <<new>>

Repository -> Mapper: packagings = toModel(schemas)

create Model
Mapper -> Model: packagings: <<new>>

Service -> Mapper: dto = PackagingListDTO(packagings)
create PackagingListDTO
Mapper -> PackagingListDTO: dto <<new>>

Service - -> Controller: dto

Controller - -> Router: dto

Router - -> UI: HTTP 200 OK\njson(packagings)

@enduml

PlantUML version 1.2022.7(Mon Aug 22 18:01:30 WEST 2022)
(GPL source distribution)
Java Runtime: OpenJDK Runtime Environment
JVM: OpenJDK 64-Bit Server VM
Default Encoding: UTF-8
Language: en
Country: US
--></g></svg>