<?xml version="1.0" encoding="UTF-8" standalone="no"?><svg xmlns="http://www.w3.org/2000/svg" xmlns:xlink="http://www.w3.org/1999/xlink" contentStyleType="text/css" height="909px" preserveAspectRatio="none" style="width:1910px;height:909px;background:#FFFFFF;" version="1.1" viewBox="0 0 1910 909" width="1910px" zoomAndPan="magnify"><defs/><g><line style="stroke:#181818;stroke-width:0.5;stroke-dasharray:5.0,5.0;" x1="60" x2="60" y1="39.0679" y2="871.1659"/><line style="stroke:#181818;stroke-width:0.5;stroke-dasharray:5.0,5.0;" x1="225.5" x2="225.5" y1="39.0679" y2="871.1659"/><line style="stroke:#181818;stroke-width:0.5;stroke-dasharray:5.0,5.0;" x1="387.5" x2="387.5" y1="39.0679" y2="871.1659"/><line style="stroke:#181818;stroke-width:0.5;stroke-dasharray:5.0,5.0;" x1="545.5" x2="545.5" y1="39.0679" y2="871.1659"/><line style="stroke:#181818;stroke-width:0.5;stroke-dasharray:5.0,5.0;" x1="704.5" x2="704.5" y1="39.0679" y2="871.1659"/><line style="stroke:#181818;stroke-width:0.5;stroke-dasharray:5.0,5.0;" x1="890.5" x2="890.5" y1="39.0679" y2="871.1659"/><line style="stroke:#181818;stroke-width:0.5;stroke-dasharray:5.0,5.0;" x1="1166" x2="1166" y1="736.3079" y2="871.1659"/><line style="stroke:#181818;stroke-width:0.5;stroke-dasharray:5.0,5.0;" x1="1361" x2="1361" y1="533.7099" y2="871.1659"/><line style="stroke:#181818;stroke-width:0.5;stroke-dasharray:5.0,5.0;" x1="1509" x2="1509" y1="408.5239" y2="871.1659"/><line style="stroke:#181818;stroke-width:0.5;stroke-dasharray:5.0,5.0;" x1="1694" x2="1694" y1="238.632" y2="871.1659"/><line style="stroke:#181818;stroke-width:0.5;stroke-dasharray:5.0,5.0;" x1="1858" x2="1858" y1="39.0679" y2="871.1659"/><rect fill="#E2E2F0" height="33.0679" rx="2.5" ry="2.5" style="stroke:#181818;stroke-width:0.5;" width="110" x="5" y="5"/><text fill="#000000" font-family="sans-serif" font-size="14" lengthAdjust="spacing" textLength="96" x="12" y="26.9659">User Interface</text><rect fill="#E2E2F0" height="33.0679" rx="2.5" ry="2.5" style="stroke:#181818;stroke-width:0.5;" width="110" x="5" y="870.1659"/><text fill="#000000" font-family="sans-serif" font-size="14" lengthAdjust="spacing" textLength="96" x="12" y="892.1319">User Interface</text><rect fill="#E2E2F0" height="33.0679" rx="2.5" ry="2.5" style="stroke:#181818;stroke-width:0.5;" width="59" x="196.5" y="5"/><text fill="#000000" font-family="sans-serif" font-size="14" lengthAdjust="spacing" textLength="45" x="203.5" y="26.9659">Router</text><rect fill="#E2E2F0" height="33.0679" rx="2.5" ry="2.5" style="stroke:#181818;stroke-width:0.5;" width="59" x="196.5" y="870.1659"/><text fill="#000000" font-family="sans-serif" font-size="14" lengthAdjust="spacing" textLength="45" x="203.5" y="892.1319">Router</text><rect fill="#E2E2F0" height="33.0679" rx="2.5" ry="2.5" style="stroke:#181818;stroke-width:0.5;" width="157" x="309.5" y="5"/><text fill="#000000" font-family="sans-serif" font-size="14" lengthAdjust="spacing" textLength="143" x="316.5" y="26.9659">WarehouseController</text><rect fill="#E2E2F0" height="33.0679" rx="2.5" ry="2.5" style="stroke:#181818;stroke-width:0.5;" width="157" x="309.5" y="870.1659"/><text fill="#000000" font-family="sans-serif" font-size="14" lengthAdjust="spacing" textLength="143" x="316.5" y="892.1319">WarehouseController</text><rect fill="#E2E2F0" height="33.0679" rx="2.5" ry="2.5" style="stroke:#181818;stroke-width:0.5;" width="138" x="476.5" y="5"/><text fill="#000000" font-family="sans-serif" font-size="14" lengthAdjust="spacing" textLength="124" x="483.5" y="26.9659">WarehouseService</text><rect fill="#E2E2F0" height="33.0679" rx="2.5" ry="2.5" style="stroke:#181818;stroke-width:0.5;" width="138" x="476.5" y="870.1659"/><text fill="#000000" font-family="sans-serif" font-size="14" lengthAdjust="spacing" textLength="124" x="483.5" y="892.1319">WarehouseService</text><rect fill="#E2E2F0" height="33.0679" rx="2.5" ry="2.5" style="stroke:#181818;stroke-width:0.5;" width="161" x="624.5" y="5"/><text fill="#000000" font-family="sans-serif" font-size="14" lengthAdjust="spacing" textLength="147" x="631.5" y="26.9659">WarehouseRepository</text><rect fill="#E2E2F0" height="33.0679" rx="2.5" ry="2.5" style="stroke:#181818;stroke-width:0.5;" width="161" x="624.5" y="870.1659"/><text fill="#000000" font-family="sans-serif" font-size="14" lengthAdjust="spacing" textLength="147" x="631.5" y="892.1319">WarehouseRepository</text><rect fill="#E2E2F0" height="33.0679" rx="2.5" ry="2.5" style="stroke:#181818;stroke-width:0.5;" width="143" x="819.5" y="5"/><text fill="#000000" font-family="sans-serif" font-size="14" lengthAdjust="spacing" textLength="129" x="826.5" y="26.9659">WarehouseMapper</text><rect fill="#E2E2F0" height="33.0679" rx="2.5" ry="2.5" style="stroke:#181818;stroke-width:0.5;" width="143" x="819.5" y="870.1659"/><text fill="#000000" font-family="sans-serif" font-size="14" lengthAdjust="spacing" textLength="129" x="826.5" y="892.1319">WarehouseMapper</text><rect fill="#E2E2F0" height="33.0679" rx="2.5" ry="2.5" style="stroke:#181818;stroke-width:0.5;" width="228" x="1052" y="870.1659"/><text fill="#000000" font-family="sans-serif" font-size="14" lengthAdjust="spacing" textLength="214" x="1059" y="892.1319">WarehouseCreateResponseDTO</text><rect fill="#E2E2F0" height="33.0679" rx="2.5" ry="2.5" style="stroke:#181818;stroke-width:0.5;" width="143" x="1290" y="870.1659"/><text fill="#000000" font-family="sans-serif" font-size="14" lengthAdjust="spacing" textLength="129" x="1297" y="892.1319">WarehouseSchema</text><rect fill="#E2E2F0" height="33.0679" rx="2.5" ry="2.5" style="stroke:#181818;stroke-width:0.5;" width="132" x="1443" y="870.1659"/><text fill="#000000" font-family="sans-serif" font-size="14" lengthAdjust="spacing" textLength="118" x="1450" y="892.1319">WarehouseModel</text><rect fill="#E2E2F0" height="33.0679" rx="2.5" ry="2.5" style="stroke:#181818;stroke-width:0.5;" width="218" x="1585" y="870.1659"/><text fill="#000000" font-family="sans-serif" font-size="14" lengthAdjust="spacing" textLength="204" x="1592" y="892.1319">WarehouseCreateRequestDTO</text><rect fill="#E2E2F0" height="33.0679" rx="2.5" ry="2.5" style="stroke:#181818;stroke-width:0.5;" width="91" x="1813" y="5"/><text fill="#000000" font-family="sans-serif" font-size="14" lengthAdjust="spacing" textLength="77" x="1820" y="26.9659">Persistence</text><rect fill="#E2E2F0" height="33.0679" rx="2.5" ry="2.5" style="stroke:#181818;stroke-width:0.5;" width="91" x="1813" y="870.1659"/><text fill="#000000" font-family="sans-serif" font-size="14" lengthAdjust="spacing" textLength="77" x="1820" y="892.1319">Persistence</text><polygon fill="#181818" points="214,68.7739,224,72.7739,214,76.7739,218,72.7739" style="stroke:#181818;stroke-width:1.0;"/><line style="stroke:#181818;stroke-width:1.0;" x1="60" x2="220" y1="72.7739" y2="72.7739"/><text fill="#000000" font-family="sans-serif" font-size="13" lengthAdjust="spacing" textLength="142" x="67" y="66.9649">POST /warehouse (json)</text><polygon fill="#181818" points="376,118.186,386,122.186,376,126.186,380,122.186" style="stroke:#181818;stroke-width:1.0;"/><line style="stroke:#181818;stroke-width:1.0;" x1="226" x2="382" y1="122.186" y2="122.186"/><text fill="#000000" font-family="sans-serif" font-size="13" lengthAdjust="spacing" textLength="91" x="233" y="98.6709">responseDTO =</text><text fill="#000000" font-family="sans-serif" font-size="13" lengthAdjust="spacing" textLength="138" x="233" y="116.377">createWarehouse(json)</text><line style="stroke:#181818;stroke-width:1.0;" x1="388" x2="430" y1="153.892" y2="153.892"/><line style="stroke:#181818;stroke-width:1.0;" x1="430" x2="430" y1="153.892" y2="166.892"/><line style="stroke:#181818;stroke-width:1.0;" x1="389" x2="430" y1="166.892" y2="166.892"/><polygon fill="#181818" points="399,162.892,389,166.892,399,170.892,395,166.892" style="stroke:#181818;stroke-width:1.0;"/><text fill="#000000" font-family="sans-serif" font-size="13" lengthAdjust="spacing" textLength="80" x="395" y="148.083">validate(json)</text><polygon fill="#181818" points="879,194.598,889,198.598,879,202.598,883,198.598" style="stroke:#181818;stroke-width:1.0;"/><line style="stroke:#181818;stroke-width:1.0;" x1="388" x2="885" y1="198.598" y2="198.598"/><text fill="#000000" font-family="sans-serif" font-size="13" lengthAdjust="spacing" textLength="195" x="395" y="192.789">requestDTO = createCreateDTO()</text><polygon fill="#181818" points="1573,226.304,1583,230.304,1573,234.304,1577,230.304" style="stroke:#181818;stroke-width:1.0;"/><line style="stroke:#181818;stroke-width:1.0;" x1="891" x2="1579" y1="230.304" y2="230.304"/><text fill="#000000" font-family="sans-serif" font-size="13" lengthAdjust="spacing" textLength="131" x="898" y="224.495">requestDTO: &lt;&lt;new&gt;&gt;</text><rect fill="#E2E2F0" height="33.0679" rx="2.5" ry="2.5" style="stroke:#181818;stroke-width:0.5;" width="218" x="1585" y="206.598"/><text fill="#000000" font-family="sans-serif" font-size="14" lengthAdjust="spacing" textLength="204" x="1592" y="228.5639">WarehouseCreateRequestDTO</text><polygon fill="#181818" points="533.5,288.0779,543.5,292.0779,533.5,296.0779,537.5,292.0779" style="stroke:#181818;stroke-width:1.0;"/><line style="stroke:#181818;stroke-width:1.0;" x1="388" x2="539.5" y1="292.0779" y2="292.0779"/><text fill="#000000" font-family="sans-serif" font-size="13" lengthAdjust="spacing" textLength="91" x="395" y="268.5629">responseDTO =</text><text fill="#000000" font-family="sans-serif" font-size="13" lengthAdjust="spacing" textLength="117" x="395" y="286.2689">create(requestDTO)</text><line style="stroke:#181818;stroke-width:1.0;" x1="545.5" x2="587.5" y1="323.784" y2="323.784"/><line style="stroke:#181818;stroke-width:1.0;" x1="587.5" x2="587.5" y1="323.784" y2="336.784"/><line style="stroke:#181818;stroke-width:1.0;" x1="546.5" x2="587.5" y1="336.784" y2="336.784"/><polygon fill="#181818" points="556.5,332.784,546.5,336.784,556.5,340.784,552.5,336.784" style="stroke:#181818;stroke-width:1.0;"/><text fill="#000000" font-family="sans-serif" font-size="13" lengthAdjust="spacing" textLength="127" x="552.5" y="317.975">validate(requestDTO)</text><polygon fill="#181818" points="879,364.49,889,368.49,879,372.49,883,368.49" style="stroke:#181818;stroke-width:1.0;"/><line style="stroke:#181818;stroke-width:1.0;" x1="545.5" x2="885" y1="368.49" y2="368.49"/><text fill="#000000" font-family="sans-serif" font-size="13" lengthAdjust="spacing" textLength="210" x="552.5" y="362.681">warehouse = toModel(requestDTO)</text><polygon fill="#181818" points="1431,396.196,1441,400.196,1431,404.196,1435,400.196" style="stroke:#181818;stroke-width:1.0;"/><line style="stroke:#181818;stroke-width:1.0;" x1="891" x2="1437" y1="400.196" y2="400.196"/><text fill="#000000" font-family="sans-serif" font-size="13" lengthAdjust="spacing" textLength="125" x="898" y="394.387">warehouse: &lt;&lt;new&gt;&gt;</text><rect fill="#E2E2F0" height="33.0679" rx="2.5" ry="2.5" style="stroke:#181818;stroke-width:0.5;" width="132" x="1443" y="376.49"/><text fill="#000000" font-family="sans-serif" font-size="14" lengthAdjust="spacing" textLength="118" x="1450" y="398.4559">WarehouseModel</text><polygon fill="#181818" points="693,457.9699,703,461.9699,693,465.9699,697,461.9699" style="stroke:#181818;stroke-width:1.0;"/><line style="stroke:#181818;stroke-width:1.0;" x1="545.5" x2="699" y1="461.9699" y2="461.9699"/><text fill="#000000" font-family="sans-serif" font-size="13" lengthAdjust="spacing" textLength="45" x="552.5" y="438.4549">entity =</text><text fill="#000000" font-family="sans-serif" font-size="13" lengthAdjust="spacing" textLength="101" x="552.5" y="456.1609">save(warehouse)</text><polygon fill="#181818" points="879,489.6759,889,493.6759,879,497.6759,883,493.6759" style="stroke:#181818;stroke-width:1.0;"/><line style="stroke:#181818;stroke-width:1.0;" x1="705" x2="885" y1="493.6759" y2="493.6759"/><text fill="#000000" font-family="sans-serif" font-size="13" lengthAdjust="spacing" textLength="162" x="712" y="487.8669">schema = toSchema(entity)</text><polygon fill="#181818" points="1278,521.382,1288,525.382,1278,529.382,1282,525.382" style="stroke:#181818;stroke-width:1.0;"/><line style="stroke:#181818;stroke-width:1.0;" x1="891" x2="1284" y1="525.382" y2="525.382"/><text fill="#000000" font-family="sans-serif" font-size="13" lengthAdjust="spacing" textLength="105" x="898" y="519.573">schema: &lt;&lt;new&gt;&gt;</text><rect fill="#E2E2F0" height="33.0679" rx="2.5" ry="2.5" style="stroke:#181818;stroke-width:0.5;" width="143" x="1290" y="501.6759"/><text fill="#000000" font-family="sans-serif" font-size="14" lengthAdjust="spacing" textLength="129" x="1297" y="523.6419">WarehouseSchema</text><polygon fill="#181818" points="1846.5,565.4499,1856.5,569.4499,1846.5,573.4499,1850.5,569.4499" style="stroke:#181818;stroke-width:1.0;"/><line style="stroke:#181818;stroke-width:1.0;" x1="705" x2="1852.5" y1="569.4499" y2="569.4499"/><text fill="#000000" font-family="sans-serif" font-size="13" lengthAdjust="spacing" textLength="94" x="712" y="563.6409">persist(schema)</text><polygon fill="#181818" points="879,597.1559,889,601.1559,879,605.1559,883,601.1559" style="stroke:#181818;stroke-width:1.0;"/><line style="stroke:#181818;stroke-width:1.0;" x1="705" x2="885" y1="601.1559" y2="601.1559"/><text fill="#000000" font-family="sans-serif" font-size="13" lengthAdjust="spacing" textLength="153" x="712" y="595.3469">entity = toModel(schema)</text><polygon fill="#181818" points="1497,628.8619,1507,632.8619,1497,636.8619,1501,632.8619" style="stroke:#181818;stroke-width:1.0;"/><line style="stroke:#181818;stroke-width:1.0;" x1="891" x2="1503" y1="632.8619" y2="632.8619"/><text fill="#000000" font-family="sans-serif" font-size="13" lengthAdjust="spacing" textLength="94" x="898" y="627.0529">entity: &lt;&lt;new&gt;&gt;</text><polygon fill="#181818" points="556.5,660.5679,546.5,664.5679,556.5,668.5679,552.5,664.5679" style="stroke:#181818;stroke-width:1.0;"/><line style="stroke:#181818;stroke-width:1.0;stroke-dasharray:2.0,2.0;" x1="550.5" x2="704" y1="664.5679" y2="664.5679"/><text fill="#000000" font-family="sans-serif" font-size="13" lengthAdjust="spacing" textLength="35" x="562.5" y="658.7589">entity</text><polygon fill="#181818" points="879,692.2739,889,696.2739,879,700.2739,883,696.2739" style="stroke:#181818;stroke-width:1.0;"/><line style="stroke:#181818;stroke-width:1.0;" x1="545.5" x2="885" y1="696.2739" y2="696.2739"/><text fill="#000000" font-family="sans-serif" font-size="13" lengthAdjust="spacing" textLength="258" x="552.5" y="690.4649">responseDTO = createResponseDTO(entity)</text><polygon fill="#181818" points="1040,723.98,1050,727.98,1040,731.98,1044,727.98" style="stroke:#181818;stroke-width:1.0;"/><line style="stroke:#181818;stroke-width:1.0;" x1="891" x2="1046" y1="727.98" y2="727.98"/><text fill="#000000" font-family="sans-serif" font-size="13" lengthAdjust="spacing" textLength="137" x="898" y="722.171">responseDTO &lt;&lt;new&gt;&gt;</text><rect fill="#E2E2F0" height="33.0679" rx="2.5" ry="2.5" style="stroke:#181818;stroke-width:0.5;" width="228" x="1052" y="704.2739"/><text fill="#000000" font-family="sans-serif" font-size="14" lengthAdjust="spacing" textLength="214" x="1059" y="726.2399">WarehouseCreateResponseDTO</text><polygon fill="#181818" points="399,768.0479,389,772.0479,399,776.0479,395,772.0479" style="stroke:#181818;stroke-width:1.0;"/><line style="stroke:#181818;stroke-width:1.0;stroke-dasharray:2.0,2.0;" x1="393" x2="544.5" y1="772.0479" y2="772.0479"/><text fill="#000000" font-family="sans-serif" font-size="13" lengthAdjust="spacing" textLength="81" x="405" y="766.2389">responseDTO</text><polygon fill="#181818" points="237,799.7539,227,803.7539,237,807.7539,233,803.7539" style="stroke:#181818;stroke-width:1.0;"/><line style="stroke:#181818;stroke-width:1.0;stroke-dasharray:2.0,2.0;" x1="231" x2="387" y1="803.7539" y2="803.7539"/><text fill="#000000" font-family="sans-serif" font-size="13" lengthAdjust="spacing" textLength="81" x="243" y="797.9449">responseDTO</text><polygon fill="#181818" points="71,849.1659,61,853.1659,71,857.1659,67,853.1659" style="stroke:#181818;stroke-width:1.0;"/><line style="stroke:#181818;stroke-width:1.0;stroke-dasharray:2.0,2.0;" x1="65" x2="225" y1="853.1659" y2="853.1659"/><text fill="#000000" font-family="sans-serif" font-size="13" lengthAdjust="spacing" textLength="77" x="77" y="829.6509">HTTP 200 OK</text><text fill="#000000" font-family="sans-serif" font-size="13" lengthAdjust="spacing" textLength="114" x="77" y="847.3569">json(responseDTO)</text><!--MD5=[718bc51842de77be211a94ffe4d92ef7]
@startuml
participant "User Interface" as UI
participant "Router" as Router
participant "WarehouseController" as Controller
participant "WarehouseService" as Service

participant "WarehouseRepository" as Repository
participant "WarehouseMapper" as Mapper
participant "WarehouseCreateResponseDTO" as CreateResponseDTO
participant "WarehouseSchema" as Schema
participant "WarehouseModel" as Model
participant "WarehouseCreateRequestDTO" as CreateRequestDTO
participant "Persistence" as Persistence


UI -> Router: POST /warehouse (json)
Router -> Controller: responseDTO =\ncreateWarehouse(json)
Controller -> Controller: validate(json)
Controller -> Mapper: requestDTO = createCreateDTO()

create CreateRequestDTO
Mapper -> CreateRequestDTO: requestDTO: <<new>>

Controller -> Service: responseDTO =\ncreate(requestDTO)

Service -> Service: validate(requestDTO)
Service -> Mapper: warehouse = toModel(requestDTO)

create Model
Mapper -> Model: warehouse: <<new>>

Service -> Repository: entity =\nsave(warehouse)

Repository -> Mapper: schema = toSchema(entity)

create Schema
Mapper -> Schema: schema: <<new>>

Repository -> Persistence: persist(schema)

Repository -> Mapper: entity = toModel(schema)
Mapper -> Model: entity: <<new>>
Repository - -> Service: entity


Service -> Mapper: responseDTO = createResponseDTO(entity)
create CreateResponseDTO
Mapper -> CreateResponseDTO: responseDTO <<new>>

Service - -> Controller: responseDTO

Controller - -> Router: responseDTO

Router - -> UI: HTTP 200 OK\njson(responseDTO)

@enduml

PlantUML version 1.2022.6(Tue Jun 21 18:34:49 WEST 2022)
(GPL source distribution)
Java Runtime: OpenJDK Runtime Environment
JVM: OpenJDK 64-Bit Server VM
Default Encoding: UTF-8
Language: en
Country: US
--></g></svg>