<?xml version="1.0" encoding="UTF-8" standalone="no"?><svg xmlns="http://www.w3.org/2000/svg" xmlns:xlink="http://www.w3.org/1999/xlink" contentStyleType="text/css" height="909px" preserveAspectRatio="none" style="width:1974px;height:909px;background:#FFFFFF;" version="1.1" viewBox="0 0 1974 909" width="1974px" zoomAndPan="magnify"><defs/><g><line style="stroke:#181818;stroke-width:0.5;stroke-dasharray:5.0,5.0;" x1="60" x2="60" y1="36.2969" y2="874.5391"/><line style="stroke:#181818;stroke-width:0.5;stroke-dasharray:5.0,5.0;" x1="230.5" x2="230.5" y1="36.2969" y2="874.5391"/><line style="stroke:#181818;stroke-width:0.5;stroke-dasharray:5.0,5.0;" x1="401" x2="401" y1="36.2969" y2="874.5391"/><line style="stroke:#181818;stroke-width:0.5;stroke-dasharray:5.0,5.0;" x1="555.5" x2="555.5" y1="36.2969" y2="874.5391"/><line style="stroke:#181818;stroke-width:0.5;stroke-dasharray:5.0,5.0;" x1="712.5" x2="712.5" y1="36.2969" y2="874.5391"/><line style="stroke:#181818;stroke-width:0.5;stroke-dasharray:5.0,5.0;" x1="918.5" x2="918.5" y1="36.2969" y2="874.5391"/><line style="stroke:#181818;stroke-width:0.5;stroke-dasharray:5.0,5.0;" x1="1220" x2="1220" y1="751.3594" y2="874.5391"/><line style="stroke:#181818;stroke-width:0.5;stroke-dasharray:5.0,5.0;" x1="1419" x2="1419" y1="493.1328" y2="874.5391"/><line style="stroke:#181818;stroke-width:0.5;stroke-dasharray:5.0,5.0;" x1="1563" x2="1563" y1="378.4375" y2="874.5391"/><line style="stroke:#181818;stroke-width:0.5;stroke-dasharray:5.0,5.0;" x1="1749" x2="1749" y1="221.6094" y2="874.5391"/><line style="stroke:#181818;stroke-width:0.5;stroke-dasharray:5.0,5.0;" x1="1920" x2="1920" y1="36.2969" y2="874.5391"/><rect fill="#E2E2F0" height="30.2969" rx="2.5" ry="2.5" style="stroke:#181818;stroke-width:0.5;" width="110" x="5" y="5"/><text fill="#000000" font-family="sans-serif" font-size="14" lengthAdjust="spacing" textLength="96" x="12" y="24.9951">User Interface</text><rect fill="#E2E2F0" height="30.2969" rx="2.5" ry="2.5" style="stroke:#181818;stroke-width:0.5;" width="110" x="5" y="873.5391"/><text fill="#000000" font-family="sans-serif" font-size="14" lengthAdjust="spacing" textLength="96" x="12" y="893.5342">User Interface</text><rect fill="#E2E2F0" height="30.2969" rx="2.5" ry="2.5" style="stroke:#181818;stroke-width:0.5;" width="61" x="200.5" y="5"/><text fill="#000000" font-family="sans-serif" font-size="14" lengthAdjust="spacing" textLength="47" x="207.5" y="24.9951">Router</text><rect fill="#E2E2F0" height="30.2969" rx="2.5" ry="2.5" style="stroke:#181818;stroke-width:0.5;" width="61" x="200.5" y="873.5391"/><text fill="#000000" font-family="sans-serif" font-size="14" lengthAdjust="spacing" textLength="47" x="207.5" y="893.5342">Router</text><rect fill="#E2E2F0" height="30.2969" rx="2.5" ry="2.5" style="stroke:#181818;stroke-width:0.5;" width="152" x="325" y="5"/><text fill="#000000" font-family="sans-serif" font-size="14" lengthAdjust="spacing" textLength="138" x="332" y="24.9951">PackagingController</text><rect fill="#E2E2F0" height="30.2969" rx="2.5" ry="2.5" style="stroke:#181818;stroke-width:0.5;" width="152" x="325" y="873.5391"/><text fill="#000000" font-family="sans-serif" font-size="14" lengthAdjust="spacing" textLength="138" x="332" y="893.5342">PackagingController</text><rect fill="#E2E2F0" height="30.2969" rx="2.5" ry="2.5" style="stroke:#181818;stroke-width:0.5;" width="135" x="488.5" y="5"/><text fill="#000000" font-family="sans-serif" font-size="14" lengthAdjust="spacing" textLength="121" x="495.5" y="24.9951">PackagingService</text><rect fill="#E2E2F0" height="30.2969" rx="2.5" ry="2.5" style="stroke:#181818;stroke-width:0.5;" width="135" x="488.5" y="873.5391"/><text fill="#000000" font-family="sans-serif" font-size="14" lengthAdjust="spacing" textLength="121" x="495.5" y="893.5342">PackagingService</text><rect fill="#E2E2F0" height="30.2969" rx="2.5" ry="2.5" style="stroke:#181818;stroke-width:0.5;" width="159" x="633.5" y="5"/><text fill="#000000" font-family="sans-serif" font-size="14" lengthAdjust="spacing" textLength="145" x="640.5" y="24.9951">PackagingRepository</text><rect fill="#E2E2F0" height="30.2969" rx="2.5" ry="2.5" style="stroke:#181818;stroke-width:0.5;" width="159" x="633.5" y="873.5391"/><text fill="#000000" font-family="sans-serif" font-size="14" lengthAdjust="spacing" textLength="145" x="640.5" y="893.5342">PackagingRepository</text><rect fill="#E2E2F0" height="30.2969" rx="2.5" ry="2.5" style="stroke:#181818;stroke-width:0.5;" width="137" x="850.5" y="5"/><text fill="#000000" font-family="sans-serif" font-size="14" lengthAdjust="spacing" textLength="123" x="857.5" y="24.9951">PackagingMapper</text><rect fill="#E2E2F0" height="30.2969" rx="2.5" ry="2.5" style="stroke:#181818;stroke-width:0.5;" width="137" x="850.5" y="873.5391"/><text fill="#000000" font-family="sans-serif" font-size="14" lengthAdjust="spacing" textLength="123" x="857.5" y="893.5342">PackagingMapper</text><rect fill="#E2E2F0" height="30.2969" rx="2.5" ry="2.5" style="stroke:#181818;stroke-width:0.5;" width="237" x="1102" y="873.5391"/><text fill="#000000" font-family="sans-serif" font-size="14" lengthAdjust="spacing" textLength="223" x="1109" y="893.5342">PackagingUpdateResponseDTO</text><rect fill="#E2E2F0" height="30.2969" rx="2.5" ry="2.5" style="stroke:#181818;stroke-width:0.5;" width="141" x="1349" y="873.5391"/><text fill="#000000" font-family="sans-serif" font-size="14" lengthAdjust="spacing" textLength="127" x="1356" y="893.5342">PackagingSchema</text><rect fill="#E2E2F0" height="30.2969" rx="2.5" ry="2.5" style="stroke:#181818;stroke-width:0.5;" width="127" x="1500" y="873.5391"/><text fill="#000000" font-family="sans-serif" font-size="14" lengthAdjust="spacing" textLength="113" x="1507" y="893.5342">PackagingModel</text><rect fill="#E2E2F0" height="30.2969" rx="2.5" ry="2.5" style="stroke:#181818;stroke-width:0.5;" width="225" x="1637" y="873.5391"/><text fill="#000000" font-family="sans-serif" font-size="14" lengthAdjust="spacing" textLength="211" x="1644" y="893.5342">PackagingUpdateRequestDTO</text><rect fill="#E2E2F0" height="30.2969" rx="2.5" ry="2.5" style="stroke:#181818;stroke-width:0.5;" width="96" x="1872" y="5"/><text fill="#000000" font-family="sans-serif" font-size="14" lengthAdjust="spacing" textLength="82" x="1879" y="24.9951">Persistence</text><rect fill="#E2E2F0" height="30.2969" rx="2.5" ry="2.5" style="stroke:#181818;stroke-width:0.5;" width="96" x="1872" y="873.5391"/><text fill="#000000" font-family="sans-serif" font-size="14" lengthAdjust="spacing" textLength="82" x="1879" y="893.5342">Persistence</text><polygon fill="#181818" points="219,63.4297,229,67.4297,219,71.4297,223,67.4297" style="stroke:#181818;stroke-width:1.0;"/><line style="stroke:#181818;stroke-width:1.0;" x1="60" x2="225" y1="67.4297" y2="67.4297"/><text fill="#000000" font-family="sans-serif" font-size="13" lengthAdjust="spacing" textLength="147" x="67" y="62.3638">POST /packaging (json)</text><polygon fill="#181818" points="389,107.6953,399,111.6953,389,115.6953,393,111.6953" style="stroke:#181818;stroke-width:1.0;"/><line style="stroke:#181818;stroke-width:1.0;" x1="231" x2="395" y1="111.6953" y2="111.6953"/><text fill="#000000" font-family="sans-serif" font-size="13" lengthAdjust="spacing" textLength="101" x="238" y="91.4966">responseDTO =</text><text fill="#000000" font-family="sans-serif" font-size="13" lengthAdjust="spacing" textLength="146" x="238" y="106.6294">updatePackaging(json)</text><line style="stroke:#181818;stroke-width:1.0;" x1="401" x2="443" y1="140.8281" y2="140.8281"/><line style="stroke:#181818;stroke-width:1.0;" x1="443" x2="443" y1="140.8281" y2="153.8281"/><line style="stroke:#181818;stroke-width:1.0;" x1="402" x2="443" y1="153.8281" y2="153.8281"/><polygon fill="#181818" points="412,149.8281,402,153.8281,412,157.8281,408,153.8281" style="stroke:#181818;stroke-width:1.0;"/><text fill="#000000" font-family="sans-serif" font-size="13" lengthAdjust="spacing" textLength="86" x="408" y="135.7622">validate(json)</text><polygon fill="#181818" points="907,178.9609,917,182.9609,907,186.9609,911,182.9609" style="stroke:#181818;stroke-width:1.0;"/><line style="stroke:#181818;stroke-width:1.0;" x1="401" x2="913" y1="182.9609" y2="182.9609"/><text fill="#000000" font-family="sans-serif" font-size="13" lengthAdjust="spacing" textLength="220" x="408" y="177.895">requestDTO = createUpdateDTO()</text><polygon fill="#181818" points="1625,208.0938,1635,212.0938,1625,216.0938,1629,212.0938" style="stroke:#181818;stroke-width:1.0;"/><line style="stroke:#181818;stroke-width:1.0;" x1="919" x2="1631" y1="212.0938" y2="212.0938"/><text fill="#000000" font-family="sans-serif" font-size="13" lengthAdjust="spacing" textLength="153" x="926" y="207.0278">requestDTO: &lt;&lt;new&gt;&gt;</text><rect fill="#E2E2F0" height="30.2969" rx="2.5" ry="2.5" style="stroke:#181818;stroke-width:0.5;" width="225" x="1637" y="190.9609"/><text fill="#000000" font-family="sans-serif" font-size="14" lengthAdjust="spacing" textLength="211" x="1644" y="210.9561">PackagingUpdateRequestDTO</text><polygon fill="#181818" points="544,264.5234,554,268.5234,544,272.5234,548,268.5234" style="stroke:#181818;stroke-width:1.0;"/><line style="stroke:#181818;stroke-width:1.0;" x1="401" x2="550" y1="268.5234" y2="268.5234"/><text fill="#000000" font-family="sans-serif" font-size="13" lengthAdjust="spacing" textLength="101" x="408" y="248.3247">responseDTO =</text><text fill="#000000" font-family="sans-serif" font-size="13" lengthAdjust="spacing" textLength="131" x="408" y="263.4575">update(requestDTO)</text><line style="stroke:#181818;stroke-width:1.0;" x1="556" x2="598" y1="297.6563" y2="297.6563"/><line style="stroke:#181818;stroke-width:1.0;" x1="598" x2="598" y1="297.6563" y2="310.6563"/><line style="stroke:#181818;stroke-width:1.0;" x1="557" x2="598" y1="310.6563" y2="310.6563"/><polygon fill="#181818" points="567,306.6563,557,310.6563,567,314.6563,563,310.6563" style="stroke:#181818;stroke-width:1.0;"/><text fill="#000000" font-family="sans-serif" font-size="13" lengthAdjust="spacing" textLength="136" x="563" y="292.5903">validate(requestDTO)</text><polygon fill="#181818" points="907,335.7891,917,339.7891,907,343.7891,911,339.7891" style="stroke:#181818;stroke-width:1.0;"/><line style="stroke:#181818;stroke-width:1.0;" x1="556" x2="913" y1="339.7891" y2="339.7891"/><text fill="#000000" font-family="sans-serif" font-size="13" lengthAdjust="spacing" textLength="221" x="563" y="334.7231">Packaging = toModel(requestDTO)</text><polygon fill="#181818" points="1488,364.9219,1498,368.9219,1488,372.9219,1492,368.9219" style="stroke:#181818;stroke-width:1.0;"/><line style="stroke:#181818;stroke-width:1.0;" x1="919" x2="1494" y1="368.9219" y2="368.9219"/><text fill="#000000" font-family="sans-serif" font-size="13" lengthAdjust="spacing" textLength="142" x="926" y="363.856">Packaging: &lt;&lt;new&gt;&gt;</text><rect fill="#E2E2F0" height="30.2969" rx="2.5" ry="2.5" style="stroke:#181818;stroke-width:0.5;" width="127" x="1500" y="347.7891"/><text fill="#000000" font-family="sans-serif" font-size="14" lengthAdjust="spacing" textLength="113" x="1507" y="367.7842">PackagingModel</text><polygon fill="#181818" points="701,421.3516,711,425.3516,701,429.3516,705,425.3516" style="stroke:#181818;stroke-width:1.0;"/><line style="stroke:#181818;stroke-width:1.0;" x1="556" x2="707" y1="425.3516" y2="425.3516"/><text fill="#000000" font-family="sans-serif" font-size="13" lengthAdjust="spacing" textLength="51" x="563" y="405.1528">entity =</text><text fill="#000000" font-family="sans-serif" font-size="13" lengthAdjust="spacing" textLength="120" x="563" y="420.2856">update(packaging)</text><polygon fill="#181818" points="907,450.4844,917,454.4844,907,458.4844,911,454.4844" style="stroke:#181818;stroke-width:1.0;"/><line style="stroke:#181818;stroke-width:1.0;" x1="713" x2="913" y1="454.4844" y2="454.4844"/><text fill="#000000" font-family="sans-serif" font-size="13" lengthAdjust="spacing" textLength="182" x="720" y="449.4185">schema = toSchema(entity)</text><polygon fill="#181818" points="1337,479.6172,1347,483.6172,1337,487.6172,1341,483.6172" style="stroke:#181818;stroke-width:1.0;"/><line style="stroke:#181818;stroke-width:1.0;" x1="919" x2="1343" y1="483.6172" y2="483.6172"/><text fill="#000000" font-family="sans-serif" font-size="13" lengthAdjust="spacing" textLength="128" x="926" y="478.5513">schema: &lt;&lt;new&gt;&gt;</text><rect fill="#E2E2F0" height="30.2969" rx="2.5" ry="2.5" style="stroke:#181818;stroke-width:0.5;" width="141" x="1349" y="462.4844"/><text fill="#000000" font-family="sans-serif" font-size="14" lengthAdjust="spacing" textLength="127" x="1356" y="482.4795">PackagingSchema</text><polygon fill="#181818" points="1908,520.9141,1918,524.9141,1908,528.9141,1912,524.9141" style="stroke:#181818;stroke-width:1.0;"/><line style="stroke:#181818;stroke-width:1.0;" x1="713" x2="1914" y1="524.9141" y2="524.9141"/><text fill="#000000" font-family="sans-serif" font-size="13" lengthAdjust="spacing" textLength="165" x="720" y="519.8481">entity = findOne(schema)</text><line style="stroke:#181818;stroke-width:1.0;" x1="713" x2="755" y1="554.0469" y2="554.0469"/><line style="stroke:#181818;stroke-width:1.0;" x1="755" x2="755" y1="554.0469" y2="567.0469"/><line style="stroke:#181818;stroke-width:1.0;" x1="714" x2="755" y1="567.0469" y2="567.0469"/><polygon fill="#181818" points="724,563.0469,714,567.0469,724,571.0469,720,567.0469" style="stroke:#181818;stroke-width:1.0;"/><text fill="#000000" font-family="sans-serif" font-size="13" lengthAdjust="spacing" textLength="153" x="720" y="548.981">verifyEntityExists(entity)</text><polygon fill="#181818" points="1908,592.1797,1918,596.1797,1908,600.1797,1912,596.1797" style="stroke:#181818;stroke-width:1.0;"/><line style="stroke:#181818;stroke-width:1.0;" x1="713" x2="1914" y1="596.1797" y2="596.1797"/><text fill="#000000" font-family="sans-serif" font-size="13" lengthAdjust="spacing" textLength="104" x="720" y="591.1138">persist(schema)</text><polygon fill="#181818" points="907,621.3125,917,625.3125,907,629.3125,911,625.3125" style="stroke:#181818;stroke-width:1.0;"/><line style="stroke:#181818;stroke-width:1.0;" x1="713" x2="913" y1="625.3125" y2="625.3125"/><text fill="#000000" font-family="sans-serif" font-size="13" lengthAdjust="spacing" textLength="167" x="720" y="620.2466">entity = toModel(schema)</text><polygon fill="#181818" points="1551.5,650.4453,1561.5,654.4453,1551.5,658.4453,1555.5,654.4453" style="stroke:#181818;stroke-width:1.0;"/><line style="stroke:#181818;stroke-width:1.0;" x1="919" x2="1557.5" y1="654.4453" y2="654.4453"/><text fill="#000000" font-family="sans-serif" font-size="13" lengthAdjust="spacing" textLength="113" x="926" y="649.3794">entity: &lt;&lt;new&gt;&gt;</text><polygon fill="#181818" points="567,679.5781,557,683.5781,567,687.5781,563,683.5781" style="stroke:#181818;stroke-width:1.0;"/><line style="stroke:#181818;stroke-width:1.0;stroke-dasharray:2.0,2.0;" x1="561" x2="712" y1="683.5781" y2="683.5781"/><text fill="#000000" font-family="sans-serif" font-size="13" lengthAdjust="spacing" textLength="36" x="573" y="678.5122">entity</text><polygon fill="#181818" points="907,708.7109,917,712.7109,907,716.7109,911,712.7109" style="stroke:#181818;stroke-width:1.0;"/><line style="stroke:#181818;stroke-width:1.0;" x1="556" x2="913" y1="712.7109" y2="712.7109"/><text fill="#000000" font-family="sans-serif" font-size="13" lengthAdjust="spacing" textLength="285" x="563" y="707.645">responseDTO = updateResponseDTO(entity)</text><polygon fill="#181818" points="1090,737.8438,1100,741.8438,1090,745.8438,1094,741.8438" style="stroke:#181818;stroke-width:1.0;"/><line style="stroke:#181818;stroke-width:1.0;" x1="919" x2="1096" y1="741.8438" y2="741.8438"/><text fill="#000000" font-family="sans-serif" font-size="13" lengthAdjust="spacing" textLength="159" x="926" y="736.7778">responseDTO &lt;&lt;new&gt;&gt;</text><rect fill="#E2E2F0" height="30.2969" rx="2.5" ry="2.5" style="stroke:#181818;stroke-width:0.5;" width="237" x="1102" y="720.7109"/><text fill="#000000" font-family="sans-serif" font-size="14" lengthAdjust="spacing" textLength="223" x="1109" y="740.7061">PackagingUpdateResponseDTO</text><polygon fill="#181818" points="412,779.1406,402,783.1406,412,787.1406,408,783.1406" style="stroke:#181818;stroke-width:1.0;"/><line style="stroke:#181818;stroke-width:1.0;stroke-dasharray:2.0,2.0;" x1="406" x2="555" y1="783.1406" y2="783.1406"/><text fill="#000000" font-family="sans-serif" font-size="13" lengthAdjust="spacing" textLength="86" x="418" y="778.0747">responseDTO</text><polygon fill="#181818" points="242,808.2734,232,812.2734,242,816.2734,238,812.2734" style="stroke:#181818;stroke-width:1.0;"/><line style="stroke:#181818;stroke-width:1.0;stroke-dasharray:2.0,2.0;" x1="236" x2="400" y1="812.2734" y2="812.2734"/><text fill="#000000" font-family="sans-serif" font-size="13" lengthAdjust="spacing" textLength="86" x="248" y="807.2075">responseDTO</text><polygon fill="#181818" points="71,852.5391,61,856.5391,71,860.5391,67,856.5391" style="stroke:#181818;stroke-width:1.0;"/><line style="stroke:#181818;stroke-width:1.0;stroke-dasharray:2.0,2.0;" x1="65" x2="230" y1="856.5391" y2="856.5391"/><text fill="#000000" font-family="sans-serif" font-size="13" lengthAdjust="spacing" textLength="82" x="77" y="836.3403">HTTP 201 OK</text><text fill="#000000" font-family="sans-serif" font-size="13" lengthAdjust="spacing" textLength="122" x="77" y="851.4731">json(responseDTO)</text><!--MD5=[90684387aacad46a8f213fe92eaea69e]
@startuml
participant "User Interface" as UI
participant "Router" as Router
participant "PackagingController" as Controller
participant "PackagingService" as Service

participant "PackagingRepository" as Repository
participant "PackagingMapper" as Mapper
participant "PackagingUpdateResponseDTO" as UpdateResponseDTO
participant "PackagingSchema" as Schema
participant "PackagingModel" as Model
participant "PackagingUpdateRequestDTO" as UpdateRequestDTO
participant "Persistence" as Persistence


UI -> Router: POST /packaging (json)
Router -> Controller: responseDTO =\nupdatePackaging(json)
Controller -> Controller: validate(json)
Controller -> Mapper: requestDTO = createUpdateDTO()

create UpdateRequestDTO
Mapper -> UpdateRequestDTO: requestDTO: <<new>>

Controller -> Service: responseDTO =\nupdate(requestDTO)

Service -> Service: validate(requestDTO)

Service -> Mapper: Packaging = toModel(requestDTO)

create Model
Mapper -> Model: Packaging: <<new>>

Service -> Repository: entity =\nupdate(packaging)

Repository -> Mapper: schema = toSchema(entity)

create Schema
Mapper -> Schema: schema: <<new>>

Repository -> Persistence: entity = findOne(schema)

Repository -> Repository: verifyEntityExists(entity)

Repository -> Persistence: persist(schema)

Repository -> Mapper: entity = toModel(schema)
Mapper -> Model: entity: <<new>>
Repository - -> Service: entity


Service -> Mapper: responseDTO = updateResponseDTO(entity)
create UpdateResponseDTO
Mapper -> UpdateResponseDTO: responseDTO <<new>>

Service - -> Controller: responseDTO

Controller - -> Router: responseDTO

Router - -> UI: HTTP 201 OK\njson(responseDTO)

@enduml

PlantUML version 1.2022.7(Mon Aug 22 18:01:30 WEST 2022)
(GPL source distribution)
Java Runtime: OpenJDK Runtime Environment
JVM: OpenJDK 64-Bit Server VM
Default Encoding: UTF-8
Language: en
Country: US
--></g></svg>