<?xml version="1.0" encoding="UTF-8" standalone="no"?><svg xmlns="http://www.w3.org/2000/svg" xmlns:xlink="http://www.w3.org/1999/xlink" contentStyleType="text/css" height="377px" preserveAspectRatio="none" style="width:290px;height:377px;background:#FFFFFF;" version="1.1" viewBox="0 0 290 377" width="290px" zoomAndPan="magnify"><defs/><g><!--MD5=[c03814af8566ad110661847e2c959404]
cluster ElectricGo--><g id="cluster_ElectricGo"><path d="M8.5,6.602 L78.5,6.602 A3.75,3.75 0 0 1 81,9.102 L88,31.6699 L280.5,31.6699 A2.5,2.5 0 0 1 283,34.1699 L283,368.102 A2.5,2.5 0 0 1 280.5,370.602 L8.5,370.602 A2.5,2.5 0 0 1 6,368.102 L6,9.102 A2.5,2.5 0 0 1 8.5,6.602 " style="stroke:#000000;stroke-width:1.5;fill:none;"/><line style="stroke:#000000;stroke-width:1.5;fill:none;" x1="6" x2="88" y1="31.6699" y2="31.6699"/><text fill="#000000" font-family="sans-serif" font-size="14" font-weight="bold" lengthAdjust="spacing" textLength="69" x="10" y="23.5679">ElectricGo</text></g><!--MD5=[ee0fec323975fbe97ba28321ad4c4bf3]
entity U--><g id="elem_U"><path d="M48.5,44.602 L89.5,44.602 A3.75,3.75 0 0 1 92,47.102 L99,65.602 L207.5,65.602 A2.5,2.5 0 0 1 210,68.102 L210,99.1699 A2.5,2.5 0 0 1 207.5,101.6699 L48.5,101.6699 A2.5,2.5 0 0 1 46,99.1699 L46,47.102 A2.5,2.5 0 0 1 48.5,44.602 " fill="#F1F1F1" style="stroke:#181818;stroke-width:0.5;"/><line style="stroke:#181818;stroke-width:0.5;" x1="46" x2="99" y1="65.602" y2="65.602"/><text fill="#000000" font-family="sans-serif" font-size="14" lengthAdjust="spacing" textLength="134" x="56" y="87.5679">User Interface - SPA</text></g><!--MD5=[770389ab9df153645bc6ef28055eb2b5]
entity A--><g id="elem_A"><path d="M24.5,161.602 L65.5,161.602 A3.75,3.75 0 0 1 68,164.102 L75,182.602 L89.5,182.602 A2.5,2.5 0 0 1 92,185.102 L92,216.1699 A2.5,2.5 0 0 1 89.5,218.6699 L24.5,218.6699 A2.5,2.5 0 0 1 22,216.1699 L22,164.102 A2.5,2.5 0 0 1 24.5,161.602 " fill="#F1F1F1" style="stroke:#181818;stroke-width:0.5;"/><line style="stroke:#181818;stroke-width:0.5;" x1="22" x2="75" y1="182.602" y2="182.602"/><text fill="#000000" font-family="sans-serif" font-size="14" lengthAdjust="spacing" textLength="39" x="32" y="204.5679">Authz</text></g><!--MD5=[2b0f800f5e291cf066feaf8ec24b2082]
entity W--><g id="elem_W"><path d="M24.5,278.602 L65.5,278.602 A3.75,3.75 0 0 1 68,281.102 L75,299.602 L139.5,299.602 A2.5,2.5 0 0 1 142,302.102 L142,352.2378 A2.5,2.5 0 0 1 139.5,354.7378 L24.5,354.7378 A2.5,2.5 0 0 1 22,352.2378 L22,281.102 A2.5,2.5 0 0 1 24.5,278.602 " fill="#F1F1F1" style="stroke:#181818;stroke-width:0.5;"/><line style="stroke:#181818;stroke-width:0.5;" x1="22" x2="75" y1="299.602" y2="299.602"/><text fill="#000000" font-family="sans-serif" font-size="14" lengthAdjust="spacing" textLength="76" x="32" y="321.5679">Warehouse</text><text fill="#000000" font-family="sans-serif" font-size="14" lengthAdjust="spacing" textLength="90" x="32" y="340.6358">Management</text></g><!--MD5=[1200cabd2a84086424de0b397dfd2f71]
entity L--><g id="elem_L"><path d="M166.5,161.602 L207.5,161.602 A3.75,3.75 0 0 1 210,164.102 L217,182.602 L249.5,182.602 A2.5,2.5 0 0 1 252,185.102 L252,216.1699 A2.5,2.5 0 0 1 249.5,218.6699 L166.5,218.6699 A2.5,2.5 0 0 1 164,216.1699 L164,164.102 A2.5,2.5 0 0 1 166.5,161.602 " fill="#F1F1F1" style="stroke:#181818;stroke-width:0.5;"/><line style="stroke:#181818;stroke-width:0.5;" x1="164" x2="217" y1="182.602" y2="182.602"/><text fill="#000000" font-family="sans-serif" font-size="14" lengthAdjust="spacing" textLength="58" x="174" y="204.5679">Logistics</text></g><!--MD5=[626ad08abde0879284d52f51a0eb42aa]
entity P--><g id="elem_P"><path d="M179.5,288.102 L220.5,288.102 A3.75,3.75 0 0 1 223,290.602 L230,309.102 L264.5,309.102 A2.5,2.5 0 0 1 267,311.602 L267,342.6699 A2.5,2.5 0 0 1 264.5,345.1699 L179.5,345.1699 A2.5,2.5 0 0 1 177,342.6699 L177,290.602 A2.5,2.5 0 0 1 179.5,288.102 " fill="#F1F1F1" style="stroke:#181818;stroke-width:0.5;"/><line style="stroke:#181818;stroke-width:0.5;" x1="177" x2="230" y1="309.102" y2="309.102"/><text fill="#000000" font-family="sans-serif" font-size="14" lengthAdjust="spacing" textLength="60" x="187" y="331.0679">Planning</text></g><!--MD5=[1516fef85b3cf51cac44b7c0b75b67eb]
link U to A--><g id="link_U_A"><path d="M110.99,101.652 C100.71,118.312 87.55,139.632 76.79,157.042 " fill="none" id="U-to-A" style="stroke:#181818;stroke-width:1.0;stroke-dasharray:7.0,7.0;"/><polygon fill="#181818" points="74.11,161.382,82.2418,155.8256,76.7369,157.1276,75.4348,151.6226,74.11,161.382" style="stroke:#181818;stroke-width:1.0;"/></g><!--MD5=[7f3139259612e80d4a062df29dd5bbdb]
link U to W--><g id="link_U_W"><path d="M125.86,101.742 C123.29,130.982 118.26,178.362 110,218.602 C106.29,236.652 100.91,256.232 95.85,273.052 " fill="none" id="U-to-W" style="stroke:#181818;stroke-width:1.0;stroke-dasharray:7.0,7.0;"/><polygon fill="#181818" points="94.29,278.172,100.7177,270.7097,95.7333,273.3848,93.0582,268.4005,94.29,278.172" style="stroke:#181818;stroke-width:1.0;"/></g><!--MD5=[1d8c999db4191e394d598d261d081f0f]
link U to L--><g id="link_U_L"><path d="M147.16,101.652 C158.75,118.312 173.58,139.632 185.7,157.042 " fill="none" id="U-to-L" style="stroke:#181818;stroke-width:1.0;stroke-dasharray:7.0,7.0;"/><polygon fill="#181818" points="188.72,161.382,186.8561,151.7111,185.8613,157.2798,180.2926,156.285,188.72,161.382" style="stroke:#181818;stroke-width:1.0;"/></g><!--MD5=[d7059865375eef3f2f97ba53d56b53d8]
link L to P--><g id="link_L_P"><path d="M211.11,218.732 C213.24,237.672 216.07,262.882 218.32,282.832 " fill="none" id="L-to-P" style="stroke:#181818;stroke-width:1.0;stroke-dasharray:7.0,7.0;"/><polygon fill="#181818" points="218.9,288.052,221.8728,278.6625,218.3431,283.0831,213.9225,279.5535,218.9,288.052" style="stroke:#181818;stroke-width:1.0;"/></g><!--MD5=[3e7d2c9a6442e54222d2d62486d05715]
link L to W--><g id="link_L_W"><path d="M180.04,218.732 C163.32,235.252 141.77,256.542 123.13,274.962 " fill="none" id="L-to-W" style="stroke:#181818;stroke-width:1.0;stroke-dasharray:7.0,7.0;"/><polygon fill="#181818" points="119.45,278.602,128.6636,275.1222,123.0069,275.0879,123.0412,269.4312,119.45,278.602" style="stroke:#181818;stroke-width:1.0;"/></g><!--MD5=[d0482ebff77e60291646587d261275bd]
@startuml

package "ElectricGo" {

	folder "User Interface - SPA" as U
	folder "Authz" as A
	folder "Warehouse\nManagement" as W
	folder "Logistics" as L
	folder "Planning" as P

	U ..> A
	U ..> W
	U ..> L
	L ..> P
	L ..> W

}

@enduml

PlantUML version 1.2022.6(Tue Jun 21 18:34:49 WEST 2022)
(GPL source distribution)
Java Runtime: OpenJDK Runtime Environment
JVM: OpenJDK 64-Bit Server VM
Default Encoding: UTF-8
Language: en
Country: US
--></g></svg>