<?xml version="1.0" encoding="UTF-8" standalone="no"?><svg xmlns="http://www.w3.org/2000/svg" xmlns:xlink="http://www.w3.org/1999/xlink" contentStyleType="text/css" height="471px" preserveAspectRatio="none" style="width:1035px;height:471px;background:#FFFFFF;" version="1.1" viewBox="0 0 1035 471" width="1035px" zoomAndPan="magnify"><defs/><g><line style="stroke:#181818;stroke-width:0.5;stroke-dasharray:5.0,5.0;" x1="79" x2="79" y1="81.2969" y2="390.625"/><line style="stroke:#181818;stroke-width:0.5;stroke-dasharray:5.0,5.0;" x1="464" x2="464" y1="81.2969" y2="390.625"/><line style="stroke:#181818;stroke-width:0.5;stroke-dasharray:5.0,5.0;" x1="789" x2="789" y1="81.2969" y2="390.625"/><text fill="#000000" font-family="sans-serif" font-size="14" lengthAdjust="spacing" textLength="142" x="5" y="77.9951">Gestor de Armazéns</text><ellipse cx="79" cy="13.5" fill="#E2E2F0" rx="8" ry="8" style="stroke:#181818;stroke-width:0.5;"/><path d="M79,21.5 L79,48.5 M66,29.5 L92,29.5 M79,48.5 L66,63.5 M79,48.5 L92,63.5 " fill="none" style="stroke:#181818;stroke-width:0.5;"/><text fill="#000000" font-family="sans-serif" font-size="14" lengthAdjust="spacing" textLength="142" x="5" y="402.6201">Gestor de Armazéns</text><ellipse cx="79" cy="414.4219" fill="#E2E2F0" rx="8" ry="8" style="stroke:#181818;stroke-width:0.5;"/><path d="M79,422.4219 L79,449.4219 M66,430.4219 L92,430.4219 M79,449.4219 L66,464.4219 M79,449.4219 L92,464.4219 " fill="none" style="stroke:#181818;stroke-width:0.5;"/><rect fill="#E2E2F0" height="46.5938" rx="2.5" ry="2.5" style="stroke:#181818;stroke-width:0.5;" width="150" x="389" y="33.7031"/><text fill="#000000" font-family="sans-serif" font-size="14" font-style="italic" lengthAdjust="spacing" textLength="115" x="406.5" y="53.6982">&lt;&lt;Container&gt;&gt;</text><text fill="#000000" font-family="sans-serif" font-size="14" lengthAdjust="spacing" textLength="136" x="396" y="69.9951">User Interface - SPA</text><rect fill="#E2E2F0" height="46.5938" rx="2.5" ry="2.5" style="stroke:#181818;stroke-width:0.5;" width="150" x="389" y="389.625"/><text fill="#000000" font-family="sans-serif" font-size="14" font-style="italic" lengthAdjust="spacing" textLength="115" x="406.5" y="409.6201">&lt;&lt;Container&gt;&gt;</text><text fill="#000000" font-family="sans-serif" font-size="14" lengthAdjust="spacing" textLength="136" x="396" y="425.917">User Interface - SPA</text><rect fill="#E2E2F0" height="46.5938" rx="2.5" ry="2.5" style="stroke:#181818;stroke-width:0.5;" width="188" x="695" y="33.7031"/><text fill="#000000" font-family="sans-serif" font-size="14" font-style="italic" lengthAdjust="spacing" textLength="115" x="731.5" y="53.6982">&lt;&lt;Container&gt;&gt;</text><text fill="#000000" font-family="sans-serif" font-size="14" lengthAdjust="spacing" textLength="174" x="702" y="69.9951">Warehouse Management</text><rect fill="#E2E2F0" height="46.5938" rx="2.5" ry="2.5" style="stroke:#181818;stroke-width:0.5;" width="188" x="695" y="389.625"/><text fill="#000000" font-family="sans-serif" font-size="14" font-style="italic" lengthAdjust="spacing" textLength="115" x="731.5" y="409.6201">&lt;&lt;Container&gt;&gt;</text><text fill="#000000" font-family="sans-serif" font-size="14" lengthAdjust="spacing" textLength="174" x="702" y="425.917">Warehouse Management</text><polygon fill="#181818" points="452,108.4297,462,112.4297,452,116.4297,456,112.4297" style="stroke:#181818;stroke-width:1.0;"/><line style="stroke:#181818;stroke-width:1.0;" x1="79" x2="458" y1="112.4297" y2="112.4297"/><text fill="#000000" font-family="sans-serif" font-size="13" lengthAdjust="spacing" textLength="317" x="86" y="107.3638">Inicia o pedido de criacao de um Empacotamento</text><polygon fill="#181818" points="90,167.8281,80,171.8281,90,175.8281,86,171.8281" style="stroke:#181818;stroke-width:1.0;"/><line style="stroke:#181818;stroke-width:1.0;stroke-dasharray:2.0,2.0;" x1="84" x2="463" y1="171.8281" y2="171.8281"/><text fill="#000000" font-family="sans-serif" font-size="13" lengthAdjust="spacing" textLength="188" x="96" y="136.4966">Solicita os dados do Percurso</text><text fill="#000000" font-family="sans-serif" font-size="13" font-style="italic" lengthAdjust="spacing" textLength="210" x="96" y="151.6294">(Posição X, Posição Y, Posição Z,</text><text fill="#000000" font-family="sans-serif" font-size="13" font-style="italic" lengthAdjust="spacing" textLength="361" x="96" y="166.7622">Tempo de colocação, Tempo de retirada, ID da entrega)</text><polygon fill="#181818" points="452,196.9609,462,200.9609,452,204.9609,456,200.9609" style="stroke:#181818;stroke-width:1.0;"/><line style="stroke:#181818;stroke-width:1.0;" x1="79" x2="458" y1="200.9609" y2="200.9609"/><text fill="#000000" font-family="sans-serif" font-size="13" lengthAdjust="spacing" textLength="244" x="86" y="195.895">Fornece os dados do Empacotamento</text><polygon fill="#181818" points="777,226.0938,787,230.0938,777,234.0938,781,230.0938" style="stroke:#181818;stroke-width:1.0;"/><line style="stroke:#181818;stroke-width:1.0;" x1="464" x2="783" y1="230.0938" y2="230.0938"/><text fill="#000000" font-family="sans-serif" font-size="13" lengthAdjust="spacing" textLength="301" x="471" y="225.0278">POST /empacotamento - criar Empacotamento</text><line style="stroke:#181818;stroke-width:1.0;" x1="789" x2="831" y1="259.2266" y2="259.2266"/><line style="stroke:#181818;stroke-width:1.0;" x1="831" x2="831" y1="259.2266" y2="272.2266"/><line style="stroke:#181818;stroke-width:1.0;" x1="790" x2="831" y1="272.2266" y2="272.2266"/><polygon fill="#181818" points="800,268.2266,790,272.2266,800,276.2266,796,272.2266" style="stroke:#181818;stroke-width:1.0;"/><text fill="#000000" font-family="sans-serif" font-size="13" lengthAdjust="spacing" textLength="232" x="796" y="254.1606">Valida os dados do Empacotamento</text><line style="stroke:#181818;stroke-width:1.0;" x1="789" x2="831" y1="301.3594" y2="301.3594"/><line style="stroke:#181818;stroke-width:1.0;" x1="831" x2="831" y1="301.3594" y2="314.3594"/><line style="stroke:#181818;stroke-width:1.0;" x1="790" x2="831" y1="314.3594" y2="314.3594"/><polygon fill="#181818" points="800,310.3594,790,314.3594,800,318.3594,796,314.3594" style="stroke:#181818;stroke-width:1.0;"/><text fill="#000000" font-family="sans-serif" font-size="13" lengthAdjust="spacing" textLength="170" x="796" y="296.2935">Regista o Empacotamento</text><polygon fill="#181818" points="475,339.4922,465,343.4922,475,347.4922,471,343.4922" style="stroke:#181818;stroke-width:1.0;"/><line style="stroke:#181818;stroke-width:1.0;stroke-dasharray:2.0,2.0;" x1="469" x2="788" y1="343.4922" y2="343.4922"/><text fill="#000000" font-family="sans-serif" font-size="13" lengthAdjust="spacing" textLength="46" x="481" y="338.4263">200 OK</text><polygon fill="#181818" points="90,368.625,80,372.625,90,376.625,86,372.625" style="stroke:#181818;stroke-width:1.0;"/><line style="stroke:#181818;stroke-width:1.0;stroke-dasharray:2.0,2.0;" x1="84" x2="463" y1="372.625" y2="372.625"/><text fill="#000000" font-family="sans-serif" font-size="13" lengthAdjust="spacing" textLength="359" x="96" y="367.5591">Confirma que o Empacotamento foi criado com sucesso</text><!--MD5=[69aafd422c6a8c8ca23697cf6e272889]
@startuml
actor "Gestor de Armazéns" as A
participant "<i><<Container>></i>\nUser Interface - SPA" as S
participant "<i><<Container>></i>\nWarehouse Management" as W

A -> S: Inicia o pedido de criacao de um Empacotamento
S - -> A: Solicita os dados do Percurso\n<i>(Posição X, Posição Y, Posição Z,</i>\n<i>Tempo de colocação, Tempo de retirada, ID da entrega)</i>

A -> S: Fornece os dados do Empacotamento
S -> W: POST /empacotamento - criar Empacotamento
W -> W: Valida os dados do Empacotamento
W -> W: Regista o Empacotamento
W - -> S: 200 OK
S - -> A: Confirma que o Empacotamento foi criado com sucesso

@enduml

PlantUML version 1.2022.7(Mon Aug 22 18:01:30 WEST 2022)
(GPL source distribution)
Java Runtime: OpenJDK Runtime Environment
JVM: OpenJDK 64-Bit Server VM
Default Encoding: UTF-8
Language: en
Country: US
--></g></svg>