<?xml version="1.0" encoding="UTF-8" standalone="no"?><svg xmlns="http://www.w3.org/2000/svg" xmlns:xlink="http://www.w3.org/1999/xlink" contentStyleType="text/css" height="484px" preserveAspectRatio="none" style="width:809px;height:484px;background:#FFFFFF;" version="1.1" viewBox="0 0 809 484" width="809px" zoomAndPan="magnify"><defs/><g><line style="stroke:#181818;stroke-width:0.5;stroke-dasharray:5.0,5.0;" x1="76" x2="76" y1="84.0679" y2="401.4221"/><line style="stroke:#181818;stroke-width:0.5;stroke-dasharray:5.0,5.0;" x1="407" x2="407" y1="84.0679" y2="401.4221"/><line style="stroke:#181818;stroke-width:0.5;stroke-dasharray:5.0,5.0;" x1="623" x2="623" y1="84.0679" y2="401.4221"/><text fill="#000000" font-family="sans-serif" font-size="14" lengthAdjust="spacing" textLength="136" x="5" y="79.9659">Gestor de Armazéns</text><ellipse cx="76" cy="13.5" fill="#E2E2F0" rx="8" ry="8" style="stroke:#181818;stroke-width:0.5;"/><path d="M76,21.5 L76,48.5 M63,29.5 L89,29.5 M76,48.5 L63,63.5 M76,48.5 L89,63.5 " fill="none" style="stroke:#181818;stroke-width:0.5;"/><text fill="#000000" font-family="sans-serif" font-size="14" lengthAdjust="spacing" textLength="136" x="5" y="415.388">Gestor de Armazéns</text><ellipse cx="76" cy="427.99" fill="#E2E2F0" rx="8" ry="8" style="stroke:#181818;stroke-width:0.5;"/><path d="M76,435.99 L76,462.99 M63,443.99 L89,443.99 M76,462.99 L63,477.99 M76,462.99 L89,477.99 " fill="none" style="stroke:#181818;stroke-width:0.5;"/><rect fill="#E2E2F0" height="52.1358" rx="2.5" ry="2.5" style="stroke:#181818;stroke-width:0.5;" width="148" x="333" y="30.9321"/><text fill="#000000" font-family="sans-serif" font-size="14" font-style="italic" lengthAdjust="spacing" textLength="94" x="360" y="52.898">&lt;&lt;Container&gt;&gt;</text><text fill="#000000" font-family="sans-serif" font-size="14" lengthAdjust="spacing" textLength="134" x="340" y="71.9659">User Interface - SPA</text><rect fill="#E2E2F0" height="52.1358" rx="2.5" ry="2.5" style="stroke:#181818;stroke-width:0.5;" width="148" x="333" y="400.4221"/><text fill="#000000" font-family="sans-serif" font-size="14" font-style="italic" lengthAdjust="spacing" textLength="94" x="360" y="422.388">&lt;&lt;Container&gt;&gt;</text><text fill="#000000" font-family="sans-serif" font-size="14" lengthAdjust="spacing" textLength="134" x="340" y="441.4559">User Interface - SPA</text><rect fill="#E2E2F0" height="52.1358" rx="2.5" ry="2.5" style="stroke:#181818;stroke-width:0.5;" width="184" x="531" y="30.9321"/><text fill="#000000" font-family="sans-serif" font-size="14" font-style="italic" lengthAdjust="spacing" textLength="94" x="576" y="52.898">&lt;&lt;Container&gt;&gt;</text><text fill="#000000" font-family="sans-serif" font-size="14" lengthAdjust="spacing" textLength="170" x="538" y="71.9659">Warehouse Management</text><rect fill="#E2E2F0" height="52.1358" rx="2.5" ry="2.5" style="stroke:#181818;stroke-width:0.5;" width="184" x="531" y="400.4221"/><text fill="#000000" font-family="sans-serif" font-size="14" font-style="italic" lengthAdjust="spacing" textLength="94" x="576" y="422.388">&lt;&lt;Container&gt;&gt;</text><text fill="#000000" font-family="sans-serif" font-size="14" lengthAdjust="spacing" textLength="170" x="538" y="441.4559">Warehouse Management</text><polygon fill="#181818" points="395,113.7739,405,117.7739,395,121.7739,399,117.7739" style="stroke:#181818;stroke-width:1.0;"/><line style="stroke:#181818;stroke-width:1.0;" x1="76" x2="401" y1="117.7739" y2="117.7739"/><text fill="#000000" font-family="sans-serif" font-size="13" lengthAdjust="spacing" textLength="251" x="83" y="111.9649">Inicia o pedido de criacao de um Armazém</text><polygon fill="#181818" points="87,163.186,77,167.186,87,171.186,83,167.186" style="stroke:#181818;stroke-width:1.0;"/><line style="stroke:#181818;stroke-width:1.0;stroke-dasharray:2.0,2.0;" x1="81" x2="406" y1="167.186" y2="167.186"/><text fill="#000000" font-family="sans-serif" font-size="13" lengthAdjust="spacing" textLength="178" x="93" y="143.6709">Solicita os dados do Armazém</text><text fill="#000000" font-family="sans-serif" font-size="13" lengthAdjust="spacing" textLength="307" x="93" y="161.377">(Identificador, Designacao, Endereco, Coordenadas)</text><polygon fill="#181818" points="395,194.892,405,198.892,395,202.892,399,198.892" style="stroke:#181818;stroke-width:1.0;"/><line style="stroke:#181818;stroke-width:1.0;" x1="76" x2="401" y1="198.892" y2="198.892"/><text fill="#000000" font-family="sans-serif" font-size="13" lengthAdjust="spacing" textLength="184" x="83" y="193.083">Fornece os dados do Armazém</text><polygon fill="#181818" points="611,226.598,621,230.598,611,234.598,615,230.598" style="stroke:#181818;stroke-width:1.0;"/><line style="stroke:#181818;stroke-width:1.0;" x1="407" x2="617" y1="230.598" y2="230.598"/><text fill="#000000" font-family="sans-serif" font-size="13" lengthAdjust="spacing" textLength="192" x="414" y="224.789">POST /armazem - criar Armazém</text><line style="stroke:#181818;stroke-width:1.0;" x1="623" x2="665" y1="262.304" y2="262.304"/><line style="stroke:#181818;stroke-width:1.0;" x1="665" x2="665" y1="262.304" y2="275.304"/><line style="stroke:#181818;stroke-width:1.0;" x1="624" x2="665" y1="275.304" y2="275.304"/><polygon fill="#181818" points="634,271.304,624,275.304,634,279.304,630,275.304" style="stroke:#181818;stroke-width:1.0;"/><text fill="#000000" font-family="sans-serif" font-size="13" lengthAdjust="spacing" textLength="172" x="630" y="256.495">Valida os dados do Armazém</text><line style="stroke:#181818;stroke-width:1.0;" x1="623" x2="665" y1="307.01" y2="307.01"/><line style="stroke:#181818;stroke-width:1.0;" x1="665" x2="665" y1="307.01" y2="320.01"/><line style="stroke:#181818;stroke-width:1.0;" x1="624" x2="665" y1="320.01" y2="320.01"/><polygon fill="#181818" points="634,316.01,624,320.01,634,324.01,630,320.01" style="stroke:#181818;stroke-width:1.0;"/><text fill="#000000" font-family="sans-serif" font-size="13" lengthAdjust="spacing" textLength="115" x="630" y="301.201">Regista o Armazém</text><polygon fill="#181818" points="418,347.716,408,351.716,418,355.716,414,351.716" style="stroke:#181818;stroke-width:1.0;"/><line style="stroke:#181818;stroke-width:1.0;stroke-dasharray:2.0,2.0;" x1="412" x2="622" y1="351.716" y2="351.716"/><text fill="#000000" font-family="sans-serif" font-size="13" lengthAdjust="spacing" textLength="42" x="424" y="345.907">200 OK</text><polygon fill="#181818" points="87,379.4221,77,383.4221,87,387.4221,83,383.4221" style="stroke:#181818;stroke-width:1.0;"/><line style="stroke:#181818;stroke-width:1.0;stroke-dasharray:2.0,2.0;" x1="81" x2="406" y1="383.4221" y2="383.4221"/><text fill="#000000" font-family="sans-serif" font-size="13" lengthAdjust="spacing" textLength="289" x="93" y="377.6131">Confirma que o Armazém foi criado com sucesso</text><!--MD5=[57709b8e8873d25951ad1040ada55fc7]
@startuml
actor "Gestor de Armazéns" as A
participant "<i><<Container>></i>\nUser Interface - SPA" as S
participant "<i><<Container>></i>\nWarehouse Management" as W

A -> S: Inicia o pedido de criacao de um Armazém
S - -> A: Solicita os dados do Armazém\n(Identificador, Designacao, Endereco, Coordenadas)

A -> S: Fornece os dados do Armazém
S -> W: POST /armazem - criar Armazém
W -> W: Valida os dados do Armazém
W -> W: Regista o Armazém
W - -> S: 200 OK
S - -> A: Confirma que o Armazém foi criado com sucesso

@enduml

PlantUML version 1.2022.6(Tue Jun 21 18:34:49 WEST 2022)
(GPL source distribution)
Java Runtime: OpenJDK Runtime Environment
JVM: OpenJDK 64-Bit Server VM
Default Encoding: UTF-8
Language: en
Country: US
--></g></svg>