<?xml version="1.0" encoding="UTF-8" standalone="no"?><svg xmlns="http://www.w3.org/2000/svg" xmlns:xlink="http://www.w3.org/1999/xlink" contentStyleType="text/css" height="502px" preserveAspectRatio="none" style="width:779px;height:502px;background:#FFFFFF;" version="1.1" viewBox="0 0 779 502" width="779px" zoomAndPan="magnify"><defs/><g><line style="stroke:#181818;stroke-width:0.5;stroke-dasharray:5.0,5.0;" x1="76" x2="76" y1="84.0679" y2="419.1281"/><line style="stroke:#181818;stroke-width:0.5;stroke-dasharray:5.0,5.0;" x1="385" x2="385" y1="84.0679" y2="419.1281"/><line style="stroke:#181818;stroke-width:0.5;stroke-dasharray:5.0,5.0;" x1="597" x2="597" y1="84.0679" y2="419.1281"/><text fill="#000000" font-family="sans-serif" font-size="14" lengthAdjust="spacing" textLength="136" x="5" y="79.9659">Gestor de Armazéns</text><ellipse cx="76" cy="13.5" fill="#E2E2F0" rx="8" ry="8" style="stroke:#181818;stroke-width:0.5;"/><path d="M76,21.5 L76,48.5 M63,29.5 L89,29.5 M76,48.5 L63,63.5 M76,48.5 L89,63.5 " fill="none" style="stroke:#181818;stroke-width:0.5;"/><text fill="#000000" font-family="sans-serif" font-size="14" lengthAdjust="spacing" textLength="136" x="5" y="433.094">Gestor de Armazéns</text><ellipse cx="76" cy="445.696" fill="#E2E2F0" rx="8" ry="8" style="stroke:#181818;stroke-width:0.5;"/><path d="M76,453.696 L76,480.696 M63,461.696 L89,461.696 M76,480.696 L63,495.696 M76,480.696 L89,495.696 " fill="none" style="stroke:#181818;stroke-width:0.5;"/><rect fill="#E2E2F0" height="52.1358" rx="2.5" ry="2.5" style="stroke:#181818;stroke-width:0.5;" width="148" x="311" y="30.9321"/><text fill="#000000" font-family="sans-serif" font-size="14" font-style="italic" lengthAdjust="spacing" textLength="94" x="338" y="52.898">&lt;&lt;Container&gt;&gt;</text><text fill="#000000" font-family="sans-serif" font-size="14" lengthAdjust="spacing" textLength="134" x="318" y="71.9659">User Interface - SPA</text><rect fill="#E2E2F0" height="52.1358" rx="2.5" ry="2.5" style="stroke:#181818;stroke-width:0.5;" width="148" x="311" y="418.1281"/><text fill="#000000" font-family="sans-serif" font-size="14" font-style="italic" lengthAdjust="spacing" textLength="94" x="338" y="440.094">&lt;&lt;Container&gt;&gt;</text><text fill="#000000" font-family="sans-serif" font-size="14" lengthAdjust="spacing" textLength="134" x="318" y="459.1619">User Interface - SPA</text><rect fill="#E2E2F0" height="52.1358" rx="2.5" ry="2.5" style="stroke:#181818;stroke-width:0.5;" width="184" x="505" y="30.9321"/><text fill="#000000" font-family="sans-serif" font-size="14" font-style="italic" lengthAdjust="spacing" textLength="94" x="550" y="52.898">&lt;&lt;Container&gt;&gt;</text><text fill="#000000" font-family="sans-serif" font-size="14" lengthAdjust="spacing" textLength="170" x="512" y="71.9659">Warehouse Management</text><rect fill="#E2E2F0" height="52.1358" rx="2.5" ry="2.5" style="stroke:#181818;stroke-width:0.5;" width="184" x="505" y="418.1281"/><text fill="#000000" font-family="sans-serif" font-size="14" font-style="italic" lengthAdjust="spacing" textLength="94" x="550" y="440.094">&lt;&lt;Container&gt;&gt;</text><text fill="#000000" font-family="sans-serif" font-size="14" lengthAdjust="spacing" textLength="170" x="512" y="459.1619">Warehouse Management</text><polygon fill="#181818" points="373,113.7739,383,117.7739,373,121.7739,377,117.7739" style="stroke:#181818;stroke-width:1.0;"/><line style="stroke:#181818;stroke-width:1.0;" x1="76" x2="379" y1="117.7739" y2="117.7739"/><text fill="#000000" font-family="sans-serif" font-size="13" lengthAdjust="spacing" textLength="247" x="83" y="111.9649">Inicia o pedido de criacao de um Percurso</text><polygon fill="#181818" points="87,180.892,77,184.892,87,188.892,83,184.892" style="stroke:#181818;stroke-width:1.0;"/><line style="stroke:#181818;stroke-width:1.0;stroke-dasharray:2.0,2.0;" x1="81" x2="384" y1="184.892" y2="184.892"/><text fill="#000000" font-family="sans-serif" font-size="13" lengthAdjust="spacing" textLength="174" x="93" y="143.6709">Solicita os dados do Percurso</text><text fill="#000000" font-family="sans-serif" font-size="13" lengthAdjust="spacing" textLength="4" x="93" y="161.377">(</text><text fill="#000000" font-family="sans-serif" font-size="13" font-style="italic" lengthAdjust="spacing" textLength="218" x="97" y="161.377">ID do Armazém de Destino, Data, Peso,</text><text fill="#000000" font-family="sans-serif" font-size="13" font-style="italic" lengthAdjust="spacing" textLength="170" x="93" y="179.083">Tempo Colocar, Tempo Retirar</text><text fill="#000000" font-family="sans-serif" font-size="13" lengthAdjust="spacing" textLength="4" x="263" y="179.083">)</text><polygon fill="#181818" points="373,212.598,383,216.598,373,220.598,377,216.598" style="stroke:#181818;stroke-width:1.0;"/><line style="stroke:#181818;stroke-width:1.0;" x1="76" x2="379" y1="216.598" y2="216.598"/><text fill="#000000" font-family="sans-serif" font-size="13" lengthAdjust="spacing" textLength="180" x="83" y="210.789">Fornece os dados do Percurso</text><polygon fill="#181818" points="585,244.304,595,248.304,585,252.304,589,248.304" style="stroke:#181818;stroke-width:1.0;"/><line style="stroke:#181818;stroke-width:1.0;" x1="385" x2="591" y1="248.304" y2="248.304"/><text fill="#000000" font-family="sans-serif" font-size="13" lengthAdjust="spacing" textLength="188" x="392" y="242.495">POST /armazem - criar Percurso</text><line style="stroke:#181818;stroke-width:1.0;" x1="597" x2="639" y1="280.01" y2="280.01"/><line style="stroke:#181818;stroke-width:1.0;" x1="639" x2="639" y1="280.01" y2="293.01"/><line style="stroke:#181818;stroke-width:1.0;" x1="598" x2="639" y1="293.01" y2="293.01"/><polygon fill="#181818" points="608,289.01,598,293.01,608,297.01,604,293.01" style="stroke:#181818;stroke-width:1.0;"/><text fill="#000000" font-family="sans-serif" font-size="13" lengthAdjust="spacing" textLength="168" x="604" y="274.201">Valida os dados do Percurso</text><line style="stroke:#181818;stroke-width:1.0;" x1="597" x2="639" y1="324.716" y2="324.716"/><line style="stroke:#181818;stroke-width:1.0;" x1="639" x2="639" y1="324.716" y2="337.716"/><line style="stroke:#181818;stroke-width:1.0;" x1="598" x2="639" y1="337.716" y2="337.716"/><polygon fill="#181818" points="608,333.716,598,337.716,608,341.716,604,337.716" style="stroke:#181818;stroke-width:1.0;"/><text fill="#000000" font-family="sans-serif" font-size="13" lengthAdjust="spacing" textLength="111" x="604" y="318.907">Regista o Percurso</text><polygon fill="#181818" points="396,365.4221,386,369.4221,396,373.4221,392,369.4221" style="stroke:#181818;stroke-width:1.0;"/><line style="stroke:#181818;stroke-width:1.0;stroke-dasharray:2.0,2.0;" x1="390" x2="596" y1="369.4221" y2="369.4221"/><text fill="#000000" font-family="sans-serif" font-size="13" lengthAdjust="spacing" textLength="42" x="402" y="363.6131">200 OK</text><polygon fill="#181818" points="87,397.1281,77,401.1281,87,405.1281,83,401.1281" style="stroke:#181818;stroke-width:1.0;"/><line style="stroke:#181818;stroke-width:1.0;stroke-dasharray:2.0,2.0;" x1="81" x2="384" y1="401.1281" y2="401.1281"/><text fill="#000000" font-family="sans-serif" font-size="13" lengthAdjust="spacing" textLength="285" x="93" y="395.3191">Confirma que o Percurso foi criado com sucesso</text><!--MD5=[497fd903c2f49d17274432614a157193]
@startuml
actor "Gestor de Armazéns" as A
participant "<i><<Container>></i>\nUser Interface - SPA" as S
participant "<i><<Container>></i>\nWarehouse Management" as W

A -> S: Inicia o pedido de criacao de um Percurso
S - -> A: Solicita os dados do Percurso\n(<i>ID do Armazém de Destino, Data, Peso,</i>\n<i>Tempo Colocar, Tempo Retirar</i>)

A -> S: Fornece os dados do Percurso
S -> W: POST /armazem - criar Percurso
W -> W: Valida os dados do Percurso
W -> W: Regista o Percurso
W - -> S: 200 OK
S - -> A: Confirma que o Percurso foi criado com sucesso

@enduml

PlantUML version 1.2022.6(Tue Jun 21 18:34:49 WEST 2022)
(GPL source distribution)
Java Runtime: OpenJDK Runtime Environment
JVM: OpenJDK 64-Bit Server VM
Default Encoding: UTF-8
Language: en
Country: US
--></g></svg>