<?xml version="1.0" encoding="UTF-8" standalone="no"?><svg xmlns="http://www.w3.org/2000/svg" xmlns:xlink="http://www.w3.org/1999/xlink" contentStyleType="text/css" height="461px" preserveAspectRatio="none" style="width:963px;height:461px;background:#FFFFFF;" version="1.1" viewBox="0 0 963 461" width="963px" zoomAndPan="magnify"><defs/><g><rect fill="none" height="265" style="stroke:#000000;stroke-width:1.5;" width="946" x="10" y="98.2969"/><line style="stroke:#181818;stroke-width:0.5;stroke-dasharray:5.0,5.0;" x1="94" x2="94" y1="81.2969" y2="380.2969"/><line style="stroke:#181818;stroke-width:0.5;stroke-dasharray:5.0,5.0;" x1="481" x2="481" y1="81.2969" y2="380.2969"/><line style="stroke:#181818;stroke-width:0.5;stroke-dasharray:5.0,5.0;" x1="852" x2="852" y1="81.2969" y2="380.2969"/><text fill="#000000" font-family="sans-serif" font-size="14" lengthAdjust="spacing" textLength="142" x="20" y="77.9951">Gestor de Armazéns</text><ellipse cx="94" cy="13.5" fill="#E2E2F0" rx="8" ry="8" style="stroke:#181818;stroke-width:0.5;"/><path d="M94,21.5 L94,48.5 M81,29.5 L107,29.5 M94,48.5 L81,63.5 M94,48.5 L107,63.5 " fill="none" style="stroke:#181818;stroke-width:0.5;"/><text fill="#000000" font-family="sans-serif" font-size="14" lengthAdjust="spacing" textLength="142" x="20" y="392.292">Gestor de Armazéns</text><ellipse cx="94" cy="404.0938" fill="#E2E2F0" rx="8" ry="8" style="stroke:#181818;stroke-width:0.5;"/><path d="M94,412.0938 L94,439.0938 M81,420.0938 L107,420.0938 M94,439.0938 L81,454.0938 M94,439.0938 L107,454.0938 " fill="none" style="stroke:#181818;stroke-width:0.5;"/><rect fill="#E2E2F0" height="46.5938" rx="2.5" ry="2.5" style="stroke:#181818;stroke-width:0.5;" width="150" x="406" y="33.7031"/><text fill="#000000" font-family="sans-serif" font-size="14" font-style="italic" lengthAdjust="spacing" textLength="115" x="423.5" y="53.6982">&lt;&lt;Container&gt;&gt;</text><text fill="#000000" font-family="sans-serif" font-size="14" lengthAdjust="spacing" textLength="136" x="413" y="69.9951">User Interface - SPA</text><rect fill="#E2E2F0" height="46.5938" rx="2.5" ry="2.5" style="stroke:#181818;stroke-width:0.5;" width="150" x="406" y="379.2969"/><text fill="#000000" font-family="sans-serif" font-size="14" font-style="italic" lengthAdjust="spacing" textLength="115" x="423.5" y="399.292">&lt;&lt;Container&gt;&gt;</text><text fill="#000000" font-family="sans-serif" font-size="14" lengthAdjust="spacing" textLength="136" x="413" y="415.5889">User Interface - SPA</text><rect fill="#E2E2F0" height="46.5938" rx="2.5" ry="2.5" style="stroke:#181818;stroke-width:0.5;" width="188" x="758" y="33.7031"/><text fill="#000000" font-family="sans-serif" font-size="14" font-style="italic" lengthAdjust="spacing" textLength="115" x="794.5" y="53.6982">&lt;&lt;Container&gt;&gt;</text><text fill="#000000" font-family="sans-serif" font-size="14" lengthAdjust="spacing" textLength="174" x="765" y="69.9951">Warehouse Management</text><rect fill="#E2E2F0" height="46.5938" rx="2.5" ry="2.5" style="stroke:#181818;stroke-width:0.5;" width="188" x="758" y="379.2969"/><text fill="#000000" font-family="sans-serif" font-size="14" font-style="italic" lengthAdjust="spacing" textLength="115" x="794.5" y="399.292">&lt;&lt;Container&gt;&gt;</text><text fill="#000000" font-family="sans-serif" font-size="14" lengthAdjust="spacing" textLength="174" x="765" y="415.5889">Warehouse Management</text><path d="M10,98.2969 L74,98.2969 L74,105.4297 L64,115.4297 L10,115.4297 L10,98.2969 " fill="#EEEEEE" style="stroke:#000000;stroke-width:1.5;"/><rect fill="none" height="265" style="stroke:#000000;stroke-width:1.5;" width="946" x="10" y="98.2969"/><text fill="#000000" font-family="sans-serif" font-size="13" font-weight="bold" lengthAdjust="spacing" textLength="19" x="25" y="111.3638">alt</text><text fill="#000000" font-family="sans-serif" font-size="11" font-weight="bold" lengthAdjust="spacing" textLength="219" x="89" y="110.5073">[Listar todos os Empacotamentos]</text><polygon fill="#181818" points="469,132.5625,479,136.5625,469,140.5625,473,136.5625" style="stroke:#181818;stroke-width:1.0;"/><line style="stroke:#181818;stroke-width:1.0;" x1="94" x2="475" y1="136.5625" y2="136.5625"/><text fill="#000000" font-family="sans-serif" font-size="13" lengthAdjust="spacing" textLength="321" x="101" y="131.4966">Realiza o pedido de listagem de Empacotamentos</text><polygon fill="#181818" points="840,161.6953,850,165.6953,840,169.6953,844,165.6953" style="stroke:#181818;stroke-width:1.0;"/><line style="stroke:#181818;stroke-width:1.0;stroke-dasharray:2.0,2.0;" x1="481" x2="846" y1="165.6953" y2="165.6953"/><text fill="#000000" font-family="sans-serif" font-size="13" lengthAdjust="spacing" textLength="302" x="488" y="160.6294">GET /Empacotamento - listar Empacotamentos</text><polygon fill="#181818" points="492,190.8281,482,194.8281,492,198.8281,488,194.8281" style="stroke:#181818;stroke-width:1.0;"/><line style="stroke:#181818;stroke-width:1.0;stroke-dasharray:2.0,2.0;" x1="486" x2="851" y1="194.8281" y2="194.8281"/><text fill="#000000" font-family="sans-serif" font-size="13" lengthAdjust="spacing" textLength="274" x="498" y="189.7622">200 OK - retorna lista de Empacotamentos</text><polygon fill="#181818" points="105,219.9609,95,223.9609,105,227.9609,101,223.9609" style="stroke:#181818;stroke-width:1.0;"/><line style="stroke:#181818;stroke-width:1.0;stroke-dasharray:2.0,2.0;" x1="99" x2="480" y1="223.9609" y2="223.9609"/><text fill="#000000" font-family="sans-serif" font-size="13" lengthAdjust="spacing" textLength="338" x="111" y="218.895">Apresenta uma lista com todos as Empacotamentos</text><line style="stroke:#000000;stroke-width:1.0;stroke-dasharray:2.0,2.0;" x1="10" x2="956" y1="232.9609" y2="232.9609"/><text fill="#000000" font-family="sans-serif" font-size="11" font-weight="bold" lengthAdjust="spacing" textLength="287" x="15" y="243.1714">[Listar um Empacotamento por Identificador]</text><polygon fill="#181818" points="469,263.8984,479,267.8984,469,271.8984,473,267.8984" style="stroke:#181818;stroke-width:1.0;"/><line style="stroke:#181818;stroke-width:1.0;" x1="94" x2="475" y1="267.8984" y2="267.8984"/><text fill="#000000" font-family="sans-serif" font-size="13" lengthAdjust="spacing" textLength="309" x="101" y="262.8325">Requer uma Empacotamentos pelo Identificador</text><polygon fill="#181818" points="840,293.0313,850,297.0313,840,301.0313,844,297.0313" style="stroke:#181818;stroke-width:1.0;"/><line style="stroke:#181818;stroke-width:1.0;stroke-dasharray:2.0,2.0;" x1="481" x2="846" y1="297.0313" y2="297.0313"/><text fill="#000000" font-family="sans-serif" font-size="13" lengthAdjust="spacing" textLength="347" x="488" y="291.9653">GET /Empacotamento/{id} - retornar Empacotamento</text><polygon fill="#181818" points="492,322.1641,482,326.1641,492,330.1641,488,326.1641" style="stroke:#181818;stroke-width:1.0;"/><line style="stroke:#181818;stroke-width:1.0;stroke-dasharray:2.0,2.0;" x1="486" x2="851" y1="326.1641" y2="326.1641"/><text fill="#000000" font-family="sans-serif" font-size="13" lengthAdjust="spacing" textLength="274" x="498" y="321.0981">200 OK - retorna lista de Empacotamentos</text><polygon fill="#181818" points="105,351.2969,95,355.2969,105,359.2969,101,355.2969" style="stroke:#181818;stroke-width:1.0;"/><line style="stroke:#181818;stroke-width:1.0;stroke-dasharray:2.0,2.0;" x1="99" x2="480" y1="355.2969" y2="355.2969"/><text fill="#000000" font-family="sans-serif" font-size="13" lengthAdjust="spacing" textLength="363" x="111" y="350.231">Apresenta todos os dados da Empacotamento solicitada</text><!--MD5=[6c56cebd416e3fb421f5589fec6be36e]
@startuml
actor "Gestor de Armazéns" as A
participant "<i><<Container>></i>\nUser Interface - SPA" as S
participant "<i><<Container>></i>\nWarehouse Management" as W

alt Listar todos os Empacotamentos

	A -> S: Realiza o pedido de listagem de Empacotamentos
	S - -> W: GET /Empacotamento - listar Empacotamentos
	W - -> S: 200 OK - retorna lista de Empacotamentos
	S - -> A: Apresenta uma lista com todos as Empacotamentos

else Listar um Empacotamento por Identificador

	A -> S: Requer uma Empacotamentos pelo Identificador
	S - -> W: GET /Empacotamento/{id} - retornar Empacotamento
	W - -> S: 200 OK - retorna lista de Empacotamentos
	S - -> A: Apresenta todos os dados da Empacotamento solicitada

end

@enduml

PlantUML version 1.2022.7(Mon Aug 22 18:01:30 WEST 2022)
(GPL source distribution)
Java Runtime: OpenJDK Runtime Environment
JVM: OpenJDK 64-Bit Server VM
Default Encoding: UTF-8
Language: en
Country: US
--></g></svg>