<?xml version="1.0" encoding="UTF-8" standalone="no"?><svg xmlns="http://www.w3.org/2000/svg" xmlns:xlink="http://www.w3.org/1999/xlink" contentStyleType="text/css" height="629px" preserveAspectRatio="none" style="width:754px;height:629px;background:#FFFFFF;" version="1.1" viewBox="0 0 754 629" width="754px" zoomAndPan="magnify"><defs/><g><line style="stroke:#181818;stroke-width:0.5;stroke-dasharray:5.0,5.0;" x1="59" x2="59" y1="84.0679" y2="545.9521"/><line style="stroke:#181818;stroke-width:0.5;stroke-dasharray:5.0,5.0;" x1="360.5" x2="360.5" y1="84.0679" y2="545.9521"/><line style="stroke:#181818;stroke-width:0.5;stroke-dasharray:5.0,5.0;" x1="580.5" x2="580.5" y1="84.0679" y2="545.9521"/><text fill="#000000" font-family="sans-serif" font-size="14" lengthAdjust="spacing" textLength="103" x="5" y="79.9659">Gestor de Frota</text><ellipse cx="59.5" cy="13.5" fill="#E2E2F0" rx="8" ry="8" style="stroke:#181818;stroke-width:0.5;"/><path d="M59.5,21.5 L59.5,48.5 M46.5,29.5 L72.5,29.5 M59.5,48.5 L46.5,63.5 M59.5,48.5 L72.5,63.5 " fill="none" style="stroke:#181818;stroke-width:0.5;"/><text fill="#000000" font-family="sans-serif" font-size="14" lengthAdjust="spacing" textLength="103" x="5" y="559.9181">Gestor de Frota</text><ellipse cx="59.5" cy="572.5201" fill="#E2E2F0" rx="8" ry="8" style="stroke:#181818;stroke-width:0.5;"/><path d="M59.5,580.5201 L59.5,607.5201 M46.5,588.5201 L72.5,588.5201 M59.5,607.5201 L46.5,622.5201 M59.5,607.5201 L72.5,622.5201 " fill="none" style="stroke:#181818;stroke-width:0.5;"/><rect fill="#E2E2F0" height="52.1358" rx="2.5" ry="2.5" style="stroke:#181818;stroke-width:0.5;" width="148" x="286.5" y="30.9321"/><text fill="#000000" font-family="sans-serif" font-size="14" font-style="italic" lengthAdjust="spacing" textLength="94" x="313.5" y="52.898">&lt;&lt;Container&gt;&gt;</text><text fill="#000000" font-family="sans-serif" font-size="14" lengthAdjust="spacing" textLength="134" x="293.5" y="71.9659">User Interface - SPA</text><rect fill="#E2E2F0" height="52.1358" rx="2.5" ry="2.5" style="stroke:#181818;stroke-width:0.5;" width="148" x="286.5" y="544.9521"/><text fill="#000000" font-family="sans-serif" font-size="14" font-style="italic" lengthAdjust="spacing" textLength="94" x="313.5" y="566.9181">&lt;&lt;Container&gt;&gt;</text><text fill="#000000" font-family="sans-serif" font-size="14" lengthAdjust="spacing" textLength="134" x="293.5" y="585.986">User Interface - SPA</text><rect fill="#E2E2F0" height="52.1358" rx="2.5" ry="2.5" style="stroke:#181818;stroke-width:0.5;" width="184" x="488.5" y="30.9321"/><text fill="#000000" font-family="sans-serif" font-size="14" font-style="italic" lengthAdjust="spacing" textLength="94" x="533.5" y="52.898">&lt;&lt;Container&gt;&gt;</text><text fill="#000000" font-family="sans-serif" font-size="14" lengthAdjust="spacing" textLength="170" x="495.5" y="71.9659">Warehouse Management</text><rect fill="#E2E2F0" height="52.1358" rx="2.5" ry="2.5" style="stroke:#181818;stroke-width:0.5;" width="184" x="488.5" y="544.9521"/><text fill="#000000" font-family="sans-serif" font-size="14" font-style="italic" lengthAdjust="spacing" textLength="94" x="533.5" y="566.9181">&lt;&lt;Container&gt;&gt;</text><text fill="#000000" font-family="sans-serif" font-size="14" lengthAdjust="spacing" textLength="170" x="495.5" y="585.986">Warehouse Management</text><polygon fill="#181818" points="348.5,113.7739,358.5,117.7739,348.5,121.7739,352.5,117.7739" style="stroke:#181818;stroke-width:1.0;"/><line style="stroke:#181818;stroke-width:1.0;" x1="59.5" x2="354.5" y1="117.7739" y2="117.7739"/><text fill="#000000" font-family="sans-serif" font-size="13" lengthAdjust="spacing" textLength="172" x="66.5" y="111.9649">Inicia a edicão de um Camião</text><polygon fill="#181818" points="568.5,145.4799,578.5,149.4799,568.5,153.4799,572.5,149.4799" style="stroke:#181818;stroke-width:1.0;"/><line style="stroke:#181818;stroke-width:1.0;stroke-dasharray:2.0,2.0;" x1="360.5" x2="574.5" y1="149.4799" y2="149.4799"/><text fill="#000000" font-family="sans-serif" font-size="13" lengthAdjust="spacing" textLength="161" x="367.5" y="143.6709">GET /camiao - listar Camião</text><polygon fill="#181818" points="371.5,177.186,361.5,181.186,371.5,185.186,367.5,181.186" style="stroke:#181818;stroke-width:1.0;"/><line style="stroke:#181818;stroke-width:1.0;stroke-dasharray:2.0,2.0;" x1="365.5" x2="579.5" y1="181.186" y2="181.186"/><text fill="#000000" font-family="sans-serif" font-size="13" lengthAdjust="spacing" textLength="196" x="377.5" y="175.377">200 OK - retorna lista de Camiões</text><polygon fill="#181818" points="70.5,208.892,60.5,212.892,70.5,216.892,66.5,212.892" style="stroke:#181818;stroke-width:1.0;"/><line style="stroke:#181818;stroke-width:1.0;stroke-dasharray:2.0,2.0;" x1="64.5" x2="359.5" y1="212.892" y2="212.892"/><text fill="#000000" font-family="sans-serif" font-size="13" lengthAdjust="spacing" textLength="157" x="76.5" y="207.083">Fornece a lista de Camiões</text><polygon fill="#181818" points="348.5,240.598,358.5,244.598,348.5,248.598,352.5,244.598" style="stroke:#181818;stroke-width:1.0;"/><line style="stroke:#181818;stroke-width:1.0;" x1="59.5" x2="354.5" y1="244.598" y2="244.598"/><text fill="#000000" font-family="sans-serif" font-size="13" lengthAdjust="spacing" textLength="172" x="66.5" y="238.789">Seleciona o Camião desejado</text><polygon fill="#181818" points="70.5,307.716,60.5,311.716,70.5,315.716,66.5,311.716" style="stroke:#181818;stroke-width:1.0;"/><line style="stroke:#181818;stroke-width:1.0;stroke-dasharray:2.0,2.0;" x1="64.5" x2="359.5" y1="311.716" y2="311.716"/><text fill="#000000" font-family="sans-serif" font-size="13" lengthAdjust="spacing" textLength="166" x="76.5" y="270.495">Solicita os dados do Camião</text><text fill="#000000" font-family="sans-serif" font-size="13" font-style="italic" lengthAdjust="spacing" textLength="251" x="76.5" y="288.201">(Tara, Capacidade de Carga, Carga Máxima,</text><text fill="#000000" font-family="sans-serif" font-size="13" font-style="italic" lengthAdjust="spacing" textLength="274" x="76.5" y="305.907">Autonomia, Tempo de Carregamento da Bateria)</text><polygon fill="#181818" points="348.5,339.4221,358.5,343.4221,348.5,347.4221,352.5,343.4221" style="stroke:#181818;stroke-width:1.0;"/><line style="stroke:#181818;stroke-width:1.0;" x1="59.5" x2="354.5" y1="343.4221" y2="343.4221"/><text fill="#000000" font-family="sans-serif" font-size="13" lengthAdjust="spacing" textLength="172" x="66.5" y="337.6131">Fornece os dados do Camião</text><polygon fill="#181818" points="568.5,371.1281,578.5,375.1281,568.5,379.1281,572.5,375.1281" style="stroke:#181818;stroke-width:1.0;"/><line style="stroke:#181818;stroke-width:1.0;" x1="360.5" x2="574.5" y1="375.1281" y2="375.1281"/><text fill="#000000" font-family="sans-serif" font-size="13" lengthAdjust="spacing" textLength="180" x="367.5" y="369.3191">POST /armazem - criar Camião</text><line style="stroke:#181818;stroke-width:1.0;" x1="580.5" x2="622.5" y1="406.8341" y2="406.8341"/><line style="stroke:#181818;stroke-width:1.0;" x1="622.5" x2="622.5" y1="406.8341" y2="419.8341"/><line style="stroke:#181818;stroke-width:1.0;" x1="581.5" x2="622.5" y1="419.8341" y2="419.8341"/><polygon fill="#181818" points="591.5,415.8341,581.5,419.8341,591.5,423.8341,587.5,419.8341" style="stroke:#181818;stroke-width:1.0;"/><text fill="#000000" font-family="sans-serif" font-size="13" lengthAdjust="spacing" textLength="160" x="587.5" y="401.0251">Valida os dados do Camião</text><line style="stroke:#181818;stroke-width:1.0;" x1="580.5" x2="622.5" y1="451.5401" y2="451.5401"/><line style="stroke:#181818;stroke-width:1.0;" x1="622.5" x2="622.5" y1="451.5401" y2="464.5401"/><line style="stroke:#181818;stroke-width:1.0;" x1="581.5" x2="622.5" y1="464.5401" y2="464.5401"/><polygon fill="#181818" points="591.5,460.5401,581.5,464.5401,591.5,468.5401,587.5,464.5401" style="stroke:#181818;stroke-width:1.0;"/><text fill="#000000" font-family="sans-serif" font-size="13" lengthAdjust="spacing" textLength="103" x="587.5" y="445.7311">Regista o Camião</text><polygon fill="#181818" points="371.5,492.2461,361.5,496.2461,371.5,500.2461,367.5,496.2461" style="stroke:#181818;stroke-width:1.0;"/><line style="stroke:#181818;stroke-width:1.0;stroke-dasharray:2.0,2.0;" x1="365.5" x2="579.5" y1="496.2461" y2="496.2461"/><text fill="#000000" font-family="sans-serif" font-size="13" lengthAdjust="spacing" textLength="42" x="377.5" y="490.4371">200 OK</text><polygon fill="#181818" points="70.5,523.9521,60.5,527.9521,70.5,531.9521,66.5,527.9521" style="stroke:#181818;stroke-width:1.0;"/><line style="stroke:#181818;stroke-width:1.0;stroke-dasharray:2.0,2.0;" x1="64.5" x2="359.5" y1="527.9521" y2="527.9521"/><text fill="#000000" font-family="sans-serif" font-size="13" lengthAdjust="spacing" textLength="277" x="76.5" y="522.1431">Confirma que o Camião foi criado com sucesso</text><!--MD5=[12adf1432c6cf1040b2feac70c853d66]
@startuml
actor "Gestor de Frota" as A
participant "<i><<Container>></i>\nUser Interface - SPA" as S
participant "<i><<Container>></i>\nWarehouse Management" as W

A -> S: Inicia a edicão de um Camião
S - -> W: GET /camiao - listar Camião
W - -> S: 200 OK - retorna lista de Camiões
S - -> A: Fornece a lista de Camiões

A -> S: Seleciona o Camião desejado
S - -> A: Solicita os dados do Camião\n<i>(Tara, Capacidade de Carga, Carga Máxima,</i>\n<i>Autonomia, Tempo de Carregamento da Bateria)</i>

A -> S: Fornece os dados do Camião

S -> W: POST /armazem - criar Camião
W -> W: Valida os dados do Camião
W -> W: Regista o Camião
W - -> S: 200 OK
S - -> A: Confirma que o Camião foi criado com sucesso

@enduml

PlantUML version 1.2022.6(Tue Jun 21 18:34:49 WEST 2022)
(GPL source distribution)
Java Runtime: OpenJDK Runtime Environment
JVM: OpenJDK 64-Bit Server VM
Default Encoding: UTF-8
Language: en
Country: US
--></g></svg>