<?xml version="1.0" encoding="UTF-8" standalone="no"?><svg xmlns="http://www.w3.org/2000/svg" xmlns:xlink="http://www.w3.org/1999/xlink" contentStyleType="text/css" height="587px" preserveAspectRatio="none" style="width:1029px;height:587px;background:#FFFFFF;" version="1.1" viewBox="0 0 1029 587" width="1029px" zoomAndPan="magnify"><defs/><g><line style="stroke:#181818;stroke-width:0.5;stroke-dasharray:5.0,5.0;" x1="64" x2="64" y1="81.2969" y2="507.1563"/><line style="stroke:#181818;stroke-width:0.5;stroke-dasharray:5.0,5.0;" x1="458" x2="458" y1="81.2969" y2="507.1563"/><line style="stroke:#181818;stroke-width:0.5;stroke-dasharray:5.0,5.0;" x1="783" x2="783" y1="81.2969" y2="507.1563"/><text fill="#000000" font-family="sans-serif" font-size="14" lengthAdjust="spacing" textLength="113" x="5" y="77.9951">Gestor de Frota</text><ellipse cx="64.5" cy="13.5" fill="#E2E2F0" rx="8" ry="8" style="stroke:#181818;stroke-width:0.5;"/><path d="M64.5,21.5 L64.5,48.5 M51.5,29.5 L77.5,29.5 M64.5,48.5 L51.5,63.5 M64.5,48.5 L77.5,63.5 " fill="none" style="stroke:#181818;stroke-width:0.5;"/><text fill="#000000" font-family="sans-serif" font-size="14" lengthAdjust="spacing" textLength="113" x="5" y="519.1514">Gestor de Frota</text><ellipse cx="64.5" cy="530.9531" fill="#E2E2F0" rx="8" ry="8" style="stroke:#181818;stroke-width:0.5;"/><path d="M64.5,538.9531 L64.5,565.9531 M51.5,546.9531 L77.5,546.9531 M64.5,565.9531 L51.5,580.9531 M64.5,565.9531 L77.5,580.9531 " fill="none" style="stroke:#181818;stroke-width:0.5;"/><rect fill="#E2E2F0" height="46.5938" rx="2.5" ry="2.5" style="stroke:#181818;stroke-width:0.5;" width="157" x="380" y="33.7031"/><text fill="#000000" font-family="sans-serif" font-size="14" font-style="italic" lengthAdjust="spacing" textLength="88" x="414.5" y="53.6982">«Container»</text><text fill="#000000" font-family="sans-serif" font-size="14" lengthAdjust="spacing" textLength="143" x="387" y="69.9951">User Interface - SPA</text><rect fill="#E2E2F0" height="46.5938" rx="2.5" ry="2.5" style="stroke:#181818;stroke-width:0.5;" width="157" x="380" y="506.1563"/><text fill="#000000" font-family="sans-serif" font-size="14" font-style="italic" lengthAdjust="spacing" textLength="88" x="414.5" y="526.1514">«Container»</text><text fill="#000000" font-family="sans-serif" font-size="14" lengthAdjust="spacing" textLength="143" x="387" y="542.4482">User Interface - SPA</text><rect fill="#E2E2F0" height="46.5938" rx="2.5" ry="2.5" style="stroke:#181818;stroke-width:0.5;" width="191" x="688" y="33.7031"/><text fill="#000000" font-family="sans-serif" font-size="14" font-style="italic" lengthAdjust="spacing" textLength="88" x="739.5" y="53.6982">«Container»</text><text fill="#000000" font-family="sans-serif" font-size="14" lengthAdjust="spacing" textLength="177" x="695" y="69.9951">Warehouse Management</text><rect fill="#E2E2F0" height="46.5938" rx="2.5" ry="2.5" style="stroke:#181818;stroke-width:0.5;" width="191" x="688" y="506.1563"/><text fill="#000000" font-family="sans-serif" font-size="14" font-style="italic" lengthAdjust="spacing" textLength="88" x="739.5" y="526.1514">«Container»</text><text fill="#000000" font-family="sans-serif" font-size="14" lengthAdjust="spacing" textLength="177" x="695" y="542.4482">Warehouse Management</text><polygon fill="#181818" points="446.5,108.4297,456.5,112.4297,446.5,116.4297,450.5,112.4297" style="stroke:#181818;stroke-width:1.0;"/><line style="stroke:#181818;stroke-width:1.0;" x1="64.5" x2="452.5" y1="112.4297" y2="112.4297"/><text fill="#000000" font-family="sans-serif" font-size="13" lengthAdjust="spacing" textLength="246" x="71.5" y="107.3638">Inicia a edicão de um Empacotamento</text><polygon fill="#181818" points="771.5,137.5625,781.5,141.5625,771.5,145.5625,775.5,141.5625" style="stroke:#181818;stroke-width:1.0;"/><line style="stroke:#181818;stroke-width:1.0;stroke-dasharray:2.0,2.0;" x1="458.5" x2="777.5" y1="141.5625" y2="141.5625"/><text fill="#000000" font-family="sans-serif" font-size="13" lengthAdjust="spacing" textLength="236" x="465.5" y="136.4966">GET /camiao - listar Empacotamento</text><polygon fill="#181818" points="469.5,166.6953,459.5,170.6953,469.5,174.6953,465.5,170.6953" style="stroke:#181818;stroke-width:1.0;"/><line style="stroke:#181818;stroke-width:1.0;stroke-dasharray:2.0,2.0;" x1="463.5" x2="782.5" y1="170.6953" y2="170.6953"/><text fill="#000000" font-family="sans-serif" font-size="13" lengthAdjust="spacing" textLength="274" x="475.5" y="165.6294">200 OK - retorna lista de Empacotamentos</text><polygon fill="#181818" points="75.5,195.8281,65.5,199.8281,75.5,203.8281,71.5,199.8281" style="stroke:#181818;stroke-width:1.0;"/><line style="stroke:#181818;stroke-width:1.0;stroke-dasharray:2.0,2.0;" x1="69.5" x2="457.5" y1="199.8281" y2="199.8281"/><text fill="#000000" font-family="sans-serif" font-size="13" lengthAdjust="spacing" textLength="231" x="81.5" y="194.7622">Fornece a lista de Empacotamentos</text><polygon fill="#181818" points="446.5,224.9609,456.5,228.9609,446.5,232.9609,450.5,228.9609" style="stroke:#181818;stroke-width:1.0;"/><line style="stroke:#181818;stroke-width:1.0;" x1="64.5" x2="452.5" y1="228.9609" y2="228.9609"/><text fill="#000000" font-family="sans-serif" font-size="13" lengthAdjust="spacing" textLength="246" x="71.5" y="223.895">Seleciona o Empacotamento desejado</text><polygon fill="#181818" points="75.5,284.3594,65.5,288.3594,75.5,292.3594,71.5,288.3594" style="stroke:#181818;stroke-width:1.0;"/><line style="stroke:#181818;stroke-width:1.0;stroke-dasharray:2.0,2.0;" x1="69.5" x2="457.5" y1="288.3594" y2="288.3594"/><text fill="#000000" font-family="sans-serif" font-size="13" lengthAdjust="spacing" textLength="238" x="81.5" y="253.0278">Solicita os dados do Empacotamento</text><text fill="#000000" font-family="sans-serif" font-size="13" font-style="italic" lengthAdjust="spacing" textLength="213" x="81.5" y="268.1606">(Posição X, Posição Y, Posição Z,</text><text fill="#000000" font-family="sans-serif" font-size="13" font-style="italic" lengthAdjust="spacing" textLength="363" x="81.5" y="283.2935">Tempo de colocação, Tempo de retirada, ID da entrega)</text><polygon fill="#181818" points="446.5,313.4922,456.5,317.4922,446.5,321.4922,450.5,317.4922" style="stroke:#181818;stroke-width:1.0;"/><line style="stroke:#181818;stroke-width:1.0;" x1="64.5" x2="452.5" y1="317.4922" y2="317.4922"/><text fill="#000000" font-family="sans-serif" font-size="13" lengthAdjust="spacing" textLength="244" x="71.5" y="312.4263">Fornece os dados do Empacotamento</text><polygon fill="#181818" points="771.5,342.625,781.5,346.625,771.5,350.625,775.5,346.625" style="stroke:#181818;stroke-width:1.0;"/><line style="stroke:#181818;stroke-width:1.0;" x1="458.5" x2="777.5" y1="346.625" y2="346.625"/><text fill="#000000" font-family="sans-serif" font-size="13" lengthAdjust="spacing" textLength="301" x="465.5" y="341.5591">POST /empacotamento - criar Empacotamento</text><line style="stroke:#181818;stroke-width:1.0;" x1="783.5" x2="825.5" y1="375.7578" y2="375.7578"/><line style="stroke:#181818;stroke-width:1.0;" x1="825.5" x2="825.5" y1="375.7578" y2="388.7578"/><line style="stroke:#181818;stroke-width:1.0;" x1="784.5" x2="825.5" y1="388.7578" y2="388.7578"/><polygon fill="#181818" points="794.5,384.7578,784.5,388.7578,794.5,392.7578,790.5,388.7578" style="stroke:#181818;stroke-width:1.0;"/><text fill="#000000" font-family="sans-serif" font-size="13" lengthAdjust="spacing" textLength="232" x="790.5" y="370.6919">Valida os dados do Empacotamento</text><line style="stroke:#181818;stroke-width:1.0;" x1="783.5" x2="825.5" y1="417.8906" y2="417.8906"/><line style="stroke:#181818;stroke-width:1.0;" x1="825.5" x2="825.5" y1="417.8906" y2="430.8906"/><line style="stroke:#181818;stroke-width:1.0;" x1="784.5" x2="825.5" y1="430.8906" y2="430.8906"/><polygon fill="#181818" points="794.5,426.8906,784.5,430.8906,794.5,434.8906,790.5,430.8906" style="stroke:#181818;stroke-width:1.0;"/><text fill="#000000" font-family="sans-serif" font-size="13" lengthAdjust="spacing" textLength="171" x="790.5" y="412.8247">Regista o Empacotamento</text><polygon fill="#181818" points="469.5,456.0234,459.5,460.0234,469.5,464.0234,465.5,460.0234" style="stroke:#181818;stroke-width:1.0;"/><line style="stroke:#181818;stroke-width:1.0;stroke-dasharray:2.0,2.0;" x1="463.5" x2="782.5" y1="460.0234" y2="460.0234"/><text fill="#000000" font-family="sans-serif" font-size="13" lengthAdjust="spacing" textLength="46" x="475.5" y="454.9575">200 OK</text><polygon fill="#181818" points="75.5,485.1563,65.5,489.1563,75.5,493.1563,71.5,489.1563" style="stroke:#181818;stroke-width:1.0;"/><line style="stroke:#181818;stroke-width:1.0;stroke-dasharray:2.0,2.0;" x1="69.5" x2="457.5" y1="489.1563" y2="489.1563"/><text fill="#000000" font-family="sans-serif" font-size="13" lengthAdjust="spacing" textLength="370" x="81.5" y="484.0903">Confirma que o Empacotamento foi editado com sucesso</text><!--MD5=[208356182c02752aab2216375ae8ec92]
@startuml
actor "Gestor de Frota" as A
participant "<i><<Container>></i>\nUser Interface - SPA" as S
participant "<i><<Container>></i>\nWarehouse Management" as W

A -> S: Inicia a edicão de um Empacotamento
S - -> W: GET /camiao - listar Empacotamento
W - -> S: 200 OK - retorna lista de Empacotamentos
S - -> A: Fornece a lista de Empacotamentos

A -> S: Seleciona o Empacotamento desejado
S - -> A: Solicita os dados do Empacotamento\n<i>(Posição X, Posição Y, Posição Z,</i>\n<i>Tempo de colocação, Tempo de retirada, ID da entrega)</i>

A -> S: Fornece os dados do Empacotamento

S -> W: POST /empacotamento - criar Empacotamento
W -> W: Valida os dados do Empacotamento
W -> W: Regista o Empacotamento
W - -> S: 200 OK
S - -> A: Confirma que o Empacotamento foi editado com sucesso
@enduml

PlantUML version 1.2022.13beta5(Unknown compile time)
(GPL source distribution)
Java Runtime: Java(TM) SE Runtime Environment
JVM: Java HotSpot(TM) 64-Bit Server VM
Default Encoding: UTF-8
Language: en
Country: US
--></g></svg>