<?xml version="1.0" encoding="UTF-8" standalone="no"?><svg xmlns="http://www.w3.org/2000/svg" xmlns:xlink="http://www.w3.org/1999/xlink" contentStyleType="text/css" height="491px" preserveAspectRatio="none" style="width:745px;height:491px;background:#FFFFFF;" version="1.1" viewBox="0 0 745 491" width="745px" zoomAndPan="magnify"><defs/><g><rect height="290.336" style="stroke:#000000;stroke-width:1.5;fill:none;" width="728" x="10" y="101.0679"/><line style="stroke:#181818;stroke-width:0.5;fill:none;stroke-dasharray:5.0,5.0;" x1="91" x2="91" y1="84.0679" y2="408.404"/><line style="stroke:#181818;stroke-width:0.5;fill:none;stroke-dasharray:5.0,5.0;" x1="398" x2="398" y1="84.0679" y2="408.404"/><line style="stroke:#181818;stroke-width:0.5;fill:none;stroke-dasharray:5.0,5.0;" x1="636" x2="636" y1="84.0679" y2="408.404"/><text fill="#000000" font-family="sans-serif" font-size="14" lengthAdjust="spacing" textLength="136" x="20" y="79.9659">Gestor de Armazéns</text><ellipse cx="91" cy="13.5" fill="#E2E2F0" rx="8" ry="8" style="stroke:#181818;stroke-width:0.5;"/><path d="M91,21.5 L91,48.5 M78,29.5 L104,29.5 M91,48.5 L78,63.5 M91,48.5 L104,63.5 " fill="none" style="stroke:#181818;stroke-width:0.5;"/><text fill="#000000" font-family="sans-serif" font-size="14" lengthAdjust="spacing" textLength="136" x="20" y="422.3699">Gestor de Armazéns</text><ellipse cx="91" cy="434.9719" fill="#E2E2F0" rx="8" ry="8" style="stroke:#181818;stroke-width:0.5;"/><path d="M91,442.9719 L91,469.9719 M78,450.9719 L104,450.9719 M91,469.9719 L78,484.9719 M91,469.9719 L104,484.9719 " fill="none" style="stroke:#181818;stroke-width:0.5;"/><rect fill="#E2E2F0" height="52.1358" rx="2.5" ry="2.5" style="stroke:#181818;stroke-width:0.5;" width="148" x="324" y="30.9321"/><text fill="#000000" font-family="sans-serif" font-size="14" font-style="italic" lengthAdjust="spacing" textLength="94" x="351" y="52.898">&lt;&lt;Container&gt;&gt;</text><text fill="#000000" font-family="sans-serif" font-size="14" lengthAdjust="spacing" textLength="134" x="331" y="71.9659">User Interface - SPA</text><rect fill="#E2E2F0" height="52.1358" rx="2.5" ry="2.5" style="stroke:#181818;stroke-width:0.5;" width="148" x="324" y="407.404"/><text fill="#000000" font-family="sans-serif" font-size="14" font-style="italic" lengthAdjust="spacing" textLength="94" x="351" y="429.3699">&lt;&lt;Container&gt;&gt;</text><text fill="#000000" font-family="sans-serif" font-size="14" lengthAdjust="spacing" textLength="134" x="331" y="448.4378">User Interface - SPA</text><rect fill="#E2E2F0" height="52.1358" rx="2.5" ry="2.5" style="stroke:#181818;stroke-width:0.5;" width="184" x="544" y="30.9321"/><text fill="#000000" font-family="sans-serif" font-size="14" font-style="italic" lengthAdjust="spacing" textLength="94" x="589" y="52.898">&lt;&lt;Container&gt;&gt;</text><text fill="#000000" font-family="sans-serif" font-size="14" lengthAdjust="spacing" textLength="170" x="551" y="71.9659">Warehouse Management</text><rect fill="#E2E2F0" height="52.1358" rx="2.5" ry="2.5" style="stroke:#181818;stroke-width:0.5;" width="184" x="544" y="407.404"/><text fill="#000000" font-family="sans-serif" font-size="14" font-style="italic" lengthAdjust="spacing" textLength="94" x="589" y="429.3699">&lt;&lt;Container&gt;&gt;</text><text fill="#000000" font-family="sans-serif" font-size="14" lengthAdjust="spacing" textLength="170" x="551" y="448.4378">Warehouse Management</text><path d="M10,101.0679 L73,101.0679 L73,110.7739 L63,120.7739 L10,120.7739 L10,101.0679 " fill="#EEEEEE" style="stroke:#000000;stroke-width:1.5;"/><rect fill="none" height="290.336" style="stroke:#000000;stroke-width:1.5;" width="728" x="10" y="101.0679"/><text fill="#000000" font-family="sans-serif" font-size="13" font-weight="bold" lengthAdjust="spacing" textLength="18" x="25" y="115.9649">alt</text><text fill="#000000" font-family="sans-serif" font-size="11" font-weight="bold" lengthAdjust="spacing" textLength="140" x="88" y="114.8268">[Listar todos os Entregas]</text><polygon fill="#181818" points="386,140.4799,396,144.4799,386,148.4799,390,144.4799" style="stroke:#181818;stroke-width:1.0;"/><line style="stroke:#181818;stroke-width:1.0;" x1="91" x2="392" y1="144.4799" y2="144.4799"/><text fill="#000000" font-family="sans-serif" font-size="13" lengthAdjust="spacing" textLength="243" x="98" y="138.6709">Realiza o pedido de listagem de Entregas</text><polygon fill="#181818" points="624,172.186,634,176.186,624,180.186,628,176.186" style="stroke:#181818;stroke-width:1.0;"/><line style="stroke:#181818;stroke-width:1.0;stroke-dasharray:2.0,2.0;" x1="398" x2="630" y1="176.186" y2="176.186"/><text fill="#000000" font-family="sans-serif" font-size="13" lengthAdjust="spacing" textLength="173" x="405" y="170.377">GET /entrega - listar Entregas</text><polygon fill="#181818" points="409,203.892,399,207.892,409,211.892,405,207.892" style="stroke:#181818;stroke-width:1.0;"/><line style="stroke:#181818;stroke-width:1.0;stroke-dasharray:2.0,2.0;" x1="403" x2="635" y1="207.892" y2="207.892"/><text fill="#000000" font-family="sans-serif" font-size="13" lengthAdjust="spacing" textLength="198" x="415" y="202.083">200 OK - retorna lista de Entregas</text><polygon fill="#181818" points="102,235.598,92,239.598,102,243.598,98,239.598" style="stroke:#181818;stroke-width:1.0;"/><line style="stroke:#181818;stroke-width:1.0;stroke-dasharray:2.0,2.0;" x1="96" x2="397" y1="239.598" y2="239.598"/><text fill="#000000" font-family="sans-serif" font-size="13" lengthAdjust="spacing" textLength="257" x="108" y="233.789">Apresenta uma lista com todos as Entregas</text><line style="stroke:#000000;stroke-width:1.0;stroke-dasharray:2.0,2.0;" x1="10" x2="738" y1="248.598" y2="248.598"/><text fill="#000000" font-family="sans-serif" font-size="11" font-weight="bold" lengthAdjust="spacing" textLength="204" x="15" y="260.3569">[Listar um Entrega por Identificador]</text><polygon fill="#181818" points="386,284.2859,396,288.2859,386,292.2859,390,288.2859" style="stroke:#181818;stroke-width:1.0;"/><line style="stroke:#181818;stroke-width:1.0;" x1="91" x2="392" y1="288.2859" y2="288.2859"/><text fill="#000000" font-family="sans-serif" font-size="13" lengthAdjust="spacing" textLength="237" x="98" y="282.4769">Requer uma Entregas pelo Identificador</text><polygon fill="#181818" points="624,315.9919,634,319.9919,624,323.9919,628,319.9919" style="stroke:#181818;stroke-width:1.0;"/><line style="stroke:#181818;stroke-width:1.0;stroke-dasharray:2.0,2.0;" x1="398" x2="630" y1="319.9919" y2="319.9919"/><text fill="#000000" font-family="sans-serif" font-size="13" lengthAdjust="spacing" textLength="214" x="405" y="314.1829">GET /entrega/{id} - retornar Entrega</text><polygon fill="#181818" points="409,347.6979,399,351.6979,409,355.6979,405,351.6979" style="stroke:#181818;stroke-width:1.0;"/><line style="stroke:#181818;stroke-width:1.0;stroke-dasharray:2.0,2.0;" x1="403" x2="635" y1="351.6979" y2="351.6979"/><text fill="#000000" font-family="sans-serif" font-size="13" lengthAdjust="spacing" textLength="198" x="415" y="345.8889">200 OK - retorna lista de Entregas</text><polygon fill="#181818" points="102,379.404,92,383.404,102,387.404,98,383.404" style="stroke:#181818;stroke-width:1.0;"/><line style="stroke:#181818;stroke-width:1.0;stroke-dasharray:2.0,2.0;" x1="96" x2="397" y1="383.404" y2="383.404"/><text fill="#000000" font-family="sans-serif" font-size="13" lengthAdjust="spacing" textLength="283" x="108" y="377.595">Apresenta todos os dados da Entrega solicitada</text><!--MD5=[5c5a09d3b660906805270e358124e444]
@startuml
actor "Gestor de Armazéns" as A
participant "<i><<Container>></i>\nUser Interface - SPA" as S
participant "<i><<Container>></i>\nWarehouse Management" as W

alt Listar todos os Entregas

	A -> S: Realiza o pedido de listagem de Entregas
	S - -> W: GET /entrega - listar Entregas
	W - -> S: 200 OK - retorna lista de Entregas
	S - -> A: Apresenta uma lista com todos as Entregas

else Listar um Entrega por Identificador

	A -> S: Requer uma Entregas pelo Identificador
	S - -> W: GET /entrega/{id} - retornar Entrega
	W - -> S: 200 OK - retorna lista de Entregas
	S - -> A: Apresenta todos os dados da Entrega solicitada

end

@enduml

PlantUML version 1.2022.6(Tue Jun 21 18:34:49 WEST 2022)
(GPL source distribution)
Java Runtime: OpenJDK Runtime Environment
JVM: OpenJDK 64-Bit Server VM
Default Encoding: UTF-8
Language: en
Country: US
--></g></svg>