<?xml version="1.0" encoding="UTF-8" standalone="no"?><svg xmlns="http://www.w3.org/2000/svg" xmlns:xlink="http://www.w3.org/1999/xlink" contentStyleType="text/css" height="629px" preserveAspectRatio="none" style="width:872px;height:629px;background:#FFFFFF;" version="1.1" viewBox="0 0 872 629" width="872px" zoomAndPan="magnify"><defs/><g><line style="stroke:#181818;stroke-width:0.5;stroke-dasharray:5.0,5.0;" x1="59" x2="59" y1="84.0679" y2="545.9521"/><line style="stroke:#181818;stroke-width:0.5;stroke-dasharray:5.0,5.0;" x1="474.5" x2="474.5" y1="84.0679" y2="545.9521"/><line style="stroke:#181818;stroke-width:0.5;stroke-dasharray:5.0,5.0;" x1="696.5" x2="696.5" y1="84.0679" y2="545.9521"/><text fill="#000000" font-family="sans-serif" font-size="14" lengthAdjust="spacing" textLength="103" x="5" y="79.9659">Gestor de Frota</text><ellipse cx="59.5" cy="13.5" fill="#E2E2F0" rx="8" ry="8" style="stroke:#181818;stroke-width:0.5;"/><path d="M59.5,21.5 L59.5,48.5 M46.5,29.5 L72.5,29.5 M59.5,48.5 L46.5,63.5 M59.5,48.5 L72.5,63.5 " fill="none" style="stroke:#181818;stroke-width:0.5;"/><text fill="#000000" font-family="sans-serif" font-size="14" lengthAdjust="spacing" textLength="103" x="5" y="559.9181">Gestor de Frota</text><ellipse cx="59.5" cy="572.5201" fill="#E2E2F0" rx="8" ry="8" style="stroke:#181818;stroke-width:0.5;"/><path d="M59.5,580.5201 L59.5,607.5201 M46.5,588.5201 L72.5,588.5201 M59.5,607.5201 L46.5,622.5201 M59.5,607.5201 L72.5,622.5201 " fill="none" style="stroke:#181818;stroke-width:0.5;"/><rect fill="#E2E2F0" height="52.1358" rx="2.5" ry="2.5" style="stroke:#181818;stroke-width:0.5;" width="148" x="400.5" y="30.9321"/><text fill="#000000" font-family="sans-serif" font-size="14" font-style="italic" lengthAdjust="spacing" textLength="94" x="427.5" y="52.898">&lt;&lt;Container&gt;&gt;</text><text fill="#000000" font-family="sans-serif" font-size="14" lengthAdjust="spacing" textLength="134" x="407.5" y="71.9659">User Interface - SPA</text><rect fill="#E2E2F0" height="52.1358" rx="2.5" ry="2.5" style="stroke:#181818;stroke-width:0.5;" width="148" x="400.5" y="544.9521"/><text fill="#000000" font-family="sans-serif" font-size="14" font-style="italic" lengthAdjust="spacing" textLength="94" x="427.5" y="566.9181">&lt;&lt;Container&gt;&gt;</text><text fill="#000000" font-family="sans-serif" font-size="14" lengthAdjust="spacing" textLength="134" x="407.5" y="585.986">User Interface - SPA</text><rect fill="#E2E2F0" height="52.1358" rx="2.5" ry="2.5" style="stroke:#181818;stroke-width:0.5;" width="108" x="642.5" y="30.9321"/><text fill="#000000" font-family="sans-serif" font-size="14" font-style="italic" lengthAdjust="spacing" textLength="94" x="649.5" y="52.898">&lt;&lt;Container&gt;&gt;</text><text fill="#000000" font-family="sans-serif" font-size="14" lengthAdjust="spacing" textLength="58" x="667.5" y="71.9659">Logistics</text><rect fill="#E2E2F0" height="52.1358" rx="2.5" ry="2.5" style="stroke:#181818;stroke-width:0.5;" width="108" x="642.5" y="544.9521"/><text fill="#000000" font-family="sans-serif" font-size="14" font-style="italic" lengthAdjust="spacing" textLength="94" x="649.5" y="566.9181">&lt;&lt;Container&gt;&gt;</text><text fill="#000000" font-family="sans-serif" font-size="14" lengthAdjust="spacing" textLength="58" x="667.5" y="585.986">Logistics</text><polygon fill="#181818" points="462.5,113.7739,472.5,117.7739,462.5,121.7739,466.5,117.7739" style="stroke:#181818;stroke-width:1.0;"/><line style="stroke:#181818;stroke-width:1.0;" x1="59.5" x2="468.5" y1="117.7739" y2="117.7739"/><text fill="#000000" font-family="sans-serif" font-size="13" lengthAdjust="spacing" textLength="174" x="66.5" y="111.9649">Inicia a edicão de um Entrega</text><polygon fill="#181818" points="684.5,145.4799,694.5,149.4799,684.5,153.4799,688.5,149.4799" style="stroke:#181818;stroke-width:1.0;"/><line style="stroke:#181818;stroke-width:1.0;stroke-dasharray:2.0,2.0;" x1="474.5" x2="690.5" y1="149.4799" y2="149.4799"/><text fill="#000000" font-family="sans-serif" font-size="13" lengthAdjust="spacing" textLength="167" x="481.5" y="143.6709">GET /entrega - listar Entrega</text><polygon fill="#181818" points="485.5,177.186,475.5,181.186,485.5,185.186,481.5,181.186" style="stroke:#181818;stroke-width:1.0;"/><line style="stroke:#181818;stroke-width:1.0;stroke-dasharray:2.0,2.0;" x1="479.5" x2="695.5" y1="181.186" y2="181.186"/><text fill="#000000" font-family="sans-serif" font-size="13" lengthAdjust="spacing" textLength="198" x="491.5" y="175.377">200 OK - retorna lista de Entregas</text><polygon fill="#181818" points="70.5,208.892,60.5,212.892,70.5,216.892,66.5,212.892" style="stroke:#181818;stroke-width:1.0;"/><line style="stroke:#181818;stroke-width:1.0;stroke-dasharray:2.0,2.0;" x1="64.5" x2="473.5" y1="212.892" y2="212.892"/><text fill="#000000" font-family="sans-serif" font-size="13" lengthAdjust="spacing" textLength="159" x="76.5" y="207.083">Fornece a lista de Entregas</text><polygon fill="#181818" points="462.5,240.598,472.5,244.598,462.5,248.598,466.5,244.598" style="stroke:#181818;stroke-width:1.0;"/><line style="stroke:#181818;stroke-width:1.0;" x1="59.5" x2="468.5" y1="244.598" y2="244.598"/><text fill="#000000" font-family="sans-serif" font-size="13" lengthAdjust="spacing" textLength="174" x="66.5" y="238.789">Seleciona o Entrega desejado</text><polygon fill="#181818" points="70.5,307.716,60.5,311.716,70.5,315.716,66.5,311.716" style="stroke:#181818;stroke-width:1.0;"/><line style="stroke:#181818;stroke-width:1.0;stroke-dasharray:2.0,2.0;" x1="64.5" x2="473.5" y1="311.716" y2="311.716"/><text fill="#000000" font-family="sans-serif" font-size="13" lengthAdjust="spacing" textLength="168" x="76.5" y="270.495">Solicita os dados do Entrega</text><text fill="#000000" font-family="sans-serif" font-size="13" font-style="italic" lengthAdjust="spacing" textLength="368" x="76.5" y="288.201">(ID do Armazém de Partida, ID do Armazém de Partida, Distância,</text><text fill="#000000" font-family="sans-serif" font-size="13" font-style="italic" lengthAdjust="spacing" textLength="391" x="76.5" y="305.907">Energia/Consumo, Tempo de Viagem, Tempo de carregamento extra)</text><polygon fill="#181818" points="462.5,339.4221,472.5,343.4221,462.5,347.4221,466.5,343.4221" style="stroke:#181818;stroke-width:1.0;"/><line style="stroke:#181818;stroke-width:1.0;" x1="59.5" x2="468.5" y1="343.4221" y2="343.4221"/><text fill="#000000" font-family="sans-serif" font-size="13" lengthAdjust="spacing" textLength="174" x="66.5" y="337.6131">Fornece os dados do Entrega</text><polygon fill="#181818" points="684.5,371.1281,694.5,375.1281,684.5,379.1281,688.5,375.1281" style="stroke:#181818;stroke-width:1.0;"/><line style="stroke:#181818;stroke-width:1.0;" x1="474.5" x2="690.5" y1="375.1281" y2="375.1281"/><text fill="#000000" font-family="sans-serif" font-size="13" lengthAdjust="spacing" textLength="173" x="481.5" y="369.3191">POST /entrega - criar Entrega</text><line style="stroke:#181818;stroke-width:1.0;" x1="696.5" x2="738.5" y1="406.8341" y2="406.8341"/><line style="stroke:#181818;stroke-width:1.0;" x1="738.5" x2="738.5" y1="406.8341" y2="419.8341"/><line style="stroke:#181818;stroke-width:1.0;" x1="697.5" x2="738.5" y1="419.8341" y2="419.8341"/><polygon fill="#181818" points="707.5,415.8341,697.5,419.8341,707.5,423.8341,703.5,419.8341" style="stroke:#181818;stroke-width:1.0;"/><text fill="#000000" font-family="sans-serif" font-size="13" lengthAdjust="spacing" textLength="162" x="703.5" y="401.0251">Valida os dados do Entrega</text><line style="stroke:#181818;stroke-width:1.0;" x1="696.5" x2="738.5" y1="451.5401" y2="451.5401"/><line style="stroke:#181818;stroke-width:1.0;" x1="738.5" x2="738.5" y1="451.5401" y2="464.5401"/><line style="stroke:#181818;stroke-width:1.0;" x1="697.5" x2="738.5" y1="464.5401" y2="464.5401"/><polygon fill="#181818" points="707.5,460.5401,697.5,464.5401,707.5,468.5401,703.5,464.5401" style="stroke:#181818;stroke-width:1.0;"/><text fill="#000000" font-family="sans-serif" font-size="13" lengthAdjust="spacing" textLength="105" x="703.5" y="445.7311">Regista o Entrega</text><polygon fill="#181818" points="485.5,492.2461,475.5,496.2461,485.5,500.2461,481.5,496.2461" style="stroke:#181818;stroke-width:1.0;"/><line style="stroke:#181818;stroke-width:1.0;stroke-dasharray:2.0,2.0;" x1="479.5" x2="695.5" y1="496.2461" y2="496.2461"/><text fill="#000000" font-family="sans-serif" font-size="13" lengthAdjust="spacing" textLength="42" x="491.5" y="490.4371">200 OK</text><polygon fill="#181818" points="70.5,523.9521,60.5,527.9521,70.5,531.9521,66.5,527.9521" style="stroke:#181818;stroke-width:1.0;"/><line style="stroke:#181818;stroke-width:1.0;stroke-dasharray:2.0,2.0;" x1="64.5" x2="473.5" y1="527.9521" y2="527.9521"/><text fill="#000000" font-family="sans-serif" font-size="13" lengthAdjust="spacing" textLength="279" x="76.5" y="522.1431">Confirma que o Entrega foi criado com sucesso</text><!--MD5=[4b766357ac19ed0f6a364da85e3515da]
@startuml
actor "Gestor de Frota" as A
participant "<i><<Container>></i>\nUser Interface - SPA" as S
participant "<i><<Container>></i>\nLogistics" as W

A -> S: Inicia a edicão de um Entrega
S - -> W: GET /entrega - listar Entrega
W - -> S: 200 OK - retorna lista de Entregas
S - -> A: Fornece a lista de Entregas

A -> S: Seleciona o Entrega desejado
S - -> A: Solicita os dados do Entrega\n<i>(ID do Armazém de Partida, ID do Armazém de Partida, Distância,</i>\n<i>Energia/Consumo, Tempo de Viagem, Tempo de carregamento extra)</i>

A -> S: Fornece os dados do Entrega

S -> W: POST /entrega - criar Entrega
W -> W: Valida os dados do Entrega
W -> W: Regista o Entrega
W - -> S: 200 OK
S - -> A: Confirma que o Entrega foi criado com sucesso

@enduml

PlantUML version 1.2022.6(Tue Jun 21 18:34:49 WEST 2022)
(GPL source distribution)
Java Runtime: OpenJDK Runtime Environment
JVM: OpenJDK 64-Bit Server VM
Default Encoding: UTF-8
Language: en
Country: US
--></g></svg>