<?xml version="1.0" encoding="UTF-8" standalone="no"?><svg xmlns="http://www.w3.org/2000/svg" xmlns:xlink="http://www.w3.org/1999/xlink" contentStyleType="text/css" height="421px" preserveAspectRatio="none" style="width:640px;height:421px;background:#FFFFFF;" version="1.1" viewBox="0 0 640 421" width="640px" zoomAndPan="magnify"><defs/><g><line style="stroke:#181818;stroke-width:0.5;stroke-dasharray:5.0,5.0;" x1="76" x2="76" y1="84.0679" y2="338.01"/><line style="stroke:#181818;stroke-width:0.5;stroke-dasharray:5.0,5.0;" x1="406.5" x2="406.5" y1="84.0679" y2="338.01"/><text fill="#000000" font-family="sans-serif" font-size="14" lengthAdjust="spacing" textLength="136" x="5" y="79.9659">Gestor de Armazéns</text><ellipse cx="76" cy="13.5" fill="#E2E2F0" rx="8" ry="8" style="stroke:#181818;stroke-width:0.5;"/><path d="M76,21.5 L76,48.5 M63,29.5 L89,29.5 M76,48.5 L63,63.5 M76,48.5 L89,63.5 " fill="none" style="stroke:#181818;stroke-width:0.5;"/><text fill="#000000" font-family="sans-serif" font-size="14" lengthAdjust="spacing" textLength="136" x="5" y="351.976">Gestor de Armazéns</text><ellipse cx="76" cy="364.5779" fill="#E2E2F0" rx="8" ry="8" style="stroke:#181818;stroke-width:0.5;"/><path d="M76,372.5779 L76,399.5779 M63,380.5779 L89,380.5779 M76,399.5779 L63,414.5779 M76,399.5779 L89,414.5779 " fill="none" style="stroke:#181818;stroke-width:0.5;"/><rect fill="#E2E2F0" height="33.0679" rx="2.5" ry="2.5" style="stroke:#181818;stroke-width:0.5;" width="157" x="328.5" y="50"/><text fill="#000000" font-family="sans-serif" font-size="14" font-style="italic" lengthAdjust="spacing" textLength="76" x="335.5" y="71.9659">&lt;&lt;System&gt;&gt;</text><text fill="#000000" font-family="sans-serif" font-size="14" lengthAdjust="spacing" textLength="67" x="411.5" y="71.9659">ElectricGo</text><rect fill="#E2E2F0" height="33.0679" rx="2.5" ry="2.5" style="stroke:#181818;stroke-width:0.5;" width="157" x="328.5" y="337.01"/><text fill="#000000" font-family="sans-serif" font-size="14" font-style="italic" lengthAdjust="spacing" textLength="76" x="335.5" y="358.976">&lt;&lt;System&gt;&gt;</text><text fill="#000000" font-family="sans-serif" font-size="14" lengthAdjust="spacing" textLength="67" x="411.5" y="358.976">ElectricGo</text><polygon fill="#181818" points="395,113.7739,405,117.7739,395,121.7739,399,117.7739" style="stroke:#181818;stroke-width:1.0;"/><line style="stroke:#181818;stroke-width:1.0;" x1="76" x2="401" y1="117.7739" y2="117.7739"/><text fill="#000000" font-family="sans-serif" font-size="13" lengthAdjust="spacing" textLength="251" x="83" y="111.9649">Inicia o pedido de criacao de um Armazém</text><polygon fill="#181818" points="87,163.186,77,167.186,87,171.186,83,167.186" style="stroke:#181818;stroke-width:1.0;"/><line style="stroke:#181818;stroke-width:1.0;stroke-dasharray:2.0,2.0;" x1="81" x2="406" y1="167.186" y2="167.186"/><text fill="#000000" font-family="sans-serif" font-size="13" lengthAdjust="spacing" textLength="178" x="93" y="143.6709">Solicita os dados do Armazém</text><text fill="#000000" font-family="sans-serif" font-size="13" lengthAdjust="spacing" textLength="307" x="93" y="161.377">(Identificador, Designacao, Endereco, Coordenadas)</text><polygon fill="#181818" points="395,194.892,405,198.892,395,202.892,399,198.892" style="stroke:#181818;stroke-width:1.0;"/><line style="stroke:#181818;stroke-width:1.0;" x1="76" x2="401" y1="198.892" y2="198.892"/><text fill="#000000" font-family="sans-serif" font-size="13" lengthAdjust="spacing" textLength="184" x="83" y="193.083">Fornece os dados do Armazém</text><line style="stroke:#181818;stroke-width:1.0;" x1="407" x2="449" y1="230.598" y2="230.598"/><line style="stroke:#181818;stroke-width:1.0;" x1="449" x2="449" y1="230.598" y2="243.598"/><line style="stroke:#181818;stroke-width:1.0;" x1="408" x2="449" y1="243.598" y2="243.598"/><polygon fill="#181818" points="418,239.598,408,243.598,418,247.598,414,243.598" style="stroke:#181818;stroke-width:1.0;"/><text fill="#000000" font-family="sans-serif" font-size="13" lengthAdjust="spacing" textLength="219" x="414" y="224.789">Verifica/valida os dados do Armazém</text><line style="stroke:#181818;stroke-width:1.0;" x1="407" x2="449" y1="275.304" y2="275.304"/><line style="stroke:#181818;stroke-width:1.0;" x1="449" x2="449" y1="275.304" y2="288.304"/><line style="stroke:#181818;stroke-width:1.0;" x1="408" x2="449" y1="288.304" y2="288.304"/><polygon fill="#181818" points="418,284.304,408,288.304,418,292.304,414,288.304" style="stroke:#181818;stroke-width:1.0;"/><text fill="#000000" font-family="sans-serif" font-size="13" lengthAdjust="spacing" textLength="115" x="414" y="269.495">Regista o Armazém</text><polygon fill="#181818" points="87,316.01,77,320.01,87,324.01,83,320.01" style="stroke:#181818;stroke-width:1.0;"/><line style="stroke:#181818;stroke-width:1.0;stroke-dasharray:2.0,2.0;" x1="81" x2="406" y1="320.01" y2="320.01"/><text fill="#000000" font-family="sans-serif" font-size="13" lengthAdjust="spacing" textLength="289" x="93" y="314.201">Confirma que o Armazém foi criado com sucesso</text><!--MD5=[ecccc8df4c15eb095ba08d977fe99fb4]
@startuml
actor "Gestor de Armazéns" as A
participant "<i><<System>></i>ElectricGo" as S

A -> S: Inicia o pedido de criacao de um Armazém
S - -> A: Solicita os dados do Armazém\n(Identificador, Designacao, Endereco, Coordenadas)

A -> S: Fornece os dados do Armazém
S -> S: Verifica/valida os dados do Armazém
S -> S: Regista o Armazém
S - -> A: Confirma que o Armazém foi criado com sucesso

@enduml

PlantUML version 1.2022.6(Tue Jun 21 18:34:49 WEST 2022)
(GPL source distribution)
Java Runtime: OpenJDK Runtime Environment
JVM: OpenJDK 64-Bit Server VM
Default Encoding: UTF-8
Language: en
Country: US
--></g></svg>