<?xml version="1.0" encoding="UTF-8" standalone="no"?><svg xmlns="http://www.w3.org/2000/svg" xmlns:xlink="http://www.w3.org/1999/xlink" contentStyleType="text/css" height="501px" preserveAspectRatio="none" style="width:600px;height:501px;background:#FFFFFF;" version="1.1" viewBox="0 0 600 501" width="600px" zoomAndPan="magnify"><defs/><g><line style="stroke:#181818;stroke-width:0.5;stroke-dasharray:5.0,5.0;" x1="76" x2="76" y1="84.0679" y2="418.1281"/><line style="stroke:#181818;stroke-width:0.5;stroke-dasharray:5.0,5.0;" x1="377.5" x2="377.5" y1="84.0679" y2="418.1281"/><text fill="#000000" font-family="sans-serif" font-size="14" lengthAdjust="spacing" textLength="136" x="5" y="79.9659">Gestor de Armazéns</text><ellipse cx="76" cy="13.5" fill="#E2E2F0" rx="8" ry="8" style="stroke:#181818;stroke-width:0.5;"/><path d="M76,21.5 L76,48.5 M63,29.5 L89,29.5 M76,48.5 L63,63.5 M76,48.5 L89,63.5 " fill="none" style="stroke:#181818;stroke-width:0.5;"/><text fill="#000000" font-family="sans-serif" font-size="14" lengthAdjust="spacing" textLength="136" x="5" y="432.094">Gestor de Armazéns</text><ellipse cx="76" cy="444.696" fill="#E2E2F0" rx="8" ry="8" style="stroke:#181818;stroke-width:0.5;"/><path d="M76,452.696 L76,479.696 M63,460.696 L89,460.696 M76,479.696 L63,494.696 M76,479.696 L89,494.696 " fill="none" style="stroke:#181818;stroke-width:0.5;"/><rect fill="#E2E2F0" height="33.0679" rx="2.5" ry="2.5" style="stroke:#181818;stroke-width:0.5;" width="157" x="299.5" y="50"/><text fill="#000000" font-family="sans-serif" font-size="14" font-style="italic" lengthAdjust="spacing" textLength="76" x="306.5" y="71.9659">&lt;&lt;System&gt;&gt;</text><text fill="#000000" font-family="sans-serif" font-size="14" lengthAdjust="spacing" textLength="67" x="382.5" y="71.9659">ElectricGo</text><rect fill="#E2E2F0" height="33.0679" rx="2.5" ry="2.5" style="stroke:#181818;stroke-width:0.5;" width="157" x="299.5" y="417.1281"/><text fill="#000000" font-family="sans-serif" font-size="14" font-style="italic" lengthAdjust="spacing" textLength="76" x="306.5" y="439.094">&lt;&lt;System&gt;&gt;</text><text fill="#000000" font-family="sans-serif" font-size="14" lengthAdjust="spacing" textLength="67" x="382.5" y="439.094">ElectricGo</text><polygon fill="#181818" points="366,113.7739,376,117.7739,366,121.7739,370,117.7739" style="stroke:#181818;stroke-width:1.0;"/><line style="stroke:#181818;stroke-width:1.0;" x1="76" x2="372" y1="117.7739" y2="117.7739"/><text fill="#000000" font-family="sans-serif" font-size="13" lengthAdjust="spacing" textLength="248" x="83" y="111.9649">Inicia o pedido de criacao de uma Entrega</text><polygon fill="#181818" points="87,198.598,77,202.598,87,206.598,83,202.598" style="stroke:#181818;stroke-width:1.0;"/><line style="stroke:#181818;stroke-width:1.0;stroke-dasharray:2.0,2.0;" x1="81" x2="377" y1="202.598" y2="202.598"/><text fill="#000000" font-family="sans-serif" font-size="13" lengthAdjust="spacing" textLength="167" x="93" y="143.6709">Solicita os dados da Entrega</text><text fill="#000000" font-family="sans-serif" font-size="13" font-style="italic" lengthAdjust="spacing" textLength="233" x="93" y="161.377">(Identificador, Data, Armazém de Partida,</text><text fill="#000000" font-family="sans-serif" font-size="13" font-style="italic" lengthAdjust="spacing" textLength="196" x="93" y="179.083">Armazém de Entrega, Massa/peso,</text><text fill="#000000" font-family="sans-serif" font-size="13" font-style="italic" lengthAdjust="spacing" textLength="257" x="93" y="196.789">Tempo de Carregamento, Tempo de Retirada)</text><polygon fill="#181818" points="366,230.304,376,234.304,366,238.304,370,234.304" style="stroke:#181818;stroke-width:1.0;"/><line style="stroke:#181818;stroke-width:1.0;" x1="76" x2="372" y1="234.304" y2="234.304"/><text fill="#000000" font-family="sans-serif" font-size="13" lengthAdjust="spacing" textLength="173" x="83" y="228.495">Fornece os dados da Entrega</text><line style="stroke:#181818;stroke-width:1.0;" x1="378" x2="420" y1="266.01" y2="266.01"/><line style="stroke:#181818;stroke-width:1.0;" x1="420" x2="420" y1="266.01" y2="279.01"/><line style="stroke:#181818;stroke-width:1.0;" x1="379" x2="420" y1="279.01" y2="279.01"/><polygon fill="#181818" points="389,275.01,379,279.01,389,283.01,385,279.01" style="stroke:#181818;stroke-width:1.0;"/><text fill="#000000" font-family="sans-serif" font-size="13" lengthAdjust="spacing" textLength="208" x="385" y="260.201">Verifica/valida os dados da Entrega</text><line style="stroke:#181818;stroke-width:1.0;" x1="378" x2="420" y1="310.716" y2="310.716"/><line style="stroke:#181818;stroke-width:1.0;" x1="420" x2="420" y1="310.716" y2="323.716"/><line style="stroke:#181818;stroke-width:1.0;" x1="379" x2="420" y1="323.716" y2="323.716"/><polygon fill="#181818" points="389,319.716,379,323.716,389,327.716,385,323.716" style="stroke:#181818;stroke-width:1.0;"/><text fill="#000000" font-family="sans-serif" font-size="13" lengthAdjust="spacing" textLength="188" x="385" y="304.907">Valida a existência das Entregas</text><line style="stroke:#181818;stroke-width:1.0;" x1="378" x2="420" y1="355.4221" y2="355.4221"/><line style="stroke:#181818;stroke-width:1.0;" x1="420" x2="420" y1="355.4221" y2="368.4221"/><line style="stroke:#181818;stroke-width:1.0;" x1="379" x2="420" y1="368.4221" y2="368.4221"/><polygon fill="#181818" points="389,364.4221,379,368.4221,389,372.4221,385,368.4221" style="stroke:#181818;stroke-width:1.0;"/><text fill="#000000" font-family="sans-serif" font-size="13" lengthAdjust="spacing" textLength="104" x="385" y="349.6131">Regista a Entrega</text><polygon fill="#181818" points="87,396.1281,77,400.1281,87,404.1281,83,400.1281" style="stroke:#181818;stroke-width:1.0;"/><line style="stroke:#181818;stroke-width:1.0;stroke-dasharray:2.0,2.0;" x1="81" x2="377" y1="400.1281" y2="400.1281"/><text fill="#000000" font-family="sans-serif" font-size="13" lengthAdjust="spacing" textLength="278" x="93" y="394.3191">Confirma que a Entrega foi criado com sucesso</text><!--MD5=[c7524c69516488f0ab4888d862de3284]
@startuml
actor "Gestor de Armazéns" as A
participant "<i><<System>></i>ElectricGo" as S

A -> S: Inicia o pedido de criacao de uma Entrega
S - -> A: Solicita os dados da Entrega\n<i>(Identificador, Data, Armazém de Partida,</i>\n<i>Armazém de Entrega, Massa/peso,</i>\n<i>Tempo de Carregamento, Tempo de Retirada)</i>

A -> S: Fornece os dados da Entrega
S -> S: Verifica/valida os dados da Entrega
S -> S: Valida a existência das Entregas
S -> S: Regista a Entrega
S - -> A: Confirma que a Entrega foi criado com sucesso

@enduml

PlantUML version 1.2022.6(Tue Jun 21 18:34:49 WEST 2022)
(GPL source distribution)
Java Runtime: OpenJDK Runtime Environment
JVM: OpenJDK 64-Bit Server VM
Default Encoding: UTF-8
Language: en
Country: US
--></g></svg>