<?xml version="1.0" encoding="UTF-8" standalone="no"?><svg xmlns="http://www.w3.org/2000/svg" xmlns:xlink="http://www.w3.org/1999/xlink" contentStyleType="text/css" height="484px" preserveAspectRatio="none" style="width:631px;height:484px;background:#FFFFFF;" version="1.1" viewBox="0 0 631 484" width="631px" zoomAndPan="magnify"><defs/><g><line style="stroke:#181818;stroke-width:0.5;stroke-dasharray:5.0,5.0;" x1="76" x2="76" y1="84.0679" y2="401.4221"/><line style="stroke:#181818;stroke-width:0.5;stroke-dasharray:5.0,5.0;" x1="397.5" x2="397.5" y1="84.0679" y2="401.4221"/><text fill="#000000" font-family="sans-serif" font-size="14" lengthAdjust="spacing" textLength="136" x="5" y="79.9659">Gestor de Armazéns</text><ellipse cx="76" cy="13.5" fill="#E2E2F0" rx="8" ry="8" style="stroke:#181818;stroke-width:0.5;"/><path d="M76,21.5 L76,48.5 M63,29.5 L89,29.5 M76,48.5 L63,63.5 M76,48.5 L89,63.5 " fill="none" style="stroke:#181818;stroke-width:0.5;"/><text fill="#000000" font-family="sans-serif" font-size="14" lengthAdjust="spacing" textLength="136" x="5" y="415.388">Gestor de Armazéns</text><ellipse cx="76" cy="427.99" fill="#E2E2F0" rx="8" ry="8" style="stroke:#181818;stroke-width:0.5;"/><path d="M76,435.99 L76,462.99 M63,443.99 L89,443.99 M76,462.99 L63,477.99 M76,462.99 L89,477.99 " fill="none" style="stroke:#181818;stroke-width:0.5;"/><rect fill="#E2E2F0" height="33.0679" rx="2.5" ry="2.5" style="stroke:#181818;stroke-width:0.5;" width="157" x="319.5" y="50"/><text fill="#000000" font-family="sans-serif" font-size="14" font-style="italic" lengthAdjust="spacing" textLength="76" x="326.5" y="71.9659">&lt;&lt;System&gt;&gt;</text><text fill="#000000" font-family="sans-serif" font-size="14" lengthAdjust="spacing" textLength="67" x="402.5" y="71.9659">ElectricGo</text><rect fill="#E2E2F0" height="33.0679" rx="2.5" ry="2.5" style="stroke:#181818;stroke-width:0.5;" width="157" x="319.5" y="400.4221"/><text fill="#000000" font-family="sans-serif" font-size="14" font-style="italic" lengthAdjust="spacing" textLength="76" x="326.5" y="422.388">&lt;&lt;System&gt;&gt;</text><text fill="#000000" font-family="sans-serif" font-size="14" lengthAdjust="spacing" textLength="67" x="402.5" y="422.388">ElectricGo</text><polygon fill="#181818" points="386,113.7739,396,117.7739,386,121.7739,390,117.7739" style="stroke:#181818;stroke-width:1.0;"/><line style="stroke:#181818;stroke-width:1.0;" x1="76" x2="392" y1="117.7739" y2="117.7739"/><text fill="#000000" font-family="sans-serif" font-size="13" lengthAdjust="spacing" textLength="185" x="83" y="111.9649">Inicia o edicão de um Armazém</text><polygon fill="#181818" points="87,145.4799,77,149.4799,87,153.4799,83,149.4799" style="stroke:#181818;stroke-width:1.0;"/><line style="stroke:#181818;stroke-width:1.0;stroke-dasharray:2.0,2.0;" x1="81" x2="397" y1="149.4799" y2="149.4799"/><text fill="#000000" font-family="sans-serif" font-size="13" lengthAdjust="spacing" textLength="165" x="93" y="143.6709">Fornece a lista de Armazéns</text><polygon fill="#181818" points="386,177.186,396,181.186,386,185.186,390,181.186" style="stroke:#181818;stroke-width:1.0;"/><line style="stroke:#181818;stroke-width:1.0;" x1="76" x2="392" y1="181.186" y2="181.186"/><text fill="#000000" font-family="sans-serif" font-size="13" lengthAdjust="spacing" textLength="184" x="83" y="175.377">Seleciona o Armazém desejado</text><polygon fill="#181818" points="87,226.598,77,230.598,87,234.598,83,230.598" style="stroke:#181818;stroke-width:1.0;"/><line style="stroke:#181818;stroke-width:1.0;stroke-dasharray:2.0,2.0;" x1="81" x2="397" y1="230.598" y2="230.598"/><text fill="#000000" font-family="sans-serif" font-size="13" lengthAdjust="spacing" textLength="178" x="93" y="207.083">Solicita os dados do Armazém</text><text fill="#000000" font-family="sans-serif" font-size="13" lengthAdjust="spacing" textLength="225" x="93" y="224.789">(Designacao, Endereco, Coordenadas)</text><polygon fill="#181818" points="386,258.304,396,262.304,386,266.304,390,262.304" style="stroke:#181818;stroke-width:1.0;"/><line style="stroke:#181818;stroke-width:1.0;" x1="76" x2="392" y1="262.304" y2="262.304"/><text fill="#000000" font-family="sans-serif" font-size="13" lengthAdjust="spacing" textLength="184" x="83" y="256.495">Fornece os dados do Armazém</text><line style="stroke:#181818;stroke-width:1.0;" x1="398" x2="440" y1="294.01" y2="294.01"/><line style="stroke:#181818;stroke-width:1.0;" x1="440" x2="440" y1="294.01" y2="307.01"/><line style="stroke:#181818;stroke-width:1.0;" x1="399" x2="440" y1="307.01" y2="307.01"/><polygon fill="#181818" points="409,303.01,399,307.01,409,311.01,405,307.01" style="stroke:#181818;stroke-width:1.0;"/><text fill="#000000" font-family="sans-serif" font-size="13" lengthAdjust="spacing" textLength="219" x="405" y="288.201">Verifica/valida os dados do Armazém</text><line style="stroke:#181818;stroke-width:1.0;" x1="398" x2="440" y1="338.716" y2="338.716"/><line style="stroke:#181818;stroke-width:1.0;" x1="440" x2="440" y1="338.716" y2="351.716"/><line style="stroke:#181818;stroke-width:1.0;" x1="399" x2="440" y1="351.716" y2="351.716"/><polygon fill="#181818" points="409,347.716,399,351.716,409,355.716,405,351.716" style="stroke:#181818;stroke-width:1.0;"/><text fill="#000000" font-family="sans-serif" font-size="13" lengthAdjust="spacing" textLength="115" x="405" y="332.907">Regista o Armazém</text><polygon fill="#181818" points="87,379.4221,77,383.4221,87,387.4221,83,383.4221" style="stroke:#181818;stroke-width:1.0;"/><line style="stroke:#181818;stroke-width:1.0;stroke-dasharray:2.0,2.0;" x1="81" x2="397" y1="383.4221" y2="383.4221"/><text fill="#000000" font-family="sans-serif" font-size="13" lengthAdjust="spacing" textLength="298" x="93" y="377.6131">Confirma que o Armazém foi editado com sucesso</text><!--MD5=[169426d47ad70e3a49002cc466fcddbd]
@startuml
actor "Gestor de Armazéns" as A
participant "<i><<System>></i>ElectricGo" as S

A -> S: Inicia o edicão de um Armazém
S - -> A: Fornece a lista de Armazéns

A -> S: Seleciona o Armazém desejado
S - -> A: Solicita os dados do Armazém\n(Designacao, Endereco, Coordenadas)

A -> S: Fornece os dados do Armazém
S -> S: Verifica/valida os dados do Armazém
S -> S: Regista o Armazém
S - -> A: Confirma que o Armazém foi editado com sucesso

@enduml

PlantUML version 1.2022.6(Tue Jun 21 18:34:49 WEST 2022)
(GPL source distribution)
Java Runtime: OpenJDK Runtime Environment
JVM: OpenJDK 64-Bit Server VM
Default Encoding: UTF-8
Language: en
Country: US
--></g></svg>