<?xml version="1.0" encoding="UTF-8" standalone="no"?><svg xmlns="http://www.w3.org/2000/svg" xmlns:xlink="http://www.w3.org/1999/xlink" contentStyleType="text/css" height="502px" preserveAspectRatio="none" style="width:590px;height:502px;background:#FFFFFF;" version="1.1" viewBox="0 0 590 502" width="590px" zoomAndPan="magnify"><defs/><g><line style="stroke:#181818;stroke-width:0.5;stroke-dasharray:5.0,5.0;" x1="59" x2="59" y1="84.0679" y2="419.1281"/><line style="stroke:#181818;stroke-width:0.5;stroke-dasharray:5.0,5.0;" x1="369" x2="369" y1="84.0679" y2="419.1281"/><text fill="#000000" font-family="sans-serif" font-size="14" lengthAdjust="spacing" textLength="103" x="5" y="79.9659">Gestor de Frota</text><ellipse cx="59.5" cy="13.5" fill="#E2E2F0" rx="8" ry="8" style="stroke:#181818;stroke-width:0.5;"/><path d="M59.5,21.5 L59.5,48.5 M46.5,29.5 L72.5,29.5 M59.5,48.5 L46.5,63.5 M59.5,48.5 L72.5,63.5 " fill="none" style="stroke:#181818;stroke-width:0.5;"/><text fill="#000000" font-family="sans-serif" font-size="14" lengthAdjust="spacing" textLength="103" x="5" y="433.094">Gestor de Frota</text><ellipse cx="59.5" cy="445.696" fill="#E2E2F0" rx="8" ry="8" style="stroke:#181818;stroke-width:0.5;"/><path d="M59.5,453.696 L59.5,480.696 M46.5,461.696 L72.5,461.696 M59.5,480.696 L46.5,495.696 M59.5,480.696 L72.5,495.696 " fill="none" style="stroke:#181818;stroke-width:0.5;"/><rect fill="#E2E2F0" height="33.0679" rx="2.5" ry="2.5" style="stroke:#181818;stroke-width:0.5;" width="157" x="291" y="50"/><text fill="#000000" font-family="sans-serif" font-size="14" font-style="italic" lengthAdjust="spacing" textLength="76" x="298" y="71.9659">&lt;&lt;System&gt;&gt;</text><text fill="#000000" font-family="sans-serif" font-size="14" lengthAdjust="spacing" textLength="67" x="374" y="71.9659">ElectricGo</text><rect fill="#E2E2F0" height="33.0679" rx="2.5" ry="2.5" style="stroke:#181818;stroke-width:0.5;" width="157" x="291" y="418.1281"/><text fill="#000000" font-family="sans-serif" font-size="14" font-style="italic" lengthAdjust="spacing" textLength="76" x="298" y="440.094">&lt;&lt;System&gt;&gt;</text><text fill="#000000" font-family="sans-serif" font-size="14" lengthAdjust="spacing" textLength="67" x="374" y="440.094">ElectricGo</text><polygon fill="#181818" points="357.5,113.7739,367.5,117.7739,357.5,121.7739,361.5,117.7739" style="stroke:#181818;stroke-width:1.0;"/><line style="stroke:#181818;stroke-width:1.0;" x1="59.5" x2="363.5" y1="117.7739" y2="117.7739"/><text fill="#000000" font-family="sans-serif" font-size="13" lengthAdjust="spacing" textLength="172" x="66.5" y="111.9649">Inicia a edicão de um Camião</text><polygon fill="#181818" points="70.5,145.4799,60.5,149.4799,70.5,153.4799,66.5,149.4799" style="stroke:#181818;stroke-width:1.0;"/><line style="stroke:#181818;stroke-width:1.0;stroke-dasharray:2.0,2.0;" x1="64.5" x2="368.5" y1="149.4799" y2="149.4799"/><text fill="#000000" font-family="sans-serif" font-size="13" lengthAdjust="spacing" textLength="157" x="76.5" y="143.6709">Fornece a lista de Camiões</text><polygon fill="#181818" points="357.5,177.186,367.5,181.186,357.5,185.186,361.5,181.186" style="stroke:#181818;stroke-width:1.0;"/><line style="stroke:#181818;stroke-width:1.0;" x1="59.5" x2="363.5" y1="181.186" y2="181.186"/><text fill="#000000" font-family="sans-serif" font-size="13" lengthAdjust="spacing" textLength="172" x="66.5" y="175.377">Seleciona o Camião desejado</text><polygon fill="#181818" points="70.5,244.304,60.5,248.304,70.5,252.304,66.5,248.304" style="stroke:#181818;stroke-width:1.0;"/><line style="stroke:#181818;stroke-width:1.0;stroke-dasharray:2.0,2.0;" x1="64.5" x2="368.5" y1="248.304" y2="248.304"/><text fill="#000000" font-family="sans-serif" font-size="13" lengthAdjust="spacing" textLength="166" x="76.5" y="207.083">Solicita os dados do Camião</text><text fill="#000000" font-family="sans-serif" font-size="13" font-style="italic" lengthAdjust="spacing" textLength="251" x="76.5" y="224.789">(Tara, Capacidade de Carga, Carga Máxima,</text><text fill="#000000" font-family="sans-serif" font-size="13" font-style="italic" lengthAdjust="spacing" textLength="274" x="76.5" y="242.495">Autonomia, Tempo de Carregamento da Bateria)</text><polygon fill="#181818" points="357.5,276.01,367.5,280.01,357.5,284.01,361.5,280.01" style="stroke:#181818;stroke-width:1.0;"/><line style="stroke:#181818;stroke-width:1.0;" x1="59.5" x2="363.5" y1="280.01" y2="280.01"/><text fill="#000000" font-family="sans-serif" font-size="13" lengthAdjust="spacing" textLength="172" x="66.5" y="274.201">Fornece os dados do Camião</text><line style="stroke:#181818;stroke-width:1.0;" x1="369.5" x2="411.5" y1="311.716" y2="311.716"/><line style="stroke:#181818;stroke-width:1.0;" x1="411.5" x2="411.5" y1="311.716" y2="324.716"/><line style="stroke:#181818;stroke-width:1.0;" x1="370.5" x2="411.5" y1="324.716" y2="324.716"/><polygon fill="#181818" points="380.5,320.716,370.5,324.716,380.5,328.716,376.5,324.716" style="stroke:#181818;stroke-width:1.0;"/><text fill="#000000" font-family="sans-serif" font-size="13" lengthAdjust="spacing" textLength="207" x="376.5" y="305.907">Verifica/valida os dados do Camião</text><line style="stroke:#181818;stroke-width:1.0;" x1="369.5" x2="411.5" y1="356.4221" y2="356.4221"/><line style="stroke:#181818;stroke-width:1.0;" x1="411.5" x2="411.5" y1="356.4221" y2="369.4221"/><line style="stroke:#181818;stroke-width:1.0;" x1="370.5" x2="411.5" y1="369.4221" y2="369.4221"/><polygon fill="#181818" points="380.5,365.4221,370.5,369.4221,380.5,373.4221,376.5,369.4221" style="stroke:#181818;stroke-width:1.0;"/><text fill="#000000" font-family="sans-serif" font-size="13" lengthAdjust="spacing" textLength="103" x="376.5" y="350.6131">Regista o Camião</text><polygon fill="#181818" points="70.5,397.1281,60.5,401.1281,70.5,405.1281,66.5,401.1281" style="stroke:#181818;stroke-width:1.0;"/><line style="stroke:#181818;stroke-width:1.0;stroke-dasharray:2.0,2.0;" x1="64.5" x2="368.5" y1="401.1281" y2="401.1281"/><text fill="#000000" font-family="sans-serif" font-size="13" lengthAdjust="spacing" textLength="286" x="76.5" y="395.3191">Confirma que o Camião foi editado com sucesso</text><!--MD5=[90d3c38eca555e4f4db41895314c7656]
@startuml
actor "Gestor de Frota" as A
participant "<i><<System>></i>ElectricGo" as S

A -> S: Inicia a edicão de um Camião
S - -> A: Fornece a lista de Camiões

A -> S: Seleciona o Camião desejado
S - -> A: Solicita os dados do Camião\n<i>(Tara, Capacidade de Carga, Carga Máxima,</i>\n<i>Autonomia, Tempo de Carregamento da Bateria)</i>

A -> S: Fornece os dados do Camião
S -> S: Verifica/valida os dados do Camião
S -> S: Regista o Camião
S - -> A: Confirma que o Camião foi editado com sucesso

@enduml

PlantUML version 1.2022.6(Tue Jun 21 18:34:49 WEST 2022)
(GPL source distribution)
Java Runtime: OpenJDK Runtime Environment
JVM: OpenJDK 64-Bit Server VM
Default Encoding: UTF-8
Language: en
Country: US
--></g></svg>