<?xml version="1.0" encoding="UTF-8" standalone="no"?><svg xmlns="http://www.w3.org/2000/svg" xmlns:xlink="http://www.w3.org/1999/xlink" contentStyleType="text/css" height="337px" preserveAspectRatio="none" style="width:583px;height:337px;background:#FFFFFF;" version="1.1" viewBox="0 0 583 337" width="583px" zoomAndPan="magnify"><defs/><g><line style="stroke:#181818;stroke-width:0.5;stroke-dasharray:5.0,5.0;" x1="77" x2="77" y1="81.2969" y2="256.7656"/><line style="stroke:#181818;stroke-width:0.5;stroke-dasharray:5.0,5.0;" x1="485.5" x2="485.5" y1="81.2969" y2="256.7656"/><text fill="#000000" font-family="sans-serif" font-size="14" lengthAdjust="spacing" textLength="108" x="20" y="77.9951">Gestor de Frota</text><ellipse cx="77" cy="13.5" fill="#E2E2F0" rx="8" ry="8" style="stroke:#181818;stroke-width:0.5;"/><path d="M77,21.5 L77,48.5 M64,29.5 L90,29.5 M77,48.5 L64,63.5 M77,48.5 L90,63.5 " fill="none" style="stroke:#181818;stroke-width:0.5;"/><text fill="#000000" font-family="sans-serif" font-size="14" lengthAdjust="spacing" textLength="108" x="20" y="268.7607">Gestor de Frota</text><ellipse cx="77" cy="280.5625" fill="#E2E2F0" rx="8" ry="8" style="stroke:#181818;stroke-width:0.5;"/><path d="M77,288.5625 L77,315.5625 M64,296.5625 L90,296.5625 M77,315.5625 L64,330.5625 M77,315.5625 L90,330.5625 " fill="none" style="stroke:#181818;stroke-width:0.5;"/><rect fill="#E2E2F0" height="30.2969" rx="2.5" ry="2.5" style="stroke:#181818;stroke-width:0.5;" width="183" x="394.5" y="50"/><text fill="#000000" font-family="sans-serif" font-size="14" font-style="italic" lengthAdjust="spacing" textLength="99" x="401.5" y="69.9951">&lt;&lt;System&gt;&gt;</text><text fill="#000000" font-family="sans-serif" font-size="14" lengthAdjust="spacing" textLength="70" x="500.5" y="69.9951">ElectricGo</text><rect fill="#E2E2F0" height="30.2969" rx="2.5" ry="2.5" style="stroke:#181818;stroke-width:0.5;" width="183" x="394.5" y="255.7656"/><text fill="#000000" font-family="sans-serif" font-size="14" font-style="italic" lengthAdjust="spacing" textLength="99" x="401.5" y="275.7607">&lt;&lt;System&gt;&gt;</text><text fill="#000000" font-family="sans-serif" font-size="14" lengthAdjust="spacing" textLength="70" x="500.5" y="275.7607">ElectricGo</text><polygon fill="#181818" points="474,132.5625,484,136.5625,474,140.5625,478,136.5625" style="stroke:#181818;stroke-width:1.0;"/><line style="stroke:#181818;stroke-width:1.0;" x1="77" x2="480" y1="136.5625" y2="136.5625"/><text fill="#000000" font-family="sans-serif" font-size="13" lengthAdjust="spacing" textLength="321" x="84" y="131.4966">Realiza o pedido de listagem de Empacotamentos</text><polygon fill="#181818" points="88,161.6953,78,165.6953,88,169.6953,84,165.6953" style="stroke:#181818;stroke-width:1.0;"/><line style="stroke:#181818;stroke-width:1.0;stroke-dasharray:2.0,2.0;" x1="82" x2="485" y1="165.6953" y2="165.6953"/><text fill="#000000" font-family="sans-serif" font-size="13" lengthAdjust="spacing" textLength="338" x="94" y="160.6294">Apresenta uma lista com todos os Empacotamentos</text><polygon fill="#181818" points="474,205.6328,484,209.6328,474,213.6328,478,209.6328" style="stroke:#181818;stroke-width:1.0;"/><line style="stroke:#181818;stroke-width:1.0;" x1="77" x2="480" y1="209.6328" y2="209.6328"/><text fill="#000000" font-family="sans-serif" font-size="13" lengthAdjust="spacing" textLength="385" x="84" y="204.5669">Realiza o pedido de listagem de um Empacotamento pelo Id</text><polygon fill="#181818" points="88,234.7656,78,238.7656,88,242.7656,84,238.7656" style="stroke:#181818;stroke-width:1.0;"/><line style="stroke:#181818;stroke-width:1.0;stroke-dasharray:2.0,2.0;" x1="82" x2="485" y1="238.7656" y2="238.7656"/><text fill="#000000" font-family="sans-serif" font-size="13" lengthAdjust="spacing" textLength="363" x="94" y="233.6997">Apresenta todos os dados do Empacotamento solicitado</text><!--MD5=[68d60e1ada43ba1bf28532787dd88ddc]
@startuml
actor "Gestor de Frota" as A
participant "<i><<System>></i>ElectricGo" as S

alt Listar todos os Empacotamentos

	A -> S: Realiza o pedido de listagem de Empacotamentos
	S - -> A: Apresenta uma lista com todos os Empacotamentos

else Listar um Empacotamento por Id

	A -> S: Realiza o pedido de listagem de um Empacotamento pelo Id
	S - -> A: Apresenta todos os dados do Empacotamento solicitado

@enduml

PlantUML version 1.2022.7(Mon Aug 22 18:01:30 WEST 2022)
(GPL source distribution)
Java Runtime: OpenJDK Runtime Environment
JVM: OpenJDK 64-Bit Server VM
Default Encoding: UTF-8
Language: en
Country: US
--></g></svg>