<?xml version="1.0" encoding="UTF-8" standalone="no"?><svg xmlns="http://www.w3.org/2000/svg" xmlns:xlink="http://www.w3.org/1999/xlink" contentStyleType="text/css" height="358px" preserveAspectRatio="none" style="width:573px;height:358px;background:#FFFFFF;" version="1.1" viewBox="0 0 573 358" width="573px" zoomAndPan="magnify"><defs/><g><line style="stroke:#181818;stroke-width:0.5;stroke-dasharray:5.0,5.0;" x1="91" x2="91" y1="84.0679" y2="274.5799"/><line style="stroke:#181818;stroke-width:0.5;stroke-dasharray:5.0,5.0;" x1="488.5" x2="488.5" y1="84.0679" y2="274.5799"/><text fill="#000000" font-family="sans-serif" font-size="14" lengthAdjust="spacing" textLength="136" x="20" y="79.9659">Gestor de Armazéns</text><ellipse cx="91" cy="13.5" fill="#E2E2F0" rx="8" ry="8" style="stroke:#181818;stroke-width:0.5;"/><path d="M91,21.5 L91,48.5 M78,29.5 L104,29.5 M91,48.5 L78,63.5 M91,48.5 L104,63.5 " fill="none" style="stroke:#181818;stroke-width:0.5;"/><text fill="#000000" font-family="sans-serif" font-size="14" lengthAdjust="spacing" textLength="136" x="20" y="288.5458">Gestor de Armazéns</text><ellipse cx="91" cy="301.1478" fill="#E2E2F0" rx="8" ry="8" style="stroke:#181818;stroke-width:0.5;"/><path d="M91,309.1478 L91,336.1478 M78,317.1478 L104,317.1478 M91,336.1478 L78,351.1478 M91,336.1478 L104,351.1478 " fill="none" style="stroke:#181818;stroke-width:0.5;"/><rect fill="#E2E2F0" height="33.0679" rx="2.5" ry="2.5" style="stroke:#181818;stroke-width:0.5;" width="157" x="410.5" y="50"/><text fill="#000000" font-family="sans-serif" font-size="14" font-style="italic" lengthAdjust="spacing" textLength="76" x="417.5" y="71.9659">&lt;&lt;System&gt;&gt;</text><text fill="#000000" font-family="sans-serif" font-size="14" lengthAdjust="spacing" textLength="67" x="493.5" y="71.9659">ElectricGo</text><rect fill="#E2E2F0" height="33.0679" rx="2.5" ry="2.5" style="stroke:#181818;stroke-width:0.5;" width="157" x="410.5" y="273.5799"/><text fill="#000000" font-family="sans-serif" font-size="14" font-style="italic" lengthAdjust="spacing" textLength="76" x="417.5" y="295.5458">&lt;&lt;System&gt;&gt;</text><text fill="#000000" font-family="sans-serif" font-size="14" lengthAdjust="spacing" textLength="67" x="493.5" y="295.5458">ElectricGo</text><polygon fill="#181818" points="477,140.4799,487,144.4799,477,148.4799,481,144.4799" style="stroke:#181818;stroke-width:1.0;"/><line style="stroke:#181818;stroke-width:1.0;" x1="91" x2="483" y1="144.4799" y2="144.4799"/><text fill="#000000" font-family="sans-serif" font-size="13" lengthAdjust="spacing" textLength="243" x="98" y="138.6709">Realiza o pedido de listagem de Entregas</text><polygon fill="#181818" points="102,172.186,92,176.186,102,180.186,98,176.186" style="stroke:#181818;stroke-width:1.0;"/><line style="stroke:#181818;stroke-width:1.0;stroke-dasharray:2.0,2.0;" x1="96" x2="488" y1="176.186" y2="176.186"/><text fill="#000000" font-family="sans-serif" font-size="13" lengthAdjust="spacing" textLength="257" x="108" y="170.377">Apresenta uma lista com todos as Entregas</text><polygon fill="#181818" points="477,220.8739,487,224.8739,477,228.8739,481,224.8739" style="stroke:#181818;stroke-width:1.0;"/><line style="stroke:#181818;stroke-width:1.0;" x1="91" x2="483" y1="224.8739" y2="224.8739"/><text fill="#000000" font-family="sans-serif" font-size="13" lengthAdjust="spacing" textLength="374" x="98" y="219.0649">Realiza o pedido de listagem de um Entregas pelo Identificador</text><polygon fill="#181818" points="102,252.5799,92,256.5799,102,260.5799,98,256.5799" style="stroke:#181818;stroke-width:1.0;"/><line style="stroke:#181818;stroke-width:1.0;stroke-dasharray:2.0,2.0;" x1="96" x2="488" y1="256.5799" y2="256.5799"/><text fill="#000000" font-family="sans-serif" font-size="13" lengthAdjust="spacing" textLength="283" x="108" y="250.7709">Apresenta todos os dados da Entrega solicitada</text><!--MD5=[d3d7e223e620170a2901aac6572d1a58]
@startuml
actor "Gestor de Armazéns" as A
participant "<i><<System>></i>ElectricGo" as S

alt Listar todos os Entregas

	A -> S: Realiza o pedido de listagem de Entregas
	S - -> A: Apresenta uma lista com todos as Entregas

else Listar um Entrega por Identificador

	A -> S: Realiza o pedido de listagem de um Entregas pelo Identificador
	S - -> A: Apresenta todos os dados da Entrega solicitada

@enduml

PlantUML version 1.2022.6(Tue Jun 21 18:34:49 WEST 2022)
(GPL source distribution)
Java Runtime: OpenJDK Runtime Environment
JVM: OpenJDK 64-Bit Server VM
Default Encoding: UTF-8
Language: en
Country: US
--></g></svg>