<?xml version="1.0" encoding="UTF-8" standalone="no"?><svg xmlns="http://www.w3.org/2000/svg" xmlns:xlink="http://www.w3.org/1999/xlink" contentStyleType="text/css" height="358px" preserveAspectRatio="none" style="width:485px;height:358px;background:#FFFFFF;" version="1.1" viewBox="0 0 485 358" width="485px" zoomAndPan="magnify"><defs/><g><line style="stroke:#181818;stroke-width:0.5;stroke-dasharray:5.0,5.0;" x1="74" x2="74" y1="84.0679" y2="274.5799"/><line style="stroke:#181818;stroke-width:0.5;stroke-dasharray:5.0,5.0;" x1="400" x2="400" y1="84.0679" y2="274.5799"/><text fill="#000000" font-family="sans-serif" font-size="14" lengthAdjust="spacing" textLength="103" x="20" y="79.9659">Gestor de Frota</text><ellipse cx="74.5" cy="13.5" fill="#E2E2F0" rx="8" ry="8" style="stroke:#181818;stroke-width:0.5;"/><path d="M74.5,21.5 L74.5,48.5 M61.5,29.5 L87.5,29.5 M74.5,48.5 L61.5,63.5 M74.5,48.5 L87.5,63.5 " fill="none" style="stroke:#181818;stroke-width:0.5;"/><text fill="#000000" font-family="sans-serif" font-size="14" lengthAdjust="spacing" textLength="103" x="20" y="288.5458">Gestor de Frota</text><ellipse cx="74.5" cy="301.1478" fill="#E2E2F0" rx="8" ry="8" style="stroke:#181818;stroke-width:0.5;"/><path d="M74.5,309.1478 L74.5,336.1478 M61.5,317.1478 L87.5,317.1478 M74.5,336.1478 L61.5,351.1478 M74.5,336.1478 L87.5,351.1478 " fill="none" style="stroke:#181818;stroke-width:0.5;"/><rect fill="#E2E2F0" height="33.0679" rx="2.5" ry="2.5" style="stroke:#181818;stroke-width:0.5;" width="157" x="322" y="50"/><text fill="#000000" font-family="sans-serif" font-size="14" font-style="italic" lengthAdjust="spacing" textLength="76" x="329" y="71.9659">&lt;&lt;System&gt;&gt;</text><text fill="#000000" font-family="sans-serif" font-size="14" lengthAdjust="spacing" textLength="67" x="405" y="71.9659">ElectricGo</text><rect fill="#E2E2F0" height="33.0679" rx="2.5" ry="2.5" style="stroke:#181818;stroke-width:0.5;" width="157" x="322" y="273.5799"/><text fill="#000000" font-family="sans-serif" font-size="14" font-style="italic" lengthAdjust="spacing" textLength="76" x="329" y="295.5458">&lt;&lt;System&gt;&gt;</text><text fill="#000000" font-family="sans-serif" font-size="14" lengthAdjust="spacing" textLength="67" x="405" y="295.5458">ElectricGo</text><polygon fill="#181818" points="388.5,140.4799,398.5,144.4799,388.5,148.4799,392.5,144.4799" style="stroke:#181818;stroke-width:1.0;"/><line style="stroke:#181818;stroke-width:1.0;" x1="74.5" x2="394.5" y1="144.4799" y2="144.4799"/><text fill="#000000" font-family="sans-serif" font-size="13" lengthAdjust="spacing" textLength="241" x="81.5" y="138.6709">Realiza o pedido de listagem de Camiões</text><polygon fill="#181818" points="85.5,172.186,75.5,176.186,85.5,180.186,81.5,176.186" style="stroke:#181818;stroke-width:1.0;"/><line style="stroke:#181818;stroke-width:1.0;stroke-dasharray:2.0,2.0;" x1="79.5" x2="399.5" y1="176.186" y2="176.186"/><text fill="#000000" font-family="sans-serif" font-size="13" lengthAdjust="spacing" textLength="256" x="91.5" y="170.377">Apresenta uma lista com todos os Camiões</text><polygon fill="#181818" points="388.5,220.8739,398.5,224.8739,388.5,228.8739,392.5,224.8739" style="stroke:#181818;stroke-width:1.0;"/><line style="stroke:#181818;stroke-width:1.0;" x1="74.5" x2="394.5" y1="224.8739" y2="224.8739"/><text fill="#000000" font-family="sans-serif" font-size="13" lengthAdjust="spacing" textLength="302" x="81.5" y="219.0649">Realiza o pedido de listagem de um Camião pelo Id</text><polygon fill="#181818" points="85.5,252.5799,75.5,256.5799,85.5,260.5799,81.5,256.5799" style="stroke:#181818;stroke-width:1.0;"/><line style="stroke:#181818;stroke-width:1.0;stroke-dasharray:2.0,2.0;" x1="79.5" x2="399.5" y1="256.5799" y2="256.5799"/><text fill="#000000" font-family="sans-serif" font-size="13" lengthAdjust="spacing" textLength="283" x="91.5" y="250.7709">Apresenta todos os dados do Camião solicitado</text><!--MD5=[fda26bfeeff1bfd9dc3de0205c7295f9]
@startuml
actor "Gestor de Frota" as A
participant "<i><<System>></i>ElectricGo" as S

alt Listar todos os Camiões

	A -> S: Realiza o pedido de listagem de Camiões
	S - -> A: Apresenta uma lista com todos os Camiões

else Listar um Camião por Id

	A -> S: Realiza o pedido de listagem de um Camião pelo Id
	S - -> A: Apresenta todos os dados do Camião solicitado

@enduml

PlantUML version 1.2022.6(Tue Jun 21 18:34:49 WEST 2022)
(GPL source distribution)
Java Runtime: OpenJDK Runtime Environment
JVM: OpenJDK 64-Bit Server VM
Default Encoding: UTF-8
Language: en
Country: US
--></g></svg>