<?xml version="1.0" encoding="UTF-8" standalone="no"?><svg xmlns="http://www.w3.org/2000/svg" xmlns:xlink="http://www.w3.org/1999/xlink" contentStyleType="text/css" height="502px" preserveAspectRatio="none" style="width:649px;height:502px;background:#FFFFFF;" version="1.1" viewBox="0 0 649 502" width="649px" zoomAndPan="magnify"><defs/><g><line style="stroke:#181818;stroke-width:0.5;stroke-dasharray:5.0,5.0;" x1="72" x2="72" y1="84.0679" y2="419.1281"/><line style="stroke:#181818;stroke-width:0.5;stroke-dasharray:5.0,5.0;" x1="419.5" x2="419.5" y1="84.0679" y2="419.1281"/><text fill="#000000" font-family="sans-serif" font-size="14" lengthAdjust="spacing" textLength="128" x="5" y="79.9659">Gestor de Logística</text><ellipse cx="72" cy="13.5" fill="#E2E2F0" rx="8" ry="8" style="stroke:#181818;stroke-width:0.5;"/><path d="M72,21.5 L72,48.5 M59,29.5 L85,29.5 M72,48.5 L59,63.5 M72,48.5 L85,63.5 " fill="none" style="stroke:#181818;stroke-width:0.5;"/><text fill="#000000" font-family="sans-serif" font-size="14" lengthAdjust="spacing" textLength="128" x="5" y="433.094">Gestor de Logística</text><ellipse cx="72" cy="445.696" fill="#E2E2F0" rx="8" ry="8" style="stroke:#181818;stroke-width:0.5;"/><path d="M72,453.696 L72,480.696 M59,461.696 L85,461.696 M72,480.696 L59,495.696 M72,480.696 L85,495.696 " fill="none" style="stroke:#181818;stroke-width:0.5;"/><rect fill="#E2E2F0" height="33.0679" rx="2.5" ry="2.5" style="stroke:#181818;stroke-width:0.5;" width="157" x="341.5" y="50"/><text fill="#000000" font-family="sans-serif" font-size="14" font-style="italic" lengthAdjust="spacing" textLength="76" x="348.5" y="71.9659">&lt;&lt;System&gt;&gt;</text><text fill="#000000" font-family="sans-serif" font-size="14" lengthAdjust="spacing" textLength="67" x="424.5" y="71.9659">ElectricGo</text><rect fill="#E2E2F0" height="33.0679" rx="2.5" ry="2.5" style="stroke:#181818;stroke-width:0.5;" width="157" x="341.5" y="418.1281"/><text fill="#000000" font-family="sans-serif" font-size="14" font-style="italic" lengthAdjust="spacing" textLength="76" x="348.5" y="440.094">&lt;&lt;System&gt;&gt;</text><text fill="#000000" font-family="sans-serif" font-size="14" lengthAdjust="spacing" textLength="67" x="424.5" y="440.094">ElectricGo</text><polygon fill="#181818" points="408,113.7739,418,117.7739,408,121.7739,412,117.7739" style="stroke:#181818;stroke-width:1.0;"/><line style="stroke:#181818;stroke-width:1.0;" x1="72" x2="414" y1="117.7739" y2="117.7739"/><text fill="#000000" font-family="sans-serif" font-size="13" lengthAdjust="spacing" textLength="180" x="79" y="111.9649">Inicia a edicão de um Percurso</text><polygon fill="#181818" points="83,145.4799,73,149.4799,83,153.4799,79,149.4799" style="stroke:#181818;stroke-width:1.0;"/><line style="stroke:#181818;stroke-width:1.0;stroke-dasharray:2.0,2.0;" x1="77" x2="419" y1="149.4799" y2="149.4799"/><text fill="#000000" font-family="sans-serif" font-size="13" lengthAdjust="spacing" textLength="165" x="89" y="143.6709">Fornece a lista de Percursos</text><polygon fill="#181818" points="408,177.186,418,181.186,408,185.186,412,181.186" style="stroke:#181818;stroke-width:1.0;"/><line style="stroke:#181818;stroke-width:1.0;" x1="72" x2="414" y1="181.186" y2="181.186"/><text fill="#000000" font-family="sans-serif" font-size="13" lengthAdjust="spacing" textLength="180" x="79" y="175.377">Seleciona o Percurso desejado</text><polygon fill="#181818" points="83,244.304,73,248.304,83,252.304,79,248.304" style="stroke:#181818;stroke-width:1.0;"/><line style="stroke:#181818;stroke-width:1.0;stroke-dasharray:2.0,2.0;" x1="77" x2="419" y1="248.304" y2="248.304"/><text fill="#000000" font-family="sans-serif" font-size="13" lengthAdjust="spacing" textLength="174" x="89" y="207.083">Solicita os dados do Percurso</text><text fill="#000000" font-family="sans-serif" font-size="13" font-style="italic" lengthAdjust="spacing" textLength="318" x="89" y="224.789">(Id do Armazém de Partida, Id do Armazém de Chegada,</text><text fill="#000000" font-family="sans-serif" font-size="13" font-style="italic" lengthAdjust="spacing" textLength="324" x="89" y="242.495">Distância, Tempo para percorrer, Energia para percorrer)</text><polygon fill="#181818" points="408,276.01,418,280.01,408,284.01,412,280.01" style="stroke:#181818;stroke-width:1.0;"/><line style="stroke:#181818;stroke-width:1.0;" x1="72" x2="414" y1="280.01" y2="280.01"/><text fill="#000000" font-family="sans-serif" font-size="13" lengthAdjust="spacing" textLength="180" x="79" y="274.201">Fornece os dados do Percurso</text><line style="stroke:#181818;stroke-width:1.0;" x1="420" x2="462" y1="311.716" y2="311.716"/><line style="stroke:#181818;stroke-width:1.0;" x1="462" x2="462" y1="311.716" y2="324.716"/><line style="stroke:#181818;stroke-width:1.0;" x1="421" x2="462" y1="324.716" y2="324.716"/><polygon fill="#181818" points="431,320.716,421,324.716,431,328.716,427,324.716" style="stroke:#181818;stroke-width:1.0;"/><text fill="#000000" font-family="sans-serif" font-size="13" lengthAdjust="spacing" textLength="215" x="427" y="305.907">Verifica/valida os dados do Percurso</text><line style="stroke:#181818;stroke-width:1.0;" x1="420" x2="462" y1="356.4221" y2="356.4221"/><line style="stroke:#181818;stroke-width:1.0;" x1="462" x2="462" y1="356.4221" y2="369.4221"/><line style="stroke:#181818;stroke-width:1.0;" x1="421" x2="462" y1="369.4221" y2="369.4221"/><polygon fill="#181818" points="431,365.4221,421,369.4221,431,373.4221,427,369.4221" style="stroke:#181818;stroke-width:1.0;"/><text fill="#000000" font-family="sans-serif" font-size="13" lengthAdjust="spacing" textLength="111" x="427" y="350.6131">Regista o Percurso</text><polygon fill="#181818" points="83,397.1281,73,401.1281,83,405.1281,79,401.1281" style="stroke:#181818;stroke-width:1.0;"/><line style="stroke:#181818;stroke-width:1.0;stroke-dasharray:2.0,2.0;" x1="77" x2="419" y1="401.1281" y2="401.1281"/><text fill="#000000" font-family="sans-serif" font-size="13" lengthAdjust="spacing" textLength="294" x="89" y="395.3191">Confirma que o Percurso foi editado com sucesso</text><!--MD5=[c6f150e139427ce547e4d2782a874c50]
@startuml
actor "Gestor de Logística" as A
participant "<i><<System>></i>ElectricGo" as S

A -> S: Inicia a edicão de um Percurso
S - -> A: Fornece a lista de Percursos

A -> S: Seleciona o Percurso desejado
S - -> A: Solicita os dados do Percurso\n<i>(Id do Armazém de Partida, Id do Armazém de Chegada,</i>\n<i>Distância, Tempo para percorrer, Energia para percorrer)</i>

A -> S: Fornece os dados do Percurso
S -> S: Verifica/valida os dados do Percurso
S -> S: Regista o Percurso
S - -> A: Confirma que o Percurso foi editado com sucesso

@enduml

PlantUML version 1.2022.6(Tue Jun 21 18:34:49 WEST 2022)
(GPL source distribution)
Java Runtime: OpenJDK Runtime Environment
JVM: OpenJDK 64-Bit Server VM
Default Encoding: UTF-8
Language: en
Country: US
--></g></svg>