<?xml version="1.0" encoding="UTF-8" standalone="no"?><svg xmlns="http://www.w3.org/2000/svg" xmlns:xlink="http://www.w3.org/1999/xlink" contentStyleType="text/css" height="413px" preserveAspectRatio="none" style="width:742px;height:413px;background:#FFFFFF;" version="1.1" viewBox="0 0 742 413" width="742px" zoomAndPan="magnify"><defs/><g><line style="stroke:#181818;stroke-width:0.5;stroke-dasharray:5.0,5.0;" x1="62" x2="62" y1="81.2969" y2="332.3594"/><line style="stroke:#181818;stroke-width:0.5;stroke-dasharray:5.0,5.0;" x1="446.5" x2="446.5" y1="81.2969" y2="332.3594"/><text fill="#000000" font-family="sans-serif" font-size="14" lengthAdjust="spacing" textLength="108" x="5" y="77.9951">Gestor de Frota</text><ellipse cx="62" cy="13.5" fill="#E2E2F0" rx="8" ry="8" style="stroke:#181818;stroke-width:0.5;"/><path d="M62,21.5 L62,48.5 M49,29.5 L75,29.5 M62,48.5 L49,63.5 M62,48.5 L75,63.5 " fill="none" style="stroke:#181818;stroke-width:0.5;"/><text fill="#000000" font-family="sans-serif" font-size="14" lengthAdjust="spacing" textLength="108" x="5" y="344.3545">Gestor de Frota</text><ellipse cx="62" cy="356.1563" fill="#E2E2F0" rx="8" ry="8" style="stroke:#181818;stroke-width:0.5;"/><path d="M62,364.1563 L62,391.1563 M49,372.1563 L75,372.1563 M62,391.1563 L49,406.1563 M62,391.1563 L75,406.1563 " fill="none" style="stroke:#181818;stroke-width:0.5;"/><rect fill="#E2E2F0" height="30.2969" rx="2.5" ry="2.5" style="stroke:#181818;stroke-width:0.5;" width="183" x="355.5" y="50"/><text fill="#000000" font-family="sans-serif" font-size="14" font-style="italic" lengthAdjust="spacing" textLength="99" x="362.5" y="69.9951">&lt;&lt;System&gt;&gt;</text><text fill="#000000" font-family="sans-serif" font-size="14" lengthAdjust="spacing" textLength="70" x="461.5" y="69.9951">ElectricGo</text><rect fill="#E2E2F0" height="30.2969" rx="2.5" ry="2.5" style="stroke:#181818;stroke-width:0.5;" width="183" x="355.5" y="331.3594"/><text fill="#000000" font-family="sans-serif" font-size="14" font-style="italic" lengthAdjust="spacing" textLength="99" x="362.5" y="351.3545">&lt;&lt;System&gt;&gt;</text><text fill="#000000" font-family="sans-serif" font-size="14" lengthAdjust="spacing" textLength="70" x="461.5" y="351.3545">ElectricGo</text><polygon fill="#181818" points="435,108.4297,445,112.4297,435,116.4297,439,112.4297" style="stroke:#181818;stroke-width:1.0;"/><line style="stroke:#181818;stroke-width:1.0;" x1="62" x2="441" y1="112.4297" y2="112.4297"/><text fill="#000000" font-family="sans-serif" font-size="13" lengthAdjust="spacing" textLength="317" x="69" y="107.3638">Inicia o pedido de criacao de um Empacotamento</text><polygon fill="#181818" points="73,167.8281,63,171.8281,73,175.8281,69,171.8281" style="stroke:#181818;stroke-width:1.0;"/><line style="stroke:#181818;stroke-width:1.0;stroke-dasharray:2.0,2.0;" x1="67" x2="446" y1="171.8281" y2="171.8281"/><text fill="#000000" font-family="sans-serif" font-size="13" lengthAdjust="spacing" textLength="239" x="79" y="136.4966">Solicita os dados do Empacotamento</text><text fill="#000000" font-family="sans-serif" font-size="13" font-style="italic" lengthAdjust="spacing" textLength="210" x="79" y="151.6294">(Posição X, Posição Y, Posição Z,</text><text fill="#000000" font-family="sans-serif" font-size="13" font-style="italic" lengthAdjust="spacing" textLength="361" x="79" y="166.7622">Tempo de colocação, Tempo de retirada, ID da entrega)</text><polygon fill="#181818" points="435,196.9609,445,200.9609,435,204.9609,439,200.9609" style="stroke:#181818;stroke-width:1.0;"/><line style="stroke:#181818;stroke-width:1.0;" x1="62" x2="441" y1="200.9609" y2="200.9609"/><text fill="#000000" font-family="sans-serif" font-size="13" lengthAdjust="spacing" textLength="244" x="69" y="195.895">Fornece os dados do Empacotamento</text><line style="stroke:#181818;stroke-width:1.0;" x1="447" x2="489" y1="230.0938" y2="230.0938"/><line style="stroke:#181818;stroke-width:1.0;" x1="489" x2="489" y1="230.0938" y2="243.0938"/><line style="stroke:#181818;stroke-width:1.0;" x1="448" x2="489" y1="243.0938" y2="243.0938"/><polygon fill="#181818" points="458,239.0938,448,243.0938,458,247.0938,454,243.0938" style="stroke:#181818;stroke-width:1.0;"/><text fill="#000000" font-family="sans-serif" font-size="13" lengthAdjust="spacing" textLength="281" x="454" y="225.0278">Verifica/valida os dados do Empacotamento</text><line style="stroke:#181818;stroke-width:1.0;" x1="447" x2="489" y1="272.2266" y2="272.2266"/><line style="stroke:#181818;stroke-width:1.0;" x1="489" x2="489" y1="272.2266" y2="285.2266"/><line style="stroke:#181818;stroke-width:1.0;" x1="448" x2="489" y1="285.2266" y2="285.2266"/><polygon fill="#181818" points="458,281.2266,448,285.2266,458,289.2266,454,285.2266" style="stroke:#181818;stroke-width:1.0;"/><text fill="#000000" font-family="sans-serif" font-size="13" lengthAdjust="spacing" textLength="170" x="454" y="267.1606">Regista o Empacotamento</text><polygon fill="#181818" points="73,310.3594,63,314.3594,73,318.3594,69,314.3594" style="stroke:#181818;stroke-width:1.0;"/><line style="stroke:#181818;stroke-width:1.0;stroke-dasharray:2.0,2.0;" x1="67" x2="446" y1="314.3594" y2="314.3594"/><text fill="#000000" font-family="sans-serif" font-size="13" lengthAdjust="spacing" textLength="359" x="79" y="309.2935">Confirma que o Empacotamento foi criado com sucesso</text><!--MD5=[530ff29b7f5c3943233b092acfcded08]
@startuml
actor "Gestor de Frota" as A
participant "<i><<System>></i>ElectricGo" as S

A -> S: Inicia o pedido de criacao de um Empacotamento
S - -> A: Solicita os dados do Empacotamento\n<i>(Posição X, Posição Y, Posição Z,</i>\n<i>Tempo de colocação, Tempo de retirada, ID da entrega)</i>

A -> S: Fornece os dados do Empacotamento
S -> S: Verifica/valida os dados do Empacotamento
S -> S: Regista o Empacotamento
S - -> A: Confirma que o Empacotamento foi criado com sucesso
@enduml

PlantUML version 1.2022.7(Mon Aug 22 18:01:30 WEST 2022)
(GPL source distribution)
Java Runtime: OpenJDK Runtime Environment
JVM: OpenJDK 64-Bit Server VM
Default Encoding: UTF-8
Language: en
Country: US
--></g></svg>