<?xml version="1.0" encoding="UTF-8" standalone="no"?><svg xmlns="http://www.w3.org/2000/svg" xmlns:xlink="http://www.w3.org/1999/xlink" contentStyleType="text/css" height="471px" preserveAspectRatio="none" style="width:749px;height:471px;background:#FFFFFF;" version="1.1" viewBox="0 0 749 471" width="749px" zoomAndPan="magnify"><defs/><g><line style="stroke:#181818;stroke-width:0.5;stroke-dasharray:5.0,5.0;" x1="62" x2="62" y1="81.2969" y2="390.625"/><line style="stroke:#181818;stroke-width:0.5;stroke-dasharray:5.0,5.0;" x1="453.5" x2="453.5" y1="81.2969" y2="390.625"/><text fill="#000000" font-family="sans-serif" font-size="14" lengthAdjust="spacing" textLength="108" x="5" y="77.9951">Gestor de Frota</text><ellipse cx="62" cy="13.5" fill="#E2E2F0" rx="8" ry="8" style="stroke:#181818;stroke-width:0.5;"/><path d="M62,21.5 L62,48.5 M49,29.5 L75,29.5 M62,48.5 L49,63.5 M62,48.5 L75,63.5 " fill="none" style="stroke:#181818;stroke-width:0.5;"/><text fill="#000000" font-family="sans-serif" font-size="14" lengthAdjust="spacing" textLength="108" x="5" y="402.6201">Gestor de Frota</text><ellipse cx="62" cy="414.4219" fill="#E2E2F0" rx="8" ry="8" style="stroke:#181818;stroke-width:0.5;"/><path d="M62,422.4219 L62,449.4219 M49,430.4219 L75,430.4219 M62,449.4219 L49,464.4219 M62,449.4219 L75,464.4219 " fill="none" style="stroke:#181818;stroke-width:0.5;"/><rect fill="#E2E2F0" height="30.2969" rx="2.5" ry="2.5" style="stroke:#181818;stroke-width:0.5;" width="183" x="362.5" y="50"/><text fill="#000000" font-family="sans-serif" font-size="14" font-style="italic" lengthAdjust="spacing" textLength="99" x="369.5" y="69.9951">&lt;&lt;System&gt;&gt;</text><text fill="#000000" font-family="sans-serif" font-size="14" lengthAdjust="spacing" textLength="70" x="468.5" y="69.9951">ElectricGo</text><rect fill="#E2E2F0" height="30.2969" rx="2.5" ry="2.5" style="stroke:#181818;stroke-width:0.5;" width="183" x="362.5" y="389.625"/><text fill="#000000" font-family="sans-serif" font-size="14" font-style="italic" lengthAdjust="spacing" textLength="99" x="369.5" y="409.6201">&lt;&lt;System&gt;&gt;</text><text fill="#000000" font-family="sans-serif" font-size="14" lengthAdjust="spacing" textLength="70" x="468.5" y="409.6201">ElectricGo</text><polygon fill="#181818" points="442,108.4297,452,112.4297,442,116.4297,446,112.4297" style="stroke:#181818;stroke-width:1.0;"/><line style="stroke:#181818;stroke-width:1.0;" x1="62" x2="448" y1="112.4297" y2="112.4297"/><text fill="#000000" font-family="sans-serif" font-size="13" lengthAdjust="spacing" textLength="246" x="69" y="107.3638">Inicia a edicão de um Empacotamento</text><polygon fill="#181818" points="73,137.5625,63,141.5625,73,145.5625,69,141.5625" style="stroke:#181818;stroke-width:1.0;"/><line style="stroke:#181818;stroke-width:1.0;stroke-dasharray:2.0,2.0;" x1="67" x2="453" y1="141.5625" y2="141.5625"/><text fill="#000000" font-family="sans-serif" font-size="13" lengthAdjust="spacing" textLength="231" x="79" y="136.4966">Fornece a lista de Empacotamentos</text><polygon fill="#181818" points="442,166.6953,452,170.6953,442,174.6953,446,170.6953" style="stroke:#181818;stroke-width:1.0;"/><line style="stroke:#181818;stroke-width:1.0;" x1="62" x2="448" y1="170.6953" y2="170.6953"/><text fill="#000000" font-family="sans-serif" font-size="13" lengthAdjust="spacing" textLength="247" x="69" y="165.6294">Seleciona o Empacotamento desejado</text><polygon fill="#181818" points="73,226.0938,63,230.0938,73,234.0938,69,230.0938" style="stroke:#181818;stroke-width:1.0;"/><line style="stroke:#181818;stroke-width:1.0;stroke-dasharray:2.0,2.0;" x1="67" x2="453" y1="230.0938" y2="230.0938"/><text fill="#000000" font-family="sans-serif" font-size="13" lengthAdjust="spacing" textLength="239" x="79" y="194.7622">Solicita os dados do Empacotamento</text><text fill="#000000" font-family="sans-serif" font-size="13" font-style="italic" lengthAdjust="spacing" textLength="210" x="79" y="209.895">(Posição X, Posição Y, Posição Z,</text><text fill="#000000" font-family="sans-serif" font-size="13" font-style="italic" lengthAdjust="spacing" textLength="361" x="79" y="225.0278">Tempo de colocação, Tempo de retirada, ID da entrega)</text><polygon fill="#181818" points="442,255.2266,452,259.2266,442,263.2266,446,259.2266" style="stroke:#181818;stroke-width:1.0;"/><line style="stroke:#181818;stroke-width:1.0;" x1="62" x2="448" y1="259.2266" y2="259.2266"/><text fill="#000000" font-family="sans-serif" font-size="13" lengthAdjust="spacing" textLength="244" x="69" y="254.1606">Fornece os dados do Empacotamento</text><line style="stroke:#181818;stroke-width:1.0;" x1="454" x2="496" y1="288.3594" y2="288.3594"/><line style="stroke:#181818;stroke-width:1.0;" x1="496" x2="496" y1="288.3594" y2="301.3594"/><line style="stroke:#181818;stroke-width:1.0;" x1="455" x2="496" y1="301.3594" y2="301.3594"/><polygon fill="#181818" points="465,297.3594,455,301.3594,465,305.3594,461,301.3594" style="stroke:#181818;stroke-width:1.0;"/><text fill="#000000" font-family="sans-serif" font-size="13" lengthAdjust="spacing" textLength="281" x="461" y="283.2935">Verifica/valida os dados do Empacotamento</text><line style="stroke:#181818;stroke-width:1.0;" x1="454" x2="496" y1="330.4922" y2="330.4922"/><line style="stroke:#181818;stroke-width:1.0;" x1="496" x2="496" y1="330.4922" y2="343.4922"/><line style="stroke:#181818;stroke-width:1.0;" x1="455" x2="496" y1="343.4922" y2="343.4922"/><polygon fill="#181818" points="465,339.4922,455,343.4922,465,347.4922,461,343.4922" style="stroke:#181818;stroke-width:1.0;"/><text fill="#000000" font-family="sans-serif" font-size="13" lengthAdjust="spacing" textLength="170" x="461" y="325.4263">Regista o Empacotamento</text><polygon fill="#181818" points="73,368.625,63,372.625,73,376.625,69,372.625" style="stroke:#181818;stroke-width:1.0;"/><line style="stroke:#181818;stroke-width:1.0;stroke-dasharray:2.0,2.0;" x1="67" x2="453" y1="372.625" y2="372.625"/><text fill="#000000" font-family="sans-serif" font-size="13" lengthAdjust="spacing" textLength="368" x="79" y="367.5591">Confirma que o Empacotamento foi editado com sucesso</text><!--MD5=[db620f5999bdb4ac5ad42557a539ebd7]
@startuml
actor "Gestor de Frota" as A
participant "<i><<System>></i>ElectricGo" as S

A -> S: Inicia a edicão de um Empacotamento
S - -> A: Fornece a lista de Empacotamentos

A -> S: Seleciona o Empacotamento desejado
S - -> A: Solicita os dados do Empacotamento\n<i>(Posição X, Posição Y, Posição Z,</i>\n<i>Tempo de colocação, Tempo de retirada, ID da entrega)</i>

A -> S: Fornece os dados do Empacotamento
S -> S: Verifica/valida os dados do Empacotamento
S -> S: Regista o Empacotamento
S - -> A: Confirma que o Empacotamento foi editado com sucesso

@enduml

PlantUML version 1.2022.7(Mon Aug 22 18:01:30 WEST 2022)
(GPL source distribution)
Java Runtime: OpenJDK Runtime Environment
JVM: OpenJDK 64-Bit Server VM
Default Encoding: UTF-8
Language: en
Country: US
--></g></svg>