<?xml version="1.0" encoding="UTF-8" standalone="no"?><svg xmlns="http://www.w3.org/2000/svg" xmlns:xlink="http://www.w3.org/1999/xlink" contentStyleType="text/css" height="483px" preserveAspectRatio="none" style="width:649px;height:483px;background:#FFFFFF;" version="1.1" viewBox="0 0 649 483" width="649px" zoomAndPan="magnify"><defs/><g><line style="stroke:#181818;stroke-width:0.5;stroke-dasharray:5.0,5.0;" x1="72" x2="72" y1="84.0679" y2="400.4221"/><line style="stroke:#181818;stroke-width:0.5;stroke-dasharray:5.0,5.0;" x1="419.5" x2="419.5" y1="84.0679" y2="400.4221"/><text fill="#000000" font-family="sans-serif" font-size="14" lengthAdjust="spacing" textLength="128" x="5" y="79.9659">Gestor de Logística</text><ellipse cx="72" cy="13.5" fill="#E2E2F0" rx="8" ry="8" style="stroke:#181818;stroke-width:0.5;"/><path d="M72,21.5 L72,48.5 M59,29.5 L85,29.5 M72,48.5 L59,63.5 M72,48.5 L85,63.5 " fill="none" style="stroke:#181818;stroke-width:0.5;"/><text fill="#000000" font-family="sans-serif" font-size="14" lengthAdjust="spacing" textLength="128" x="5" y="414.388">Gestor de Logística</text><ellipse cx="72" cy="426.99" fill="#E2E2F0" rx="8" ry="8" style="stroke:#181818;stroke-width:0.5;"/><path d="M72,434.99 L72,461.99 M59,442.99 L85,442.99 M72,461.99 L59,476.99 M72,461.99 L85,476.99 " fill="none" style="stroke:#181818;stroke-width:0.5;"/><rect fill="#E2E2F0" height="33.0679" rx="2.5" ry="2.5" style="stroke:#181818;stroke-width:0.5;" width="157" x="341.5" y="50"/><text fill="#000000" font-family="sans-serif" font-size="14" font-style="italic" lengthAdjust="spacing" textLength="76" x="348.5" y="71.9659">&lt;&lt;System&gt;&gt;</text><text fill="#000000" font-family="sans-serif" font-size="14" lengthAdjust="spacing" textLength="67" x="424.5" y="71.9659">ElectricGo</text><rect fill="#E2E2F0" height="33.0679" rx="2.5" ry="2.5" style="stroke:#181818;stroke-width:0.5;" width="157" x="341.5" y="399.4221"/><text fill="#000000" font-family="sans-serif" font-size="14" font-style="italic" lengthAdjust="spacing" textLength="76" x="348.5" y="421.388">&lt;&lt;System&gt;&gt;</text><text fill="#000000" font-family="sans-serif" font-size="14" lengthAdjust="spacing" textLength="67" x="424.5" y="421.388">ElectricGo</text><polygon fill="#181818" points="408,113.7739,418,117.7739,408,121.7739,412,117.7739" style="stroke:#181818;stroke-width:1.0;"/><line style="stroke:#181818;stroke-width:1.0;" x1="72" x2="414" y1="117.7739" y2="117.7739"/><text fill="#000000" font-family="sans-serif" font-size="13" lengthAdjust="spacing" textLength="247" x="79" y="111.9649">Inicia o pedido de criacao de um Percurso</text><polygon fill="#181818" points="83,180.892,73,184.892,83,188.892,79,184.892" style="stroke:#181818;stroke-width:1.0;"/><line style="stroke:#181818;stroke-width:1.0;stroke-dasharray:2.0,2.0;" x1="77" x2="419" y1="184.892" y2="184.892"/><text fill="#000000" font-family="sans-serif" font-size="13" lengthAdjust="spacing" textLength="174" x="89" y="143.6709">Solicita os dados do Percurso</text><text fill="#000000" font-family="sans-serif" font-size="13" font-style="italic" lengthAdjust="spacing" textLength="318" x="89" y="161.377">(Id do Armazém de Partida, Id do Armazém de Chegada,</text><text fill="#000000" font-family="sans-serif" font-size="13" font-style="italic" lengthAdjust="spacing" textLength="324" x="89" y="179.083">Distância, Tempo para percorrer, Energia para percorrer)</text><polygon fill="#181818" points="408,212.598,418,216.598,408,220.598,412,216.598" style="stroke:#181818;stroke-width:1.0;"/><line style="stroke:#181818;stroke-width:1.0;" x1="72" x2="414" y1="216.598" y2="216.598"/><text fill="#000000" font-family="sans-serif" font-size="13" lengthAdjust="spacing" textLength="180" x="79" y="210.789">Fornece os dados do Percurso</text><line style="stroke:#181818;stroke-width:1.0;" x1="420" x2="462" y1="248.304" y2="248.304"/><line style="stroke:#181818;stroke-width:1.0;" x1="462" x2="462" y1="248.304" y2="261.304"/><line style="stroke:#181818;stroke-width:1.0;" x1="421" x2="462" y1="261.304" y2="261.304"/><polygon fill="#181818" points="431,257.304,421,261.304,431,265.304,427,261.304" style="stroke:#181818;stroke-width:1.0;"/><text fill="#000000" font-family="sans-serif" font-size="13" lengthAdjust="spacing" textLength="215" x="427" y="242.495">Verifica/valida os dados do Percurso</text><line style="stroke:#181818;stroke-width:1.0;" x1="420" x2="462" y1="293.01" y2="293.01"/><line style="stroke:#181818;stroke-width:1.0;" x1="462" x2="462" y1="293.01" y2="306.01"/><line style="stroke:#181818;stroke-width:1.0;" x1="421" x2="462" y1="306.01" y2="306.01"/><polygon fill="#181818" points="431,302.01,421,306.01,431,310.01,427,306.01" style="stroke:#181818;stroke-width:1.0;"/><text fill="#000000" font-family="sans-serif" font-size="13" lengthAdjust="spacing" textLength="189" x="427" y="287.201">Valida a existência dos Percurso</text><line style="stroke:#181818;stroke-width:1.0;" x1="420" x2="462" y1="337.716" y2="337.716"/><line style="stroke:#181818;stroke-width:1.0;" x1="462" x2="462" y1="337.716" y2="350.716"/><line style="stroke:#181818;stroke-width:1.0;" x1="421" x2="462" y1="350.716" y2="350.716"/><polygon fill="#181818" points="431,346.716,421,350.716,431,354.716,427,350.716" style="stroke:#181818;stroke-width:1.0;"/><text fill="#000000" font-family="sans-serif" font-size="13" lengthAdjust="spacing" textLength="111" x="427" y="331.907">Regista o Percurso</text><polygon fill="#181818" points="83,378.4221,73,382.4221,83,386.4221,79,382.4221" style="stroke:#181818;stroke-width:1.0;"/><line style="stroke:#181818;stroke-width:1.0;stroke-dasharray:2.0,2.0;" x1="77" x2="419" y1="382.4221" y2="382.4221"/><text fill="#000000" font-family="sans-serif" font-size="13" lengthAdjust="spacing" textLength="285" x="89" y="376.6131">Confirma que o Percurso foi criado com sucesso</text><!--MD5=[98ad80f0f3d92618de158bd3a6d032f4]
@startuml
actor "Gestor de Logística" as A
participant "<i><<System>></i>ElectricGo" as S

A -> S: Inicia o pedido de criacao de um Percurso
S - -> A: Solicita os dados do Percurso\n<i>(Id do Armazém de Partida, Id do Armazém de Chegada,</i>\n<i>Distância, Tempo para percorrer, Energia para percorrer)</i>

A -> S: Fornece os dados do Percurso
S -> S: Verifica/valida os dados do Percurso
S -> S: Valida a existência dos Percurso
S -> S: Regista o Percurso
S - -> A: Confirma que o Percurso foi criado com sucesso

@enduml

PlantUML version 1.2022.6(Tue Jun 21 18:34:49 WEST 2022)
(GPL source distribution)
Java Runtime: OpenJDK Runtime Environment
JVM: OpenJDK 64-Bit Server VM
Default Encoding: UTF-8
Language: en
Country: US
--></g></svg>