<?xml version="1.0" encoding="UTF-8" standalone="no"?><svg xmlns="http://www.w3.org/2000/svg" xmlns:xlink="http://www.w3.org/1999/xlink" contentStyleType="text/css" height="520px" preserveAspectRatio="none" style="width:608px;height:520px;background:#FFFFFF;" version="1.1" viewBox="0 0 608 520" width="608px" zoomAndPan="magnify"><defs/><g><line style="stroke:#181818;stroke-width:0.5;stroke-dasharray:5.0,5.0;" x1="76" x2="76" y1="84.0679" y2="436.8341"/><line style="stroke:#181818;stroke-width:0.5;stroke-dasharray:5.0,5.0;" x1="385.5" x2="385.5" y1="84.0679" y2="436.8341"/><text fill="#000000" font-family="sans-serif" font-size="14" lengthAdjust="spacing" textLength="136" x="5" y="79.9659">Gestor de Armazéns</text><ellipse cx="76" cy="13.5" fill="#E2E2F0" rx="8" ry="8" style="stroke:#181818;stroke-width:0.5;"/><path d="M76,21.5 L76,48.5 M63,29.5 L89,29.5 M76,48.5 L63,63.5 M76,48.5 L89,63.5 " fill="none" style="stroke:#181818;stroke-width:0.5;"/><text fill="#000000" font-family="sans-serif" font-size="14" lengthAdjust="spacing" textLength="136" x="5" y="450.8">Gestor de Armazéns</text><ellipse cx="76" cy="463.402" fill="#E2E2F0" rx="8" ry="8" style="stroke:#181818;stroke-width:0.5;"/><path d="M76,471.402 L76,498.402 M63,479.402 L89,479.402 M76,498.402 L63,513.402 M76,498.402 L89,513.402 " fill="none" style="stroke:#181818;stroke-width:0.5;"/><rect fill="#E2E2F0" height="33.0679" rx="2.5" ry="2.5" style="stroke:#181818;stroke-width:0.5;" width="157" x="307.5" y="50"/><text fill="#000000" font-family="sans-serif" font-size="14" font-style="italic" lengthAdjust="spacing" textLength="76" x="314.5" y="71.9659">&lt;&lt;System&gt;&gt;</text><text fill="#000000" font-family="sans-serif" font-size="14" lengthAdjust="spacing" textLength="67" x="390.5" y="71.9659">ElectricGo</text><rect fill="#E2E2F0" height="33.0679" rx="2.5" ry="2.5" style="stroke:#181818;stroke-width:0.5;" width="157" x="307.5" y="435.8341"/><text fill="#000000" font-family="sans-serif" font-size="14" font-style="italic" lengthAdjust="spacing" textLength="76" x="314.5" y="457.8">&lt;&lt;System&gt;&gt;</text><text fill="#000000" font-family="sans-serif" font-size="14" lengthAdjust="spacing" textLength="67" x="390.5" y="457.8">ElectricGo</text><polygon fill="#181818" points="374,113.7739,384,117.7739,374,121.7739,378,117.7739" style="stroke:#181818;stroke-width:1.0;"/><line style="stroke:#181818;stroke-width:1.0;" x1="76" x2="380" y1="117.7739" y2="117.7739"/><text fill="#000000" font-family="sans-serif" font-size="13" lengthAdjust="spacing" textLength="174" x="83" y="111.9649">Inicia a edicão de um Entrega</text><polygon fill="#181818" points="87,145.4799,77,149.4799,87,153.4799,83,149.4799" style="stroke:#181818;stroke-width:1.0;"/><line style="stroke:#181818;stroke-width:1.0;stroke-dasharray:2.0,2.0;" x1="81" x2="385" y1="149.4799" y2="149.4799"/><text fill="#000000" font-family="sans-serif" font-size="13" lengthAdjust="spacing" textLength="159" x="93" y="143.6709">Fornece a lista de Entregas</text><polygon fill="#181818" points="374,177.186,384,181.186,374,185.186,378,181.186" style="stroke:#181818;stroke-width:1.0;"/><line style="stroke:#181818;stroke-width:1.0;" x1="76" x2="380" y1="181.186" y2="181.186"/><text fill="#000000" font-family="sans-serif" font-size="13" lengthAdjust="spacing" textLength="172" x="83" y="175.377">Seleciona a Entrega desejada</text><polygon fill="#181818" points="87,262.01,77,266.01,87,270.01,83,266.01" style="stroke:#181818;stroke-width:1.0;"/><line style="stroke:#181818;stroke-width:1.0;stroke-dasharray:2.0,2.0;" x1="81" x2="385" y1="266.01" y2="266.01"/><text fill="#000000" font-family="sans-serif" font-size="13" lengthAdjust="spacing" textLength="167" x="93" y="207.083">Solicita os dados da Entrega</text><text fill="#000000" font-family="sans-serif" font-size="13" font-style="italic" lengthAdjust="spacing" textLength="154" x="93" y="224.789">(Data, Armazém de Partida,</text><text fill="#000000" font-family="sans-serif" font-size="13" font-style="italic" lengthAdjust="spacing" textLength="196" x="93" y="242.495">Armazém de Entrega, Massa/peso,</text><text fill="#000000" font-family="sans-serif" font-size="13" font-style="italic" lengthAdjust="spacing" textLength="257" x="93" y="260.201">Tempo de Carregamento, Tempo de Retirada)</text><polygon fill="#181818" points="374,293.716,384,297.716,374,301.716,378,297.716" style="stroke:#181818;stroke-width:1.0;"/><line style="stroke:#181818;stroke-width:1.0;" x1="76" x2="380" y1="297.716" y2="297.716"/><text fill="#000000" font-family="sans-serif" font-size="13" lengthAdjust="spacing" textLength="173" x="83" y="291.907">Fornece os dados da Entrega</text><line style="stroke:#181818;stroke-width:1.0;" x1="386" x2="428" y1="329.4221" y2="329.4221"/><line style="stroke:#181818;stroke-width:1.0;" x1="428" x2="428" y1="329.4221" y2="342.4221"/><line style="stroke:#181818;stroke-width:1.0;" x1="387" x2="428" y1="342.4221" y2="342.4221"/><polygon fill="#181818" points="397,338.4221,387,342.4221,397,346.4221,393,342.4221" style="stroke:#181818;stroke-width:1.0;"/><text fill="#000000" font-family="sans-serif" font-size="13" lengthAdjust="spacing" textLength="208" x="393" y="323.6131">Verifica/valida os dados da Entrega</text><line style="stroke:#181818;stroke-width:1.0;" x1="386" x2="428" y1="374.1281" y2="374.1281"/><line style="stroke:#181818;stroke-width:1.0;" x1="428" x2="428" y1="374.1281" y2="387.1281"/><line style="stroke:#181818;stroke-width:1.0;" x1="387" x2="428" y1="387.1281" y2="387.1281"/><polygon fill="#181818" points="397,383.1281,387,387.1281,397,391.1281,393,387.1281" style="stroke:#181818;stroke-width:1.0;"/><text fill="#000000" font-family="sans-serif" font-size="13" lengthAdjust="spacing" textLength="104" x="393" y="368.3191">Regista a Entrega</text><polygon fill="#181818" points="87,414.8341,77,418.8341,87,422.8341,83,418.8341" style="stroke:#181818;stroke-width:1.0;"/><line style="stroke:#181818;stroke-width:1.0;stroke-dasharray:2.0,2.0;" x1="81" x2="385" y1="418.8341" y2="418.8341"/><text fill="#000000" font-family="sans-serif" font-size="13" lengthAdjust="spacing" textLength="286" x="93" y="413.0251">Confirma que a Entrega foi editada com sucesso</text><!--MD5=[86a962b8c7bd455239ef0233a3e7d641]
@startuml
actor "Gestor de Armazéns" as A
participant "<i><<System>></i>ElectricGo" as S

A -> S: Inicia a edicão de um Entrega
S - -> A: Fornece a lista de Entregas

A -> S: Seleciona a Entrega desejada
S - -> A: Solicita os dados da Entrega\n<i>(Data, Armazém de Partida,</i>\n<i>Armazém de Entrega, Massa/peso,</i>\n<i>Tempo de Carregamento, Tempo de Retirada)</i>

A -> S: Fornece os dados da Entrega
S -> S: Verifica/valida os dados da Entrega
S -> S: Regista a Entrega
S - -> A: Confirma que a Entrega foi editada com sucesso

@enduml

PlantUML version 1.2022.6(Tue Jun 21 18:34:49 WEST 2022)
(GPL source distribution)
Java Runtime: OpenJDK Runtime Environment
JVM: OpenJDK 64-Bit Server VM
Default Encoding: UTF-8
Language: en
Country: US
--></g></svg>