<?xml version="1.0" encoding="UTF-8" standalone="no"?><svg xmlns="http://www.w3.org/2000/svg" xmlns:xlink="http://www.w3.org/1999/xlink" contentStyleType="text/css" height="439px" preserveAspectRatio="none" style="width:581px;height:439px;background:#FFFFFF;" version="1.1" viewBox="0 0 581 439" width="581px" zoomAndPan="magnify"><defs/><g><line style="stroke:#181818;stroke-width:0.5;stroke-dasharray:5.0,5.0;" x1="59" x2="59" y1="84.0679" y2="355.716"/><line style="stroke:#181818;stroke-width:0.5;stroke-dasharray:5.0,5.0;" x1="360" x2="360" y1="84.0679" y2="355.716"/><text fill="#000000" font-family="sans-serif" font-size="14" lengthAdjust="spacing" textLength="103" x="5" y="79.9659">Gestor de Frota</text><ellipse cx="59.5" cy="13.5" fill="#E2E2F0" rx="8" ry="8" style="stroke:#181818;stroke-width:0.5;"/><path d="M59.5,21.5 L59.5,48.5 M46.5,29.5 L72.5,29.5 M59.5,48.5 L46.5,63.5 M59.5,48.5 L72.5,63.5 " fill="none" style="stroke:#181818;stroke-width:0.5;"/><text fill="#000000" font-family="sans-serif" font-size="14" lengthAdjust="spacing" textLength="103" x="5" y="369.682">Gestor de Frota</text><ellipse cx="59.5" cy="382.284" fill="#E2E2F0" rx="8" ry="8" style="stroke:#181818;stroke-width:0.5;"/><path d="M59.5,390.284 L59.5,417.284 M46.5,398.284 L72.5,398.284 M59.5,417.284 L46.5,432.284 M59.5,417.284 L72.5,432.284 " fill="none" style="stroke:#181818;stroke-width:0.5;"/><rect fill="#E2E2F0" height="33.0679" rx="2.5" ry="2.5" style="stroke:#181818;stroke-width:0.5;" width="157" x="282" y="50"/><text fill="#000000" font-family="sans-serif" font-size="14" font-style="italic" lengthAdjust="spacing" textLength="76" x="289" y="71.9659">&lt;&lt;System&gt;&gt;</text><text fill="#000000" font-family="sans-serif" font-size="14" lengthAdjust="spacing" textLength="67" x="365" y="71.9659">ElectricGo</text><rect fill="#E2E2F0" height="33.0679" rx="2.5" ry="2.5" style="stroke:#181818;stroke-width:0.5;" width="157" x="282" y="354.716"/><text fill="#000000" font-family="sans-serif" font-size="14" font-style="italic" lengthAdjust="spacing" textLength="76" x="289" y="376.682">&lt;&lt;System&gt;&gt;</text><text fill="#000000" font-family="sans-serif" font-size="14" lengthAdjust="spacing" textLength="67" x="365" y="376.682">ElectricGo</text><polygon fill="#181818" points="348.5,113.7739,358.5,117.7739,348.5,121.7739,352.5,117.7739" style="stroke:#181818;stroke-width:1.0;"/><line style="stroke:#181818;stroke-width:1.0;" x1="59.5" x2="354.5" y1="117.7739" y2="117.7739"/><text fill="#000000" font-family="sans-serif" font-size="13" lengthAdjust="spacing" textLength="239" x="66.5" y="111.9649">Inicia o pedido de criacao de um Camião</text><polygon fill="#181818" points="70.5,180.892,60.5,184.892,70.5,188.892,66.5,184.892" style="stroke:#181818;stroke-width:1.0;"/><line style="stroke:#181818;stroke-width:1.0;stroke-dasharray:2.0,2.0;" x1="64.5" x2="359.5" y1="184.892" y2="184.892"/><text fill="#000000" font-family="sans-serif" font-size="13" lengthAdjust="spacing" textLength="166" x="76.5" y="143.6709">Solicita os dados do Camião</text><text fill="#000000" font-family="sans-serif" font-size="13" font-style="italic" lengthAdjust="spacing" textLength="251" x="76.5" y="161.377">(Tara, Capacidade de Carga, Carga Máxima,</text><text fill="#000000" font-family="sans-serif" font-size="13" font-style="italic" lengthAdjust="spacing" textLength="274" x="76.5" y="179.083">Autonomia, Tempo de Carregamento da Bateria)</text><polygon fill="#181818" points="348.5,212.598,358.5,216.598,348.5,220.598,352.5,216.598" style="stroke:#181818;stroke-width:1.0;"/><line style="stroke:#181818;stroke-width:1.0;" x1="59.5" x2="354.5" y1="216.598" y2="216.598"/><text fill="#000000" font-family="sans-serif" font-size="13" lengthAdjust="spacing" textLength="172" x="66.5" y="210.789">Fornece os dados do Camião</text><line style="stroke:#181818;stroke-width:1.0;" x1="360.5" x2="402.5" y1="248.304" y2="248.304"/><line style="stroke:#181818;stroke-width:1.0;" x1="402.5" x2="402.5" y1="248.304" y2="261.304"/><line style="stroke:#181818;stroke-width:1.0;" x1="361.5" x2="402.5" y1="261.304" y2="261.304"/><polygon fill="#181818" points="371.5,257.304,361.5,261.304,371.5,265.304,367.5,261.304" style="stroke:#181818;stroke-width:1.0;"/><text fill="#000000" font-family="sans-serif" font-size="13" lengthAdjust="spacing" textLength="207" x="367.5" y="242.495">Verifica/valida os dados do Camião</text><line style="stroke:#181818;stroke-width:1.0;" x1="360.5" x2="402.5" y1="293.01" y2="293.01"/><line style="stroke:#181818;stroke-width:1.0;" x1="402.5" x2="402.5" y1="293.01" y2="306.01"/><line style="stroke:#181818;stroke-width:1.0;" x1="361.5" x2="402.5" y1="306.01" y2="306.01"/><polygon fill="#181818" points="371.5,302.01,361.5,306.01,371.5,310.01,367.5,306.01" style="stroke:#181818;stroke-width:1.0;"/><text fill="#000000" font-family="sans-serif" font-size="13" lengthAdjust="spacing" textLength="103" x="367.5" y="287.201">Regista o Camião</text><polygon fill="#181818" points="70.5,333.716,60.5,337.716,70.5,341.716,66.5,337.716" style="stroke:#181818;stroke-width:1.0;"/><line style="stroke:#181818;stroke-width:1.0;stroke-dasharray:2.0,2.0;" x1="64.5" x2="359.5" y1="337.716" y2="337.716"/><text fill="#000000" font-family="sans-serif" font-size="13" lengthAdjust="spacing" textLength="277" x="76.5" y="331.907">Confirma que o Camião foi criado com sucesso</text><!--MD5=[1ca689de84420f90d18bba4189e6b034]
@startuml
actor "Gestor de Frota" as A
participant "<i><<System>></i>ElectricGo" as S

A -> S: Inicia o pedido de criacao de um Camião
S - -> A: Solicita os dados do Camião\n<i>(Tara, Capacidade de Carga, Carga Máxima,</i>\n<i>Autonomia, Tempo de Carregamento da Bateria)</i>

A -> S: Fornece os dados do Camião
S -> S: Verifica/valida os dados do Camião
S -> S: Regista o Camião
S - -> A: Confirma que o Camião foi criado com sucesso

@enduml

PlantUML version 1.2022.6(Tue Jun 21 18:34:49 WEST 2022)
(GPL source distribution)
Java Runtime: OpenJDK Runtime Environment
JVM: OpenJDK 64-Bit Server VM
Default Encoding: UTF-8
Language: en
Country: US
--></g></svg>